<svg xmlns="http://www.w3.org/2000/svg" xmlns:xlink="http://www.w3.org/1999/xlink" width="1080" zoomAndPan="magnify" viewBox="0 0 810 809.999993" height="1080" preserveAspectRatio="xMidYMid meet" version="1.0"><defs><clipPath id="a85e765927"><path d="M 0 0 L 655.417969 0 L 655.417969 809.832031 L 0 809.832031 Z M 0 0 " clip-rule="nonzero"/></clipPath></defs><g clip-path="url(#a85e765927)"><path fill="#84d1aa" d="M -0.0664062 809.609375 C 139.851562 785.460938 279.617188 761.167969 398.511719 688.28125 C 517.410156 615.246094 615.144531 493.617188 644.71875 370.492188 C 674.445312 247.363281 635.863281 123.035156 597.429688 -1.441406 L -0.0664062 -1.441406 Z M -0.0664062 809.609375 " fill-opacity="1" fill-rule="evenodd"/></g><path fill="#f76c66" d="M -0.0664062 647.699219 C 111.582031 628.195312 223.398438 608.84375 318.265625 550.484375 C 413.132812 492.128906 491.214844 394.613281 514.898438 296.199219 C 538.578125 197.785156 507.851562 98.171875 477.128906 -1.441406 L -0.0664062 -1.441406 Z M -0.0664062 647.699219 " fill-opacity="1" fill-rule="evenodd"/><path fill="#f7e7a8" d="M -0.0664062 484.289062 C 83.777344 469.769531 167.625 455.25 238.886719 411.542969 C 310.136719 367.835938 368.789062 294.9375 386.484375 221.292969 C 404.332031 147.644531 381.234375 73.101562 358.140625 -1.441406 L -0.0664062 -1.441406 Z M -0.0664062 484.289062 " fill-opacity="1" fill-rule="evenodd"/><path fill="#f7c659" d="M -0.0664062 322.378906 C 55.988281 312.796875 111.898438 303.066406 159.542969 273.875 C 207.183594 244.832031 246.265625 196.175781 258.144531 147.070312 C 270.007812 97.964844 254.679688 48.261719 239.203125 -1.441406 L -0.0664062 -1.441406 Z M -0.0664062 322.378906 " fill-opacity="1" fill-rule="evenodd"/><path fill="#000000" d="M -0.0664062 160.46875 C 27.722656 155.53125 55.660156 150.742188 79.265625 136.226562 C 102.871094 121.5625 122.453125 97.320312 128.273438 72.78125 C 134.257812 48.238281 126.488281 23.398438 118.855469 -1.441406 L -0.0664062 -1.441406 Z M -0.0664062 160.46875 " fill-opacity="1" fill-rule="evenodd"/></svg>