<svg xmlns="http://www.w3.org/2000/svg" xmlns:xlink="http://www.w3.org/1999/xlink" width="1080" zoomAndPan="magnify" viewBox="0 0 810 809.999993" height="1080" preserveAspectRatio="xMidYMid meet" version="1.0"><defs><clipPath id="d5dd388c40"><path d="M 1 22.839844 L 810 22.839844 L 810 810 L 1 810 Z M 1 22.839844 " clip-rule="nonzero"/></clipPath></defs><g clip-path="url(#d5dd388c40)"><path fill="#84d1aa" d="M 810 22.804688 C 742.660156 123.152344 675.320312 223.65625 576.527344 246.605469 C 477.730469 269.554688 347.320312 214.949219 241.09375 241.382812 C 134.867188 267.65625 52.828125 374.964844 20.109375 483.382812 C -12.457031 591.800781 4.457031 701.484375 21.214844 811.007812 L 810 811.007812 Z M 810 22.804688 " fill-opacity="1" fill-rule="evenodd"/></g><path fill="#f76c66" d="M 810 181.078125 C 756.066406 261.402344 702.292969 341.566406 623.054688 359.90625 C 543.976562 378.25 439.589844 334.609375 354.65625 355.796875 C 269.570312 376.828125 203.933594 462.523438 177.835938 549.171875 C 151.738281 635.816406 165.183594 723.414062 178.628906 811.007812 L 810 811.007812 Z M 810 181.078125 " fill-opacity="1" fill-rule="evenodd"/><path fill="#f7e7a8" d="M 810 337.769531 C 769.484375 398.113281 729.125 458.296875 669.773438 472.078125 C 610.421875 485.855469 532.078125 453.230469 468.132812 468.910156 C 404.351562 484.746094 355.128906 549.207031 335.503906 614.300781 C 315.878906 679.394531 326.007812 745.28125 336.136719 811.007812 L 810 811.007812 Z M 810 337.769531 " fill-opacity="1" fill-rule="evenodd"/><path fill="#f7c659" d="M 810 496.042969 C 783.050781 536.203125 755.941406 576.367188 716.308594 585.535156 C 676.679688 594.707031 624.363281 572.886719 581.722656 583.324219 C 539.238281 593.917969 506.261719 636.765625 493.105469 680.089844 C 480.105469 723.414062 486.765625 767.210938 493.582031 811.007812 L 810 811.007812 Z M 810 496.042969 " fill-opacity="1" fill-rule="evenodd"/><path fill="#000000" d="M 810 652.734375 C 796.589844 672.917969 783.179688 693.097656 763.460938 697.707031 C 743.742188 702.316406 717.710938 691.351562 696.414062 696.59375 C 675.273438 701.839844 658.867188 723.449219 652.398438 745.222656 C 645.773438 766.992188 649.242188 789.082031 652.554688 811.007812 L 810 811.007812 Z M 810 652.734375 " fill-opacity="1" fill-rule="evenodd"/></svg>