<svg xmlns="http://www.w3.org/2000/svg" xmlns:xlink="http://www.w3.org/1999/xlink" width="1080" zoomAndPan="magnify" viewBox="0 0 810 809.999993" height="1080" preserveAspectRatio="xMidYMid meet" version="1.0"><defs><clipPath id="a2782d3700"><path d="M 0 0 L 805.5 0 L 805.5 805.5 L 0 805.5 Z M 0 0 " clip-rule="nonzero"/></clipPath><clipPath id="52268e6a92"><path d="M 298 23 L 805.5 23 L 805.5 502 L 298 502 Z M 298 23 " clip-rule="nonzero"/></clipPath></defs><g clip-path="url(#a2782d3700)"><path fill="#03a8e8" d="M 805.550781 402.726562 C 805.550781 403.675781 805.550781 404.722656 805.488281 405.691406 C 805.359375 425.53125 803.804688 445.039062 800.824219 464.117188 C 786.804688 556.257812 741.574219 638.0625 676.25 698.421875 L 676.1875 698.421875 C 604.328125 764.902344 508.238281 805.550781 402.726562 805.550781 C 351.085938 805.550781 301.714844 795.859375 256.421875 778.082031 C 250.808594 775.957031 245.242188 773.625 239.738281 771.183594 C 163.105469 737.246094 99.128906 680.136719 56.546875 608.65625 C 35.167969 572.734375 19.136719 533.183594 9.699219 491.1875 C 3.308594 462.6875 -0.0546875 433.078125 -0.0546875 402.726562 C -0.0546875 392.066406 0.34375 381.519531 1.246094 371.132812 C 8.035156 282.78125 43.382812 202.453125 98.050781 139.332031 C 119.097656 115.019531 143.011719 93.246094 169.261719 74.578125 L 169.324219 74.515625 C 176.429688 69.488281 183.722656 64.574219 191.226562 59.988281 C 236.980469 31.679688 288.792969 12.222656 344.300781 4.148438 C 363.363281 1.359375 382.882812 -0.0546875 402.726562 -0.0546875 C 450.015625 -0.0546875 495.5 8.144531 537.640625 23.148438 C 605.753906 47.316406 665.324219 89.3125 710.949219 143.457031 C 770.027344 213.523438 805.550781 303.984375 805.550781 402.726562 " fill-opacity="1" fill-rule="nonzero"/></g><path fill="#84d1aa" d="M 456.535156 717.960938 C 456.535156 717.960938 434.601562 687.367188 437.042969 634.921875 C 439.46875 582.472656 434.601562 573.734375 400.503906 562.808594 C 366.40625 551.882812 332.292969 532.199219 327.425781 505.984375 C 322.554688 479.753906 351.785156 418.566406 351.785156 418.566406 C 351.785156 418.566406 390.765625 392.351562 424.863281 396.714844 C 458.960938 401.089844 517.433594 401.089844 544.222656 425.132812 C 571.023438 449.160156 588.054688 503.796875 600.234375 505.984375 C 612.417969 508.171875 583.1875 602.140625 578.320312 617.445312 C 573.449219 632.730469 558.84375 693.933594 546.664062 717.960938 C 534.484375 742.003906 522.304688 763.855469 512.550781 763.855469 C 502.8125 763.855469 458.960938 768.234375 456.535156 717.960938 " fill-opacity="1" fill-rule="nonzero"/><path fill="#84d1aa" d="M 267.269531 712.964844 C 265.144531 723.289062 261.339844 750.757812 256.421875 778.082031 C 250.808594 775.957031 245.242188 773.625 239.738281 771.183594 C 163.105469 737.246094 99.128906 680.136719 56.546875 608.65625 C 35.167969 572.734375 19.136719 533.183594 9.699219 491.1875 C 24.558594 483.289062 43.179688 476.183594 61.464844 476.519531 C 101.523438 477.296875 106.566406 487.144531 140.679688 511.613281 C 174.730469 536.117188 201.421875 597.238281 215.839844 598.285156 C 230.238281 599.253906 270.964844 694.597656 267.269531 712.964844 " fill-opacity="1" fill-rule="nonzero"/><g clip-path="url(#52268e6a92)"><path fill="#84d1aa" d="M 805.550781 402.726562 C 805.550781 403.675781 805.550781 404.722656 805.488281 405.691406 C 805.359375 425.53125 803.804688 445.039062 800.824219 464.117188 C 782.746094 437.550781 763.222656 397.679688 753.277344 390.703125 C 737.957031 379.902344 681.816406 373.449219 702.226562 401.488281 C 722.652344 429.605469 731.296875 429.605469 731.296875 429.605469 C 731.296875 429.605469 692.015625 508.695312 663.976562 501.019531 C 635.871094 493.390625 579.714844 390.703125 579.714844 390.703125 C 546.550781 364.597656 610.339844 345.347656 610.339844 345.347656 C 610.339844 345.347656 630.765625 327.503906 600.125 307.078125 C 569.5 286.667969 546.550781 330.027344 526.140625 324.917969 C 505.730469 319.8125 500.609375 340.222656 494.21875 360.648438 C 487.824219 381.0625 469.207031 393.289062 464.878906 360.648438 C 460.484375 328.011719 413.824219 347.929688 398.523438 347.929688 C 383.203125 347.929688 352.578125 401.488281 324.460938 401.488281 C 296.417969 401.488281 296.417969 363.234375 301.527344 345.347656 C 306.632812 327.503906 349.992188 309.597656 390.832031 307.078125 C 431.667969 304.507812 393.414062 268.761719 406.148438 261.847656 C 418.933594 254.867188 457.203125 266.238281 494.21875 281.558594 C 531.183594 296.878906 569.5 261.132812 602.710938 261.847656 C 635.871094 262.558594 531.25 235.613281 564.394531 210.082031 C 597.621094 184.5625 526.140625 161.566406 528.664062 133.511719 C 531.25 105.410156 508.238281 72.25 508.238281 41.625 C 508.238281 31.871094 519.101562 25.527344 537.640625 23.148438 C 605.753906 47.316406 665.324219 89.3125 710.949219 143.457031 C 770.027344 213.523438 805.550781 303.984375 805.550781 402.726562 " fill-opacity="1" fill-rule="nonzero"/></g><path fill="#84d1aa" d="M 235.328125 266.558594 C 235.328125 266.558594 250.125 284.035156 261.53125 266.558594 C 272.949219 249.0625 274.566406 235.125 267.429688 233.871094 C 260.261719 232.585938 217.789062 259.277344 235.328125 266.558594 " fill-opacity="1" fill-rule="nonzero"/><path fill="#84d1aa" d="M 149.132812 266.558594 C 149.132812 266.558594 179.550781 258.785156 186.308594 243.578125 C 193.082031 228.351562 231.953125 235.125 242.085938 219.898438 C 252.234375 204.691406 278.484375 199.265625 284.8125 185.070312 C 291.105469 170.894531 297.972656 148.929688 271.726562 147.214844 C 245.480469 145.535156 219.597656 133.71875 219.867188 147.214844 C 220.121094 160.757812 213.363281 157.367188 189.703125 165.820312 C 166.039062 174.269531 140.679688 162.074219 140.679688 185.070312 C 140.679688 208.082031 147.453125 233.808594 147.453125 233.808594 C 147.453125 233.808594 133.925781 252.363281 149.132812 266.558594 " fill-opacity="1" fill-rule="nonzero"/><path fill="#84d1aa" d="M 344.300781 4.148438 C 344.300781 4.148438 299.003906 64.636719 290.597656 66.253906 C 282.144531 67.855469 256.230469 85.617188 251.441406 103.414062 C 246.605469 121.191406 212.667969 132.480469 186.832031 121.191406 C 160.980469 109.867188 155.035156 97.402344 169.261719 74.578125 L 169.324219 74.515625 C 176.429688 69.488281 183.722656 64.574219 191.226562 59.988281 C 236.980469 31.679688 288.792969 12.222656 344.300781 4.148438 " fill-opacity="1" fill-rule="nonzero"/><path fill="#84d1aa" d="M 90.421875 241.816406 C 86.140625 254.742188 87.1875 269.808594 73.230469 274.3125 C 59.195312 278.847656 64.574219 295.644531 54.882812 317.164062 C 46.160156 336.558594 8.746094 365.503906 1.246094 371.132812 C 8.035156 282.78125 43.382812 202.453125 98.050781 139.332031 C 103.730469 156.589844 101.523438 185.070312 106.566406 194.382812 C 114.132812 208.402344 94.738281 228.890625 90.421875 241.816406 " fill-opacity="1" fill-rule="nonzero"/></svg>