<svg xmlns="http://www.w3.org/2000/svg" xmlns:xlink="http://www.w3.org/1999/xlink" width="1800" zoomAndPan="magnify" viewBox="0 0 1350 225" height="300" preserveAspectRatio="xMidYMid meet" version="1.0"><defs><clipPath id="2b02b6aaaf"><path d="M 562.5 0 L 787.5 0 L 787.5 225 L 562.5 225 Z M 562.5 0 " clip-rule="nonzero"/></clipPath><clipPath id="7f1d505b18"><path d="M 675 0 C 612.867188 0 562.5 50.367188 562.5 112.5 C 562.5 174.632812 612.867188 225 675 225 C 737.132812 225 787.5 174.632812 787.5 112.5 C 787.5 50.367188 737.132812 0 675 0 " clip-rule="nonzero"/></clipPath><clipPath id="a29fa382e5"><path d="M 567.339844 4.839844 L 782.660156 4.839844 L 782.660156 220.160156 L 567.339844 220.160156 Z M 567.339844 4.839844 " clip-rule="nonzero"/></clipPath><clipPath id="44d7d01095"><path d="M 675 4.839844 C 615.539062 4.839844 567.339844 53.039062 567.339844 112.5 C 567.339844 171.960938 615.539062 220.160156 675 220.160156 C 734.460938 220.160156 782.660156 171.960938 782.660156 112.5 C 782.660156 53.039062 734.460938 4.839844 675 4.839844 " clip-rule="nonzero"/></clipPath></defs><path stroke-linecap="butt" transform="matrix(0.749703, -0.00000000000000009, 0.00000000000000009, 0.75, 0, 75.000036)" fill="none" stroke-linejoin="miter" d="M -0.000000000000005996 49.999955 L 948.385471 49.999955 " stroke="#000000" stroke-width="100" stroke-opacity="1" stroke-miterlimit="4"/><path stroke-linecap="butt" transform="matrix(0.749736, 0, 0, 0.75, 0.000000000000085265, 79.875035)" fill="none" stroke-linejoin="miter" d="M -0.000000000000113727 43.499955 L 976.343807 43.499955 " stroke="#f7c659" stroke-width="87" stroke-opacity="1" stroke-miterlimit="4"/><g clip-path="url(#2b02b6aaaf)"><g clip-path="url(#7f1d505b18)"><path fill="#000000" d="M 562.5 0 L 787.5 0 L 787.5 225 L 562.5 225 Z M 562.5 0 " fill-opacity="1" fill-rule="nonzero"/></g></g><g clip-path="url(#a29fa382e5)"><g clip-path="url(#44d7d01095)"><path fill="#f76c66" d="M 567.339844 4.839844 L 782.660156 4.839844 L 782.660156 220.160156 L 567.339844 220.160156 Z M 567.339844 4.839844 " fill-opacity="1" fill-rule="nonzero"/></g></g></svg>