<svg xmlns="http://www.w3.org/2000/svg" xmlns:xlink="http://www.w3.org/1999/xlink" width="1080" zoomAndPan="magnify" viewBox="0 0 810 809.999993" height="1080" preserveAspectRatio="xMidYMid meet" version="1.0"><path fill="#1877f2" d="M 810 405 C 810 181.324219 628.675781 0 405 0 C 181.324219 0 0 181.324219 0 405 C 0 607.148438 148.101562 774.699219 341.71875 805.082031 L 341.71875 522.070312 L 238.886719 522.070312 L 238.886719 405 L 341.71875 405 L 341.71875 315.773438 C 341.71875 214.269531 402.183594 158.203125 494.695312 158.203125 C 539.003906 158.203125 585.351562 166.113281 585.351562 166.113281 L 585.351562 265.78125 L 534.28125 265.78125 C 483.972656 265.78125 468.28125 297 468.28125 329.027344 L 468.28125 405 L 580.605469 405 L 562.648438 522.070312 L 468.28125 522.070312 L 468.28125 805.082031 C 661.898438 774.699219 810 607.148438 810 405 " fill-opacity="1" fill-rule="nonzero"/><path fill="#ffffff" d="M 562.648438 522.070312 L 580.605469 405 L 468.28125 405 L 468.28125 329.027344 C 468.28125 297 483.972656 265.78125 534.28125 265.78125 L 585.351562 265.78125 L 585.351562 166.113281 C 585.351562 166.113281 539.003906 158.203125 494.695312 158.203125 C 402.183594 158.203125 341.71875 214.269531 341.71875 315.773438 L 341.71875 405 L 238.886719 405 L 238.886719 522.070312 L 341.71875 522.070312 L 341.71875 805.082031 C 362.335938 808.316406 383.472656 810 405 810 C 426.527344 810 447.664062 808.316406 468.28125 805.082031 L 468.28125 522.070312 L 562.648438 522.070312 " fill-opacity="1" fill-rule="nonzero"/></svg>