<svg xmlns="http://www.w3.org/2000/svg" xmlns:xlink="http://www.w3.org/1999/xlink" width="1080" zoomAndPan="magnify" viewBox="0 0 810 809.999993" height="1080" preserveAspectRatio="xMidYMid meet" version="1.0"><defs><clipPath id="2ea1fb7220"><path d="M 405 0 C 181.324219 0 0 181.324219 0 405 C 0 628.675781 181.324219 810 405 810 C 628.675781 810 810 628.675781 810 405 C 810 181.324219 628.675781 0 405 0 " clip-rule="nonzero"/></clipPath><clipPath id="274f4928fe"><path d="M 140 96.628906 L 671 96.628906 L 671 746.878906 L 140 746.878906 Z M 140 96.628906 " clip-rule="nonzero"/></clipPath></defs><g clip-path="url(#2ea1fb7220)"><rect x="-81" width="972" fill="#43e660" y="-80.999999" height="971.999992" fill-opacity="1"/></g><g clip-path="url(#274f4928fe)"><path fill="#ffffff" d="M 452.746094 255.21875 L 561.261719 143.675781 L 624.246094 208.171875 L 510.417969 316.683594 L 670.535156 316.683594 L 670.535156 406.222656 L 509.660156 406.222656 L 624.246094 517.515625 L 561.261719 580.75 L 405.699219 424.433594 L 250.136719 580.75 L 187.152344 517.769531 L 301.734375 406.476562 L 140.863281 406.476562 L 140.863281 316.683594 L 300.976562 316.683594 L 187.152344 208.171875 L 250.136719 143.675781 L 358.652344 255.21875 L 358.652344 96.628906 L 452.746094 96.628906 Z M 358.652344 534.464844 L 452.746094 534.464844 L 452.746094 746.929688 L 358.652344 746.929688 Z M 358.652344 534.464844 " fill-opacity="1" fill-rule="nonzero"/></g></svg>