<svg xmlns="http://www.w3.org/2000/svg" xmlns:xlink="http://www.w3.org/1999/xlink" width="1800" zoomAndPan="magnify" viewBox="0 0 1350 225" height="300" preserveAspectRatio="xMidYMid meet" version="1.0"><defs><clipPath id="8ff05a0869"><path d="M 562.5 0 L 787.5 0 L 787.5 225 L 562.5 225 Z M 562.5 0 " clip-rule="nonzero"/></clipPath><clipPath id="c9d36f00b1"><path d="M 675 0 C 612.867188 0 562.5 50.367188 562.5 112.5 C 562.5 174.632812 612.867188 225 675 225 C 737.132812 225 787.5 174.632812 787.5 112.5 C 787.5 50.367188 737.132812 0 675 0 " clip-rule="nonzero"/></clipPath><clipPath id="2c98aaa048"><path d="M 567.339844 4.839844 L 782.660156 4.839844 L 782.660156 220.160156 L 567.339844 220.160156 Z M 567.339844 4.839844 " clip-rule="nonzero"/></clipPath><clipPath id="e64acefd4a"><path d="M 675 4.839844 C 615.539062 4.839844 567.339844 53.039062 567.339844 112.5 C 567.339844 171.960938 615.539062 220.160156 675 220.160156 C 734.460938 220.160156 782.660156 171.960938 782.660156 112.5 C 782.660156 53.039062 734.460938 4.839844 675 4.839844 " clip-rule="nonzero"/></clipPath></defs><path stroke-linecap="butt" transform="matrix(0.75, 0.000000000000000095, -0.000000000000000095, 0.75, 0, 75.000021)" fill="none" stroke-linejoin="miter" d="M 0.000000000000006316 49.999974 L 1800.000075 49.999974 " stroke="#000000" stroke-width="100" stroke-opacity="1" stroke-miterlimit="4"/><path stroke-linecap="butt" transform="matrix(0.75, 0, 0, 0.75, 0, 79.875021)" fill="none" stroke-linejoin="miter" d="M 0 43.499974 L 1800.000075 43.499974 " stroke="#f7c659" stroke-width="87" stroke-opacity="1" stroke-miterlimit="4"/><g clip-path="url(#8ff05a0869)"><g clip-path="url(#c9d36f00b1)"><path fill="#000000" d="M 562.5 0 L 787.5 0 L 787.5 225 L 562.5 225 Z M 562.5 0 " fill-opacity="1" fill-rule="nonzero"/></g></g><g clip-path="url(#2c98aaa048)"><g clip-path="url(#e64acefd4a)"><path fill="#f76c66" d="M 567.339844 4.839844 L 782.660156 4.839844 L 782.660156 220.160156 L 567.339844 220.160156 Z M 567.339844 4.839844 " fill-opacity="1" fill-rule="nonzero"/></g></g></svg>