<svg xmlns="http://www.w3.org/2000/svg" xmlns:xlink="http://www.w3.org/1999/xlink" width="300" zoomAndPan="magnify" viewBox="0 0 224.87999 74.999997" height="100" preserveAspectRatio="xMidYMid meet" version="1.0"><defs><g/><clipPath id="ac93a5f18c"><path d="M 0 2.3125 L 66.714844 2.3125 L 66.714844 72.777344 L 0 72.777344 Z M 0 2.3125 " clip-rule="nonzero"/></clipPath><clipPath id="a7c0fcd313"><path d="M 177 14.253906 L 223.496094 14.253906 L 223.496094 33 L 177 33 Z M 177 14.253906 " clip-rule="nonzero"/></clipPath><clipPath id="f158ce231a"><path d="M 177 42 L 223.496094 42 L 223.496094 60.945312 L 177 60.945312 Z M 177 42 " clip-rule="nonzero"/></clipPath><clipPath id="39919b84f8"><path d="M 67.851562 14.253906 L 116.410156 14.253906 L 116.410156 33 L 67.851562 33 Z M 67.851562 14.253906 " clip-rule="nonzero"/></clipPath><clipPath id="ce25f52108"><path d="M 68 42 L 116.410156 42 L 116.410156 60.945312 L 68 60.945312 Z M 68 42 " clip-rule="nonzero"/></clipPath><clipPath id="e751d989de"><path d="M 124 14.253906 L 171.949219 14.253906 L 171.949219 33 L 124 33 Z M 124 14.253906 " clip-rule="nonzero"/></clipPath><clipPath id="1033e05bfc"><path d="M 124 42 L 171.949219 42 L 171.949219 60.945312 L 124 60.945312 Z M 124 42 " clip-rule="nonzero"/></clipPath></defs><path fill="#f76c66" d="M 17.484375 43.671875 C 17.808594 42.746094 18.152344 41.804688 18.480469 40.882812 L 18.535156 40.726562 L 18.671875 40.84375 C 19.300781 41.382812 19.972656 41.902344 20.546875 42.496094 C 22.730469 44.804688 24.03125 47.710938 24.703125 50.785156 C 24.894531 51.652344 25.105469 52.515625 25.257812 53.382812 C 25.351562 53.882812 25.429688 54.382812 25.410156 54.902344 C 25.390625 55.402344 25.257812 55.902344 25.125 56.382812 C 24.894531 57.210938 24.625 58.054688 24.394531 58.882812 C 24.261719 59.363281 24.050781 59.824219 23.878906 60.285156 C 23.78125 60.519531 23.609375 60.804688 23.496094 61.019531 L 23.285156 61.402344 L 23.285156 60.960938 C 23.171875 54.710938 21.964844 48.460938 17.539062 43.785156 L 17.484375 43.730469 Z M 49.5 22.476562 C 49.632812 23.171875 49.75 23.84375 49.882812 24.535156 L 49.902344 24.613281 L 49.84375 24.652344 C 46.875 26.804688 44.40625 29.457031 42.339844 32.496094 L 42.109375 32.84375 L 42.128906 32.441406 C 42.28125 29.84375 42.875 27.363281 43.277344 24.824219 L 43.296875 24.765625 L 43.351562 24.746094 C 45.34375 23.976562 47.355469 23.1875 49.347656 22.421875 L 49.480469 22.363281 Z M 50.285156 25.59375 C 50.820312 26.1875 51.355469 26.785156 51.894531 27.363281 L 51.96875 27.4375 L 51.894531 27.515625 C 50.78125 28.671875 49.652344 29.824219 48.542969 30.996094 C 47.316406 32.265625 46.398438 33.726562 45.785156 35.382812 C 45.132812 37.171875 45.039062 39.265625 46.226562 40.863281 C 46.742188 41.554688 47.449219 42.054688 48.253906 42.34375 C 48.792969 42.535156 49.347656 42.671875 49.902344 42.84375 L 49.976562 42.863281 L 49.976562 42.941406 C 49.976562 43.515625 49.976562 44.074219 49.960938 44.652344 C 49.941406 45.035156 49.902344 45.421875 49.882812 45.804688 L 49.882812 45.882812 L 49.804688 45.902344 C 48.945312 46.210938 48.082031 46.132812 47.222656 45.902344 C 45.59375 45.460938 44.195312 44.613281 43.027344 43.402344 C 41.4375 41.746094 40.882812 38.765625 41.628906 36.59375 C 42.089844 35.207031 42.703125 33.863281 43.449219 32.613281 C 44.921875 30.152344 46.855469 28.171875 49.039062 26.324219 C 49.382812 26.035156 49.769531 25.804688 50.132812 25.554688 L 50.207031 25.496094 Z M 50.304688 37.691406 C 49.710938 37.460938 49.269531 36.996094 49.289062 36.324219 C 49.308594 35.34375 49.941406 34.882812 50.6875 34.402344 L 50.898438 34.265625 L 50.859375 34.515625 C 50.726562 35.554688 50.589844 36.574219 50.457031 37.613281 L 50.4375 37.746094 Z M 55.644531 19.996094 C 55.4375 20.035156 55.128906 20.132812 54.917969 20.113281 C 54.652344 20.09375 54.113281 20.035156 53.902344 20.207031 C 53.617188 20.4375 53.636719 21.265625 53.636719 21.59375 C 53.636719 21.746094 53.617188 21.882812 53.558594 22.035156 C 53.519531 22.152344 53.386719 22.246094 53.308594 22.324219 L 53.195312 22.4375 L 53.117188 22.304688 C 52.46875 21.113281 52.351562 19.613281 53.117188 18.4375 C 53.425781 17.976562 53.808594 17.804688 54.230469 18.246094 C 54.726562 18.765625 55.207031 19.285156 55.683594 19.804688 L 55.820312 19.957031 Z M 44.273438 18.804688 C 44.386719 17.976562 44.484375 17.167969 44.597656 16.34375 L 44.597656 16.285156 L 44.636719 16.265625 C 45.421875 15.707031 46.1875 15.167969 46.972656 14.613281 L 47.085938 14.535156 L 47.144531 14.652344 C 47.679688 15.726562 48.199219 16.804688 48.734375 17.882812 L 48.773438 17.957031 L 48.695312 18.015625 C 47.605469 18.824219 45.707031 19.054688 44.367188 18.917969 L 44.253906 18.902344 Z M 49.75 17.785156 C 48.847656 16.613281 48.273438 15.363281 47.777344 13.976562 L 47.757812 13.917969 L 47.796875 13.863281 C 48.484375 13.054688 49.15625 12.246094 49.84375 11.4375 L 49.960938 11.304688 L 50.035156 11.457031 C 50.628906 12.6875 51.203125 13.902344 51.796875 15.132812 L 51.835938 15.1875 L 51.796875 15.246094 C 51.183594 16.09375 50.570312 16.917969 49.960938 17.765625 L 49.863281 17.882812 Z M 43.640625 23.285156 C 43.773438 22.285156 43.90625 21.265625 44.042969 20.265625 L 44.0625 20.1875 L 44.136719 20.167969 C 45.917969 19.84375 47.71875 19.515625 49.5 19.1875 L 49.613281 19.167969 L 49.632812 19.285156 C 49.75 20.152344 49.5 20.824219 48.792969 21.324219 C 47.257812 22.382812 45.613281 23.09375 43.773438 23.421875 L 43.621094 23.4375 Z M 53.042969 17.035156 C 52.257812 18.417969 51.566406 19.996094 51.949219 21.613281 C 52.140625 22.457031 52.601562 23.207031 53.097656 23.921875 L 53.117188 23.957031 L 53.097656 24.015625 C 52.925781 24.726562 52.773438 25.457031 52.601562 26.171875 L 52.582031 26.285156 L 52.46875 26.265625 C 51.605469 26.09375 51.164062 25.324219 50.820312 24.59375 C 49.769531 22.402344 50.113281 18.574219 51.683594 16.6875 C 51.816406 16.535156 52.007812 16.265625 52.238281 16.246094 C 52.523438 16.226562 52.871094 16.707031 53.023438 16.917969 L 53.082031 16.976562 Z M 49.921875 47.246094 C 49.941406 47.765625 49.976562 48.304688 49.996094 48.824219 L 49.996094 48.921875 L 49.902344 48.941406 C 49.097656 49.054688 48.273438 49.285156 47.449219 49.265625 C 45.191406 49.210938 43.199219 48.554688 41.457031 47.074219 C 40.804688 46.515625 40.539062 45.902344 40.613281 45.035156 C 40.691406 44.171875 40.730469 43.324219 40.785156 42.460938 L 40.785156 42.363281 L 40.882812 42.363281 C 40.960938 42.363281 41.054688 42.34375 41.132812 42.34375 L 41.207031 42.34375 L 41.246094 42.402344 C 42.128906 44.113281 43.429688 45.191406 45.058594 46.132812 C 46.550781 46.980469 48.121094 47.210938 49.804688 47.132812 L 49.921875 47.132812 Z M 51.914062 29.363281 C 51.722656 30.382812 51.585938 31.421875 51.339844 32.441406 C 51.242188 32.804688 50.917969 33.074219 50.667969 33.324219 C 50.132812 33.84375 49.480469 34.265625 49.019531 34.882812 C 48.273438 35.84375 48.3125 36.726562 49 37.710938 C 49.347656 38.210938 49.804688 38.652344 50.226562 39.113281 L 50.265625 39.152344 L 50.265625 39.191406 C 50.246094 39.554688 50.226562 39.921875 50.207031 40.285156 C 50.167969 40.710938 50.09375 41.113281 50.054688 41.535156 L 50.035156 41.632812 L 49.941406 41.632812 C 48.925781 41.726562 48.082031 41.324219 47.355469 40.671875 C 46.035156 39.496094 45.746094 37.921875 46.398438 36.285156 C 46.855469 35.113281 47.394531 33.921875 48.160156 32.902344 C 49.175781 31.535156 50.378906 30.363281 51.53125 29.113281 L 51.585938 29.035156 L 51.664062 29.09375 C 51.738281 29.152344 51.816406 29.191406 51.894531 29.246094 L 51.949219 29.285156 Z M 9.746094 68.480469 C 10.664062 67.671875 11.585938 66.84375 12.503906 66.035156 L 12.734375 65.84375 L 12.695312 66.152344 C 12.523438 67.441406 12.351562 68.710938 12.179688 70 L 12.160156 70.171875 L 12.007812 70.074219 C 11.257812 69.613281 10.511719 69.152344 9.765625 68.671875 L 9.632812 68.59375 Z M 16.945312 68.152344 C 17.195312 66.460938 17.902344 64.730469 18.898438 63.34375 C 19.648438 62.285156 20.816406 61.113281 22.136719 60.882812 L 22.269531 60.863281 L 22.269531 61 C 22.347656 62.460938 22.078125 63.769531 21.007812 64.824219 C 19.761719 66.074219 18.613281 67.324219 17.117188 68.289062 L 16.910156 68.421875 Z M 14.246094 51.480469 C 14.4375 52.554688 14.265625 53.460938 13.980469 54.5 C 13.789062 55.210938 13.519531 56 13.117188 56.613281 C 11.871094 58.480469 10.550781 60.285156 9.25 62.09375 C 9.078125 62.34375 8.847656 62.5 8.617188 62.691406 C 8.519531 62.769531 8.367188 62.710938 8.273438 62.710938 L 8.15625 62.710938 L 8.15625 62.59375 C 8.234375 61.535156 8.578125 60.574219 9 59.613281 C 9.441406 58.613281 9.976562 57.671875 10.550781 56.730469 C 11.527344 55.113281 12.5625 53.554688 13.578125 51.960938 C 13.691406 51.765625 13.902344 51.59375 14.054688 51.402344 L 14.207031 51.230469 Z M 21.753906 54.652344 C 20.242188 55.632812 18.726562 56.613281 17.234375 57.613281 L 17.101562 57.710938 L 17.0625 57.554688 C 16.925781 57 17.175781 56.535156 17.273438 56 C 17.445312 55.09375 17.675781 54.210938 17.828125 53.304688 C 18.171875 51.09375 17.902344 48.941406 17.042969 46.882812 C 16.734375 46.171875 16.5625 45.613281 17.101562 44.921875 L 17.175781 44.824219 L 17.273438 44.902344 C 18.878906 46.324219 20.144531 48.785156 20.871094 50.765625 C 21.3125 51.980469 21.65625 53.265625 21.828125 54.554688 L 21.828125 54.632812 Z M 15.949219 69.09375 C 15.109375 69.574219 14.207031 70 13.210938 69.960938 L 13.097656 69.960938 L 13.097656 69.84375 C 13.097656 69.554688 13.117188 69.25 13.117188 68.960938 C 13.269531 66.34375 14.035156 63.710938 15.375 61.460938 C 16.621094 59.34375 18.402344 57.515625 20.660156 56.5 C 21.082031 56.304688 21.503906 56.152344 21.945312 56.035156 L 22.078125 56 L 22.097656 56.132812 C 22.210938 57.191406 22.328125 58.25 22.441406 59.304688 L 22.441406 59.402344 L 22.367188 59.441406 C 18.269531 61.019531 16.734375 64.960938 16.007812 69.019531 L 16.007812 69.074219 Z M 7.984375 64.480469 C 8.695312 63.824219 9.554688 63.191406 10.148438 62.421875 C 11.296875 60.960938 12.410156 59.460938 13.386719 57.882812 C 14.800781 55.574219 15.375 53.09375 14.878906 50.402344 C 14.820312 50.132812 14.839844 49.785156 14.9375 49.535156 C 15.261719 48.785156 15.644531 48.035156 15.988281 47.304688 L 16.085938 47.09375 L 16.179688 47.285156 C 17.195312 49.265625 17.386719 51.34375 16.984375 53.515625 C 16.542969 55.941406 15.894531 58.324219 14.898438 60.574219 C 13.824219 62.980469 12.3125 65.054688 10.339844 66.785156 C 10.015625 67.074219 9.480469 67.519531 9.019531 67.382812 C 8.464844 67.230469 8.234375 66.25 8.117188 65.769531 C 8.023438 65.363281 8.003906 64.960938 7.945312 64.554688 L 7.945312 64.5 Z M 7.984375 64.480469 " fill-opacity="1" fill-rule="evenodd"/><path fill="#f7e7a8" d="M 42.875 15.574219 C 42.816406 15.496094 42.757812 15.4375 42.738281 15.324219 C 42.453125 13.726562 42.835938 12.554688 44.234375 11.707031 C 45.132812 11.167969 45.878906 10.246094 46.589844 9.496094 C 47.605469 8.417969 48.292969 7.132812 48.65625 5.6875 C 48.828125 5.015625 49.15625 4.515625 49.921875 4.667969 C 50.515625 4.785156 51.144531 4.785156 51.738281 4.824219 L 51.875 4.84375 L 51.855469 4.976562 C 51.511719 6.667969 50.726562 8.363281 49.804688 9.824219 C 48.90625 11.265625 47.757812 12.6875 46.472656 13.824219 C 45.554688 14.632812 44.234375 15.554688 42.988281 15.667969 L 42.914062 15.667969 Z M 4.902344 10.667969 C 5.4375 9.996094 5.992188 9.324219 6.53125 8.632812 L 6.585938 8.554688 L 6.664062 8.59375 C 7.621094 9.015625 8.636719 9.574219 9.632812 8.898438 C 10.628906 8.207031 11.066406 6.917969 11.394531 5.804688 L 11.414062 5.746094 L 11.46875 5.726562 C 11.929688 5.554688 12.425781 5.363281 12.90625 5.226562 C 13.175781 5.167969 13.460938 5.113281 13.730469 5.226562 C 14.035156 5.363281 14.265625 5.726562 14.4375 5.996094 L 14.496094 6.074219 L 14.4375 6.132812 C 13.558594 7.09375 12.636719 8.015625 11.816406 9.035156 C 11.257812 9.726562 10.800781 10.515625 10.457031 11.324219 C 10.1875 11.957031 9.804688 12.246094 9.132812 12.324219 C 7.601562 12.457031 6.242188 11.574219 4.980469 10.824219 L 4.863281 10.765625 Z M 10.300781 6.285156 C 10.109375 6.863281 9.804688 7.804688 9.191406 8.074219 C 8.710938 8.304688 8.0625 8.132812 7.5625 7.976562 L 7.390625 7.917969 L 7.507812 7.785156 C 8.292969 6.9375 9.113281 6.554688 10.128906 6.132812 L 10.359375 6.035156 Z M 6.605469 20.167969 C 5.132812 21.1875 3.636719 22.226562 2.164062 23.246094 L 2.050781 23.324219 L 1.992188 23.1875 C 1.78125 22.6875 1.683594 22.171875 1.628906 21.613281 C 1.589844 21.152344 1.589844 20.671875 1.570312 20.207031 L 1.570312 20.132812 L 1.628906 20.09375 C 3.101562 19.167969 5.054688 19.152344 6.585938 19.957031 L 6.757812 20.054688 Z M 9.402344 17.917969 C 9.152344 18.074219 8.886719 18.1875 8.675781 18.402344 C 8.0625 19.054688 7.429688 19.132812 6.625 18.765625 C 5.648438 18.324219 4.597656 18.265625 3.5625 18.496094 C 2.988281 18.632812 2.414062 18.6875 1.839844 18.785156 L 1.683594 18.804688 L 1.703125 18.652344 C 1.800781 17.882812 1.914062 17.09375 2.011719 16.324219 L 2.03125 16.207031 L 2.144531 16.226562 C 3.292969 16.382812 4.480469 16.652344 5.648438 16.652344 C 6.835938 16.632812 8.023438 16.304688 9.191406 16.132812 L 9.304688 16.113281 L 9.324219 16.226562 C 9.382812 16.765625 9.421875 17.285156 9.480469 17.824219 L 9.480469 17.902344 Z M 12.867188 15.152344 C 12.964844 13.882812 13.824219 12.515625 14.667969 11.59375 C 15.242188 10.976562 15.933594 10.398438 16.699219 10.035156 L 16.792969 9.996094 L 16.851562 10.09375 C 17.539062 11.4375 17.980469 12.863281 18.058594 14.382812 L 18.058594 14.476562 L 17.960938 14.496094 C 16.316406 14.746094 14.648438 15.015625 13.003906 15.265625 L 12.867188 15.285156 Z M 9.574219 13.554688 C 9.652344 14.324219 9.34375 14.84375 8.597656 15.035156 C 7.488281 15.324219 6.355469 15.59375 5.226562 15.667969 C 4.367188 15.726562 3.410156 15.4375 2.546875 15.304688 L 2.414062 15.285156 L 2.449219 15.167969 C 2.796875 13.785156 3.464844 12.863281 4.175781 11.6875 L 4.230469 11.59375 L 4.328125 11.632812 C 5.152344 12.035156 5.972656 12.535156 6.855469 12.863281 C 7.699219 13.167969 8.617188 13.265625 9.496094 13.457031 L 9.574219 13.476562 Z M 16.238281 8.957031 C 15.816406 9.324219 15.394531 9.667969 14.992188 10.035156 C 13.480469 11.417969 12.445312 13.074219 12.007812 15.113281 C 11.796875 16.113281 11.335938 16.667969 10.320312 16.882812 L 10.1875 16.902344 L 10.1875 16.765625 C 10.128906 14.976562 10.378906 13.265625 11.125 11.632812 C 11.816406 10.167969 12.773438 8.882812 13.980469 7.785156 C 14.226562 7.554688 14.707031 7.113281 15.070312 7.167969 C 15.472656 7.226562 15.796875 7.898438 15.96875 8.226562 C 16.066406 8.417969 16.160156 8.613281 16.257812 8.824219 L 16.296875 8.898438 Z M 33.777344 11.863281 C 34.890625 13.246094 35.484375 14.515625 35.617188 16.324219 L 35.636719 16.457031 L 35.5 16.4375 C 34.046875 16.265625 32.78125 16.84375 31.367188 16.035156 L 31.269531 15.976562 L 31.328125 15.882812 C 32.09375 14.554688 32.839844 13.207031 33.605469 11.882812 L 33.683594 11.726562 Z M 39.601562 16.285156 C 38.566406 16.285156 37.550781 16.304688 36.515625 16.304688 L 36.421875 16.304688 L 36.402344 16.207031 C 36.210938 14.363281 35.558594 12.804688 34.429688 11.363281 C 34.085938 10.917969 34.085938 10.496094 34.277344 9.996094 C 34.523438 9.382812 34.753906 8.765625 34.984375 8.148438 L 35.023438 8.074219 L 35.101562 8.074219 C 36.019531 8.132812 36.863281 9.09375 37.359375 9.785156 C 38.125 10.863281 38.738281 12.207031 39.140625 13.476562 C 39.425781 14.34375 39.617188 15.265625 39.714844 16.167969 L 39.734375 16.285156 Z M 41.820312 16.285156 C 41.476562 16.304688 41.113281 16.304688 40.769531 16.324219 L 40.671875 16.324219 L 40.652344 16.226562 C 39.90625 12.707031 38.738281 8.863281 35.464844 6.9375 L 35.386719 6.898438 L 35.40625 6.824219 C 35.539062 6.1875 35.675781 5.554688 35.808594 4.917969 L 35.828125 4.84375 L 35.902344 4.824219 C 36.996094 4.554688 37.820312 4.457031 38.605469 5.417969 C 39.234375 6.167969 39.792969 6.996094 40.25 7.863281 C 41.609375 10.4375 42.03125 13.265625 41.9375 16.152344 L 41.9375 16.265625 Z M 44.253906 4.785156 C 43.640625 6.363281 42.816406 7.554688 41.820312 8.882812 L 41.707031 9.035156 L 41.628906 8.863281 C 40.976562 7.515625 40.328125 6.167969 39.675781 4.84375 L 39.601562 4.6875 L 39.773438 4.6875 C 41.226562 4.667969 42.683594 4.648438 44.15625 4.628906 L 44.328125 4.628906 Z M 42.472656 11.84375 C 42.300781 11.265625 42.128906 10.6875 41.953125 10.132812 L 41.9375 10.074219 L 41.972656 10.035156 C 42.566406 9.207031 43.199219 8.417969 43.714844 7.554688 C 44.292969 6.632812 44.75 5.613281 45.25 4.648438 L 45.285156 4.59375 L 45.363281 4.59375 C 46.226562 4.59375 47.105469 4.574219 47.96875 4.574219 L 48.101562 4.574219 L 48.0625 4.707031 C 47.527344 7.015625 46.4375 8.648438 44.691406 10.226562 C 44.042969 10.824219 43.332031 11.363281 42.644531 11.917969 L 42.511719 12.015625 Z M 42.472656 11.84375 " fill-opacity="1" fill-rule="evenodd"/><path fill="#f7c659" d="M 23.957031 24.59375 C 23.496094 23.9375 23.035156 23.304688 22.558594 22.652344 L 22.5 22.574219 L 22.558594 22.515625 C 24.011719 20.59375 27.632812 18.496094 30.042969 18.4375 L 30.160156 18.4375 L 30.160156 18.554688 C 30.140625 18.824219 30.160156 19.113281 30.121094 19.382812 C 30.082031 19.765625 29.988281 20.152344 29.929688 20.535156 L 29.910156 20.613281 L 29.832031 20.632812 C 27.496094 21.152344 25.660156 22.863281 24.128906 24.613281 L 24.03125 24.726562 Z M 46.28125 66.671875 C 45 65.863281 44.484375 64.59375 44.40625 63.09375 C 44.175781 58.902344 45.039062 54.980469 46.855469 51.230469 C 47.066406 50.785156 47.375 50.382812 47.890625 50.34375 C 48.5625 50.285156 49.210938 50.152344 49.863281 50.035156 L 49.941406 50.015625 L 49.976562 50.074219 C 50.398438 50.730469 50.34375 51.285156 49.921875 51.921875 C 48.292969 54.363281 47.394531 57.132812 47.03125 60.035156 C 46.761719 62.210938 46.644531 64.382812 46.453125 66.574219 L 46.4375 66.769531 Z M 49 67.539062 C 48.007812 67.539062 47.679688 67.441406 47.527344 66.421875 C 47.394531 65.535156 47.414062 64.632812 47.355469 63.75 L 47.355469 63.632812 L 47.46875 63.613281 C 47.777344 63.574219 48.082031 63.535156 48.371094 63.519531 C 48.617188 63.5 48.847656 63.519531 49.097656 63.535156 L 49.210938 63.535156 L 49.210938 63.652344 C 49.175781 64.902344 49.15625 66.171875 49.117188 67.421875 L 49.117188 67.539062 Z M 52.199219 62.324219 C 52.121094 63.960938 52.027344 65.554688 51.625 67.152344 L 51.605469 67.230469 L 51.53125 67.25 C 51.011719 67.34375 50.515625 67.441406 49.996094 67.539062 L 49.863281 67.554688 L 49.863281 67.421875 C 49.882812 66.054688 49.882812 64.671875 49.902344 63.304688 L 49.902344 63.230469 L 49.960938 63.191406 C 50.648438 62.863281 51.339844 62.535156 52.027344 62.210938 L 52.199219 62.132812 Z M 40.960938 54.652344 C 40.613281 52.363281 40.539062 50.152344 40.613281 47.84375 L 40.613281 47.632812 L 40.785156 47.746094 C 41.570312 48.304688 42.355469 48.84375 43.140625 49.402344 L 43.21875 49.460938 L 43.179688 49.535156 C 42.511719 51.246094 41.839844 52.960938 41.167969 54.691406 L 41.015625 55.09375 Z M 61.160156 57.09375 C 60.855469 55.84375 60.53125 54.574219 60.242188 53.324219 C 60.183594 53.074219 60.164062 52.691406 60.28125 52.480469 C 60.816406 51.441406 61.410156 50.441406 61.984375 49.421875 L 62.0625 49.285156 L 62.15625 49.402344 C 62.808594 50.191406 62.960938 51.015625 62.882812 52 C 62.730469 53.824219 62.082031 55.441406 61.351562 57.113281 L 61.21875 57.421875 Z M 50.4375 52.824219 C 51.242188 54.113281 52.066406 55.421875 52.871094 56.710938 L 52.925781 56.785156 L 52.851562 56.84375 C 51.53125 58.074219 50.054688 58.902344 48.199219 58.882812 L 48.0625 58.882812 L 48.082031 58.75 C 48.371094 56.554688 49.175781 54.75 50.226562 52.824219 L 50.324219 52.652344 Z M 56.375 59.210938 C 56.449219 60.980469 56.222656 62.671875 55.835938 64.402344 C 55.800781 64.613281 55.644531 64.863281 55.453125 65 C 54.574219 65.613281 53.675781 66.191406 52.773438 66.785156 L 52.582031 66.921875 L 52.601562 66.691406 C 52.714844 65.132812 52.832031 63.574219 52.945312 62.019531 C 52.964844 61.84375 53.082031 61.613281 53.234375 61.519531 C 54.210938 60.710938 55.207031 59.941406 56.203125 59.152344 L 56.375 59.015625 Z M 47.566406 62.34375 C 47.660156 61.59375 47.757812 60.824219 47.871094 60.074219 L 47.890625 60 L 47.96875 59.980469 C 48.675781 59.863281 49.441406 59.863281 50.113281 59.574219 C 51.183594 59.09375 52.21875 58.5 53.15625 57.785156 C 53.75 57.324219 54.34375 56.902344 55.148438 56.980469 C 55.453125 57.015625 55.820312 56.882812 56.105469 56.84375 L 56.296875 56.824219 L 56.238281 57 C 55.722656 58.460938 53.941406 59.902344 52.679688 60.730469 C 51.414062 61.554688 49.230469 62.671875 47.699219 62.480469 L 47.585938 62.460938 Z M 57.007812 63.304688 C 57.007812 61.554688 56.910156 59.785156 57.0625 58.035156 C 57.140625 57.210938 57.597656 56.402344 58.019531 55.691406 C 58.382812 55.074219 58.921875 54.632812 59.398438 54.113281 L 59.515625 54 L 59.589844 54.152344 C 59.992188 54.941406 60.203125 55.824219 60.261719 56.710938 C 60.375 58.152344 60.089844 59.785156 59.246094 60.980469 C 58.632812 61.863281 58 62.691406 57.179688 63.402344 L 56.988281 63.554688 Z M 46.207031 50.363281 C 45.554688 52.324219 44.75 54.25 44.292969 56.265625 C 43.8125 58.324219 43.699219 60.460938 43.410156 62.554688 L 43.371094 62.785156 L 43.21875 62.632812 C 42.683594 62.09375 42.472656 61.171875 42.164062 60.480469 C 41.4375 58.785156 41.417969 57.054688 41.898438 55.304688 C 42.414062 53.421875 43.105469 51.613281 43.964844 49.863281 L 44.003906 49.785156 L 44.082031 49.804688 C 44.75 49.941406 45.441406 50.09375 46.109375 50.230469 L 46.226562 50.246094 Z M 27.269531 43.554688 C 26.867188 46.132812 26.464844 48.691406 26.0625 51.265625 L 26.003906 51.59375 L 25.851562 51.285156 C 25.734375 51.074219 25.5625 50.804688 25.488281 50.59375 C 25.085938 49.363281 24.722656 48.09375 24.261719 46.863281 C 24.050781 46.265625 24.03125 45.785156 24.394531 45.246094 C 25.085938 44.230469 25.890625 43.535156 27.152344 43.421875 L 27.304688 43.402344 Z M 27.804688 39.324219 C 27.671875 40.304688 27.535156 41.285156 27.421875 42.265625 L 27.402344 42.363281 L 27.304688 42.363281 C 25.679688 42.460938 24.511719 43.515625 23.707031 44.882812 L 23.648438 44.980469 L 23.554688 44.941406 C 23.476562 44.902344 23.304688 44.84375 23.265625 44.785156 C 22.15625 43.210938 22.195312 42.554688 23.304688 40.996094 C 24.414062 39.421875 25.851562 39.035156 27.6875 39.210938 L 27.804688 39.226562 Z M 28.359375 35.421875 C 28.246094 36.285156 28.128906 37.152344 28.015625 38.015625 L 27.996094 38.132812 L 27.878906 38.132812 C 24.835938 37.863281 22.902344 39.285156 21.828125 42.152344 L 21.792969 42.246094 L 21.695312 42.226562 C 21.582031 42.210938 21.445312 42.210938 21.371094 42.132812 C 21.007812 41.804688 20.355469 41.246094 20.277344 40.726562 C 20.242188 40.476562 20.316406 40.226562 20.414062 39.976562 C 20.566406 39.632812 20.777344 39.265625 20.96875 38.921875 C 21.695312 37.652344 22.558594 36.382812 23.78125 35.574219 C 25.257812 34.59375 26.730469 34.382812 28.300781 35.304688 L 28.359375 35.34375 Z M 21.445312 30.421875 C 22.097656 31.324219 22.195312 32.382812 22.367188 33.421875 C 22.578125 34.613281 22.5 35.554688 21.636719 36.476562 C 20.890625 37.285156 20.394531 38.460938 19.839844 39.402344 C 19.703125 39.632812 19.550781 39.882812 19.398438 40.113281 L 19.320312 40.226562 L 19.226562 40.152344 C 19.167969 40.113281 19.109375 40.054688 19.070312 40.015625 L 19.015625 39.976562 L 19.035156 39.902344 C 19.761719 36.746094 20.507812 33.613281 21.234375 30.457031 L 21.292969 30.207031 Z M 23.285156 34.496094 C 23.226562 34.152344 23.152344 33.804688 23.113281 33.457031 C 22.960938 31.976562 22.578125 30.554688 21.808594 29.285156 C 21.484375 28.726562 21.390625 28.171875 21.503906 27.515625 C 21.714844 26.324219 21.867188 25.152344 22.039062 23.957031 L 22.078125 23.746094 L 22.230469 23.882812 C 23.363281 24.921875 24.011719 26.554688 24.339844 28.035156 C 24.757812 29.941406 24.777344 32.015625 24.511719 33.957031 L 24.511719 34.015625 L 24.453125 34.035156 C 24.109375 34.207031 23.78125 34.382812 23.4375 34.554688 L 23.304688 34.632812 Z M 28.4375 34.113281 C 27.496094 33.921875 26.558594 33.707031 25.621094 33.515625 L 25.542969 33.496094 L 25.542969 33.421875 C 25.351562 31.765625 25.371094 29.804688 26.5 28.457031 C 27.171875 27.671875 28.109375 27.246094 29.105469 26.996094 L 29.257812 26.957031 L 29.238281 27.113281 C 29.011719 29.402344 28.800781 31.707031 28.570312 33.996094 L 28.550781 34.132812 Z M 29.816406 21.882812 C 29.660156 23.035156 29.507812 24.207031 29.355469 25.363281 L 29.355469 25.421875 L 29.316406 25.4375 C 27.996094 26.363281 26.675781 27.285156 25.351562 28.207031 L 25.21875 28.304688 L 25.179688 28.152344 C 25.085938 27.804688 25.007812 27.4375 24.914062 27.09375 C 24.796875 26.632812 24.53125 25.84375 24.683594 25.382812 C 24.816406 24.957031 25.316406 24.554688 25.640625 24.265625 C 26.464844 23.535156 27.363281 22.902344 28.28125 22.265625 C 28.664062 21.996094 29.238281 21.921875 29.679688 21.765625 L 29.851562 21.707031 Z M 29.816406 21.882812 " fill-opacity="1" fill-rule="evenodd"/><path fill="#84d1aa" d="M 60.644531 5.707031 C 62.308594 5.613281 63.535156 6.285156 64.683594 7.4375 L 64.722656 7.476562 L 64.703125 7.535156 C 64.628906 7.863281 64.550781 8.1875 64.472656 8.515625 L 64.4375 8.632812 L 64.320312 8.59375 C 62.769531 8.074219 61.601562 7.132812 60.546875 5.898438 L 60.394531 5.726562 Z M 15.164062 5.148438 C 16.679688 4.324219 17.445312 4.535156 18.480469 5.898438 C 20.507812 8.59375 21.675781 11.574219 21.964844 14.9375 C 21.984375 15.1875 21.964844 15.457031 21.964844 15.707031 L 21.964844 15.863281 L 21.808594 15.824219 C 21.023438 15.59375 20.203125 15.402344 19.4375 15.113281 C 19.1875 15.015625 18.9375 14.632812 18.898438 14.363281 C 18.480469 10.957031 17.042969 8.207031 15.128906 5.4375 C 15.089844 5.382812 15.089844 5.324219 15.070312 5.265625 L 15.050781 5.1875 Z M 25.871094 18.6875 C 24.816406 19.417969 23.78125 20.152344 22.730469 20.863281 L 22.539062 20.996094 L 22.558594 20.765625 C 22.632812 19.707031 22.730469 18.632812 22.785156 17.574219 C 22.84375 16.554688 23.074219 15.613281 23.859375 14.917969 C 24.28125 14.554688 24.585938 13.996094 24.933594 13.574219 L 25.027344 13.457031 L 25.125 13.574219 C 26.273438 15.09375 26.273438 16.824219 25.925781 18.632812 L 25.925781 18.667969 Z M 28.628906 17.554688 C 28.070312 17.746094 27.496094 17.9375 26.941406 18.132812 L 26.769531 18.1875 L 26.789062 18.015625 C 27 16.035156 26.65625 14.265625 25.488281 12.648438 L 25.449219 12.59375 L 25.488281 12.535156 C 25.734375 12.015625 25.984375 11.515625 26.234375 10.996094 L 26.292969 10.863281 L 26.40625 10.957031 C 28.070312 12.398438 29.03125 15.304688 28.703125 17.457031 L 28.683594 17.535156 Z M 29.625 15.632812 C 29.238281 14.476562 28.855469 13.324219 28.472656 12.167969 L 28.457031 12.113281 L 28.511719 12.054688 C 30.503906 10.035156 31.558594 7.363281 32.152344 4.628906 L 32.171875 4.515625 L 32.265625 4.515625 C 33.089844 4.574219 33.914062 4.613281 34.734375 4.667969 L 34.851562 4.667969 L 34.851562 4.785156 C 34.832031 5.59375 34.640625 6.457031 34.410156 7.246094 C 34.140625 8.207031 33.796875 9.167969 33.414062 10.09375 C 32.839844 11.476562 31.175781 15.015625 29.796875 15.667969 L 29.679688 15.726562 Z M 27.878906 11.246094 C 27.535156 10.824219 27.210938 10.398438 26.867188 9.976562 L 26.828125 9.9375 L 26.847656 9.882812 C 27.324219 8.09375 27.804688 6.324219 28.300781 4.535156 L 28.320312 4.457031 L 28.417969 4.457031 C 29.335938 4.476562 30.234375 4.496094 31.15625 4.535156 L 31.289062 4.535156 L 31.269531 4.667969 C 30.792969 7.363281 29.988281 9.324219 28.070312 11.265625 L 27.976562 11.363281 Z M 22.75 14.515625 C 22.613281 13.726562 22.480469 12.917969 22.347656 12.132812 L 22.347656 12.074219 L 22.386719 12.035156 C 23.1875 11.074219 23.648438 9.863281 23.9375 8.667969 C 24.261719 7.324219 24.492188 5.9375 24.757812 4.574219 L 24.777344 4.476562 L 24.875 4.476562 C 25.410156 4.476562 25.945312 4.457031 26.5 4.457031 C 26.730469 4.457031 26.921875 4.535156 27.132812 4.59375 L 27.230469 4.613281 L 27.230469 4.707031 C 27.25 7.304688 24.894531 12.824219 22.960938 14.574219 L 22.804688 14.707031 Z M 18.917969 4.496094 C 20.507812 4.476562 22.097656 4.4375 23.6875 4.417969 L 23.800781 4.417969 L 23.800781 4.535156 C 23.878906 6.785156 23.265625 8.648438 22.328125 10.632812 L 22.230469 10.824219 L 22.117188 10.632812 C 21.007812 8.648438 19.914062 6.648438 18.804688 4.667969 L 18.707031 4.496094 C 18.726562 4.496094 18.917969 4.496094 18.917969 4.496094 Z M 51.777344 8.535156 C 52.984375 10.785156 54.496094 12.785156 56.222656 14.667969 C 57.792969 16.382812 59.6875 17.554688 61.964844 18.015625 L 62.0625 18.035156 L 62.042969 18.132812 C 61.964844 18.726562 61.851562 19.6875 61.332031 20.09375 C 60.96875 20.382812 60.375 20.382812 59.917969 20.402344 C 58.078125 20.457031 56.621094 19.554688 55.453125 18.1875 C 54.304688 16.863281 53.234375 15.457031 52.179688 14.054688 C 51.816406 13.574219 51.546875 12.976562 51.300781 12.417969 C 50.398438 10.4375 50.457031 10.382812 51.566406 8.515625 L 51.664062 8.34375 Z M 63.421875 13.074219 C 63.132812 14.324219 62.847656 15.59375 62.558594 16.84375 L 62.539062 16.957031 L 62.425781 16.9375 C 61.753906 16.804688 61.007812 16.785156 60.394531 16.476562 C 59.285156 15.882812 58.15625 15.304688 57.273438 14.382812 C 55.78125 12.824219 54.496094 11.035156 53.15625 9.34375 C 52.046875 7.9375 52.046875 6.476562 52.945312 4.957031 L 52.984375 4.898438 L 53.0625 4.898438 C 53.464844 4.9375 53.867188 4.898438 54.269531 5.015625 C 54.574219 5.113281 54.878906 5.34375 55.035156 5.613281 C 56.929688 8.84375 59.515625 11.363281 63.058594 12.667969 C 63.152344 12.707031 63.324219 12.902344 63.402344 12.957031 L 63.460938 12.996094 Z M 63.6875 11.554688 C 62.195312 11.632812 59.972656 10.015625 58.902344 9.09375 C 57.808594 8.148438 56.375 6.632812 55.933594 5.246094 L 55.875 5.09375 L 56.046875 5.113281 C 56.929688 5.1875 57.828125 5.246094 58.710938 5.34375 C 58.960938 5.363281 59.226562 5.496094 59.359375 5.707031 C 60.53125 7.476562 62.0625 8.632812 63.917969 9.59375 C 63.976562 9.632812 64.089844 9.785156 64.148438 9.84375 L 64.1875 9.882812 L 64.167969 9.9375 C 64.035156 10.457031 63.898438 10.976562 63.765625 11.496094 L 63.746094 11.574219 Z M 63.6875 11.554688 " fill-opacity="1" fill-rule="evenodd"/><g clip-path="url(#ac93a5f18c)"><path fill="#000000" d="M 10.207031 6.246094 C 9.230469 6.667969 8.40625 7.035156 7.621094 7.882812 C 9.171875 8.34375 9.574219 8.074219 10.207031 6.246094 Z M 50.761719 34.476562 C 50.015625 34.976562 49.441406 35.402344 49.421875 36.324219 C 49.402344 36.941406 49.804688 37.363281 50.363281 37.574219 C 50.476562 36.59375 50.609375 35.671875 50.761719 34.476562 Z M 64.609375 7.515625 C 63.476562 6.382812 62.292969 5.726562 60.644531 5.824219 C 61.8125 7.1875 62.960938 8.015625 64.378906 8.496094 C 64.472656 8.074219 64.550781 7.785156 64.609375 7.515625 Z M 12.5625 66.113281 C 11.640625 66.941406 10.820312 67.671875 9.804688 68.554688 C 10.628906 69.074219 11.277344 69.480469 12.042969 69.960938 C 12.234375 68.613281 12.390625 67.480469 12.5625 66.113281 Z M 53.234375 22.265625 C 53.367188 22.132812 53.445312 22.09375 53.464844 22.015625 C 53.5 21.882812 53.519531 21.746094 53.519531 21.613281 C 53.558594 20.074219 53.710938 19.902344 54.9375 20.015625 C 55.109375 20.035156 55.300781 19.957031 55.628906 19.902344 C 55.054688 19.285156 54.613281 18.804688 54.171875 18.34375 C 53.808594 17.957031 53.5 18.09375 53.234375 18.515625 C 52.542969 19.554688 52.523438 20.976562 53.234375 22.265625 Z M 49 67.421875 C 49.019531 66.191406 49.058594 64.960938 49.097656 63.652344 C 48.808594 63.652344 48.582031 63.632812 48.371094 63.632812 C 48.121094 63.652344 47.871094 63.691406 47.46875 63.730469 C 47.527344 64.671875 47.507812 65.554688 47.640625 66.382812 C 47.757812 67.304688 47.988281 67.421875 49 67.421875 Z M 50.015625 63.304688 C 49.996094 64.671875 49.996094 66 49.976562 67.421875 C 50.570312 67.304688 51.03125 67.210938 51.511719 67.132812 C 51.914062 65.574219 52.007812 64.074219 52.085938 62.324219 C 51.300781 62.691406 50.707031 62.980469 50.015625 63.304688 Z M 40.730469 47.84375 C 40.652344 50.171875 40.710938 52.285156 41.074219 54.632812 C 41.800781 52.765625 42.433594 51.152344 43.085938 49.480469 C 42.300781 48.921875 41.589844 48.441406 40.730469 47.84375 Z M 6.550781 20.074219 C 4.996094 19.246094 3.082031 19.34375 1.703125 20.207031 C 1.761719 21.113281 1.664062 22.074219 2.105469 23.152344 C 3.5625 22.132812 4.960938 21.171875 6.550781 20.074219 Z M 44.15625 4.726562 C 42.492188 4.746094 41.035156 4.765625 39.773438 4.785156 C 40.402344 6.09375 41.035156 7.382812 41.726562 8.804688 C 42.664062 7.574219 43.507812 6.417969 44.15625 4.726562 Z M 35.484375 16.324219 C 35.328125 14.382812 34.640625 13.132812 33.683594 11.917969 C 32.917969 13.246094 32.207031 14.515625 31.402344 15.917969 C 32.761719 16.707031 34.085938 16.152344 35.484375 16.324219 Z M 61.277344 57.074219 C 62.003906 55.363281 62.65625 53.804688 62.789062 52 C 62.867188 51.09375 62.75 50.265625 62.082031 49.480469 C 61.46875 50.574219 60.894531 51.535156 60.375 52.535156 C 60.28125 52.730469 60.300781 53.074219 60.335938 53.304688 C 60.625 54.5 60.929688 55.671875 61.277344 57.074219 Z M 28.589844 17.4375 C 28.914062 15.246094 27.917969 12.398438 26.328125 11.035156 C 26.082031 11.535156 25.851562 12.015625 25.582031 12.574219 C 26.65625 14.09375 27.132812 15.84375 26.902344 18.035156 C 27.515625 17.804688 28.035156 17.632812 28.589844 17.4375 Z M 19.148438 39.921875 C 19.207031 39.960938 19.265625 40.015625 19.300781 40.054688 C 19.457031 39.824219 19.589844 39.59375 19.742188 39.34375 C 20.335938 38.34375 20.832031 37.171875 21.5625 36.402344 C 22.386719 35.515625 22.460938 34.59375 22.25 33.441406 C 22.078125 32.421875 21.964844 31.363281 21.351562 30.476562 C 20.605469 33.691406 19.875 36.804688 19.148438 39.921875 Z M 44.386719 18.804688 C 45.996094 18.957031 47.71875 18.59375 48.636719 17.917969 C 48.101562 16.84375 47.585938 15.765625 47.046875 14.6875 C 46.207031 15.285156 45.441406 15.824219 44.710938 16.34375 C 44.617188 17.1875 44.5 17.957031 44.386719 18.804688 Z M 27.152344 43.535156 C 25.910156 43.652344 25.140625 44.34375 24.472656 45.324219 C 24.148438 45.824219 24.128906 46.246094 24.355469 46.84375 C 24.796875 48.054688 25.160156 49.324219 25.582031 50.574219 C 25.640625 50.746094 25.753906 50.902344 25.945312 51.265625 C 26.367188 48.574219 26.730469 46.191406 27.152344 43.535156 Z M 49.921875 11.515625 C 49.191406 12.382812 48.542969 13.152344 47.871094 13.9375 C 48.390625 15.34375 48.945312 16.554688 49.84375 17.707031 C 50.496094 16.824219 51.089844 16.015625 51.683594 15.1875 C 51.128906 14.015625 50.554688 12.84375 49.921875 11.515625 Z M 49.519531 19.304688 C 47.699219 19.632812 45.976562 19.957031 44.15625 20.285156 C 44.042969 21.171875 43.90625 22.1875 43.753906 23.304688 C 45.59375 22.976562 47.203125 22.265625 48.714844 21.226562 C 49.347656 20.785156 49.632812 20.207031 49.519531 19.304688 Z M 48.199219 58.785156 C 50.054688 58.804688 51.492188 57.980469 52.773438 56.785156 C 51.929688 55.460938 51.164062 54.210938 50.34375 52.902344 C 49.367188 54.632812 48.503906 56.460938 48.199219 58.785156 Z M 52.945312 16.976562 C 52.316406 16.1875 52.257812 16.1875 51.777344 16.746094 C 50.285156 18.535156 49.863281 22.304688 50.9375 24.535156 C 51.28125 25.265625 51.703125 25.976562 52.507812 26.152344 C 52.679688 25.363281 52.851562 24.652344 53.003906 23.996094 C 51.566406 21.902344 51.089844 20.207031 52.945312 16.976562 Z M 17.0625 68.171875 C 18.59375 67.210938 19.722656 65.921875 20.929688 64.730469 C 21.925781 63.730469 22.230469 62.5 22.15625 61 C 19.972656 61.382812 17.597656 64.652344 17.0625 68.171875 Z M 1.820312 18.667969 C 2.46875 18.554688 3.007812 18.496094 3.542969 18.382812 C 4.613281 18.132812 5.6875 18.207031 6.683594 18.652344 C 7.429688 18.996094 8.003906 18.9375 8.597656 18.324219 C 8.808594 18.09375 9.113281 17.976562 9.34375 17.824219 C 9.289062 17.152344 9.230469 16.652344 9.191406 16.226562 C 7.945312 16.417969 6.796875 16.726562 5.648438 16.746094 C 4.5 16.765625 3.351562 16.476562 2.125 16.324219 C 2.011719 17.132812 1.933594 17.804688 1.820312 18.667969 Z M 25.792969 18.59375 C 26.136719 16.746094 26.101562 15.09375 25.007812 13.632812 C 24.644531 14.113281 24.320312 14.652344 23.917969 14.996094 C 23.1875 15.632812 22.941406 16.515625 22.882812 17.574219 C 22.824219 18.59375 22.730469 19.613281 22.652344 20.765625 C 23.800781 19.976562 24.796875 19.304688 25.792969 18.59375 Z M 17.941406 14.402344 C 17.867188 12.882812 17.425781 11.457031 16.753906 10.148438 C 14.839844 11.074219 13.117188 13.417969 12.984375 15.167969 C 14.570312 14.917969 16.179688 14.667969 17.941406 14.402344 Z M 56.257812 59.210938 C 55.1875 60.054688 54.230469 60.804688 53.292969 61.574219 C 53.175781 61.671875 53.0625 61.84375 53.042969 62 C 52.925781 63.441406 52.8125 64.882812 52.699219 66.671875 C 53.730469 66 54.574219 65.460938 55.378906 64.882812 C 55.53125 64.785156 55.664062 64.554688 55.703125 64.363281 C 56.066406 62.730469 56.335938 61.074219 56.257812 59.210938 Z M 27.976562 11.167969 C 29.679688 9.417969 30.601562 7.613281 31.136719 4.628906 C 30.179688 4.613281 29.257812 4.59375 28.398438 4.554688 C 27.898438 6.417969 27.421875 8.132812 26.941406 9.898438 C 27.269531 10.285156 27.59375 10.707031 27.976562 11.167969 Z M 9.460938 13.574219 C 8.519531 13.382812 7.640625 13.285156 6.796875 12.976562 C 5.9375 12.667969 5.113281 12.167969 4.269531 11.746094 C 3.582031 12.863281 2.910156 13.785156 2.546875 15.207031 C 3.542969 15.363281 4.367188 15.632812 5.1875 15.574219 C 6.320312 15.496094 7.429688 15.226562 8.539062 14.9375 C 9.058594 14.804688 9.554688 14.476562 9.460938 13.574219 Z M 18.917969 4.613281 C 20.085938 6.726562 21.140625 8.613281 22.230469 10.574219 C 23.09375 8.746094 23.78125 6.882812 23.6875 4.515625 C 22.058594 4.554688 20.546875 4.574219 18.917969 4.613281 Z M 23.609375 44.824219 C 24.53125 43.246094 25.773438 42.34375 27.285156 42.246094 C 27.421875 41.226562 27.535156 40.324219 27.671875 39.304688 C 25.984375 39.132812 24.53125 39.421875 23.378906 41.035156 C 22.289062 42.574219 22.269531 43.171875 23.34375 44.691406 C 23.398438 44.730469 23.4375 44.746094 23.609375 44.824219 Z M 29.699219 21.863281 C 29.125 22.054688 28.683594 22.113281 28.320312 22.363281 C 27.421875 22.976562 26.519531 23.59375 25.679688 24.34375 C 24.53125 25.363281 24.566406 25.402344 24.988281 27.054688 C 25.085938 27.4375 25.179688 27.84375 25.257812 28.113281 C 26.578125 27.1875 27.878906 26.285156 29.222656 25.34375 C 29.375 24.34375 29.527344 23.226562 29.699219 21.863281 Z M 24.03125 24.535156 C 25.753906 22.59375 27.554688 21.015625 29.816406 20.515625 C 29.890625 20.074219 29.96875 19.726562 30.007812 19.363281 C 30.042969 19.09375 30.023438 18.824219 30.042969 18.554688 C 27.804688 18.613281 24.183594 20.59375 22.652344 22.59375 C 23.074219 23.1875 23.515625 23.804688 24.03125 24.535156 Z M 47.660156 62.34375 C 50.132812 62.652344 55.207031 59.402344 56.085938 56.941406 C 55.742188 57 55.417969 57.113281 55.089844 57.074219 C 54.363281 57 53.808594 57.382812 53.195312 57.84375 C 52.238281 58.574219 51.183594 59.171875 50.132812 59.652344 C 49.460938 59.960938 48.695312 59.941406 47.96875 60.054688 C 47.871094 60.84375 47.777344 61.59375 47.660156 62.34375 Z M 42.585938 11.804688 C 44.867188 9.976562 47.125 8.34375 47.96875 4.648438 C 46.933594 4.648438 46.070312 4.667969 45.363281 4.667969 C 44.789062 5.765625 44.347656 6.707031 43.8125 7.59375 C 43.277344 8.457031 42.664062 9.246094 42.070312 10.09375 C 42.242188 10.632812 42.375 11.132812 42.585938 11.804688 Z M 28.457031 33.996094 C 28.683594 31.613281 28.894531 29.382812 29.125 27.113281 C 26.273438 27.804688 25.238281 29.765625 25.660156 33.402344 C 26.519531 33.574219 27.382812 33.765625 28.457031 33.996094 Z M 57.121094 63.304688 C 57.945312 62.59375 58.558594 61.769531 59.167969 60.902344 C 60.375 59.171875 60.53125 56.265625 59.496094 54.191406 C 59.035156 54.710938 58.5 55.152344 58.136719 55.75 C 57.734375 56.441406 57.273438 57.25 57.199219 58.035156 C 57.023438 59.730469 57.121094 61.441406 57.121094 63.304688 Z M 14.152344 51.5 C 13.941406 51.75 13.789062 51.863281 13.691406 52.035156 C 12.675781 53.613281 11.640625 55.191406 10.664062 56.804688 C 10.109375 57.730469 9.574219 58.671875 9.113281 59.671875 C 8.710938 60.574219 8.347656 61.519531 8.273438 62.59375 C 8.40625 62.59375 8.503906 62.632812 8.558594 62.59375 C 8.769531 62.421875 9.019531 62.269531 9.171875 62.035156 C 10.472656 60.230469 11.796875 58.421875 13.039062 56.554688 C 13.421875 55.980469 13.691406 55.210938 13.882812 54.460938 C 14.132812 53.574219 14.363281 52.632812 14.152344 51.5 Z M 16.160156 8.863281 C 16.027344 8.59375 15.96875 8.4375 15.875 8.285156 C 15.203125 7.054688 15.03125 6.996094 14.035156 7.882812 C 12.886719 8.898438 11.910156 10.167969 11.203125 11.707031 C 10.492188 13.246094 10.207031 14.9375 10.28125 16.785156 C 11.144531 16.59375 11.640625 16.152344 11.871094 15.09375 C 12.351562 12.917969 13.460938 11.265625 14.898438 9.9375 C 15.300781 9.59375 15.683594 9.265625 16.160156 8.863281 Z M 24.414062 33.941406 C 24.988281 29.785156 24.109375 25.765625 22.15625 23.957031 C 21.964844 25.1875 21.808594 26.363281 21.617188 27.515625 C 21.503906 28.152344 21.601562 28.671875 21.90625 29.207031 C 22.652344 30.457031 23.074219 31.882812 23.226562 33.421875 C 23.265625 33.726562 23.324219 34.054688 23.398438 34.441406 C 23.78125 34.265625 24.109375 34.09375 24.414062 33.941406 Z M 24.855469 4.59375 C 24.546875 6.09375 24.339844 7.417969 24.03125 8.6875 C 23.726562 9.976562 23.226562 11.167969 22.460938 12.09375 C 22.59375 12.902344 22.730469 13.667969 22.863281 14.476562 C 24.757812 12.765625 27.113281 7.285156 27.09375 4.6875 C 26.902344 4.648438 26.695312 4.574219 26.484375 4.574219 C 25.925781 4.574219 25.390625 4.59375 24.855469 4.59375 Z M 56.046875 5.207031 C 56.851562 7.746094 61.523438 11.554688 63.6875 11.4375 C 63.824219 10.917969 63.957031 10.363281 64.089844 9.882812 C 63.957031 9.726562 63.917969 9.6875 63.898438 9.667969 C 62.136719 8.785156 60.53125 7.648438 59.285156 5.746094 C 59.167969 5.554688 58.921875 5.457031 58.710938 5.417969 C 57.828125 5.34375 56.96875 5.285156 56.046875 5.207031 Z M 4.980469 10.726562 C 6.375 11.554688 7.621094 12.34375 9.078125 12.207031 C 9.613281 12.148438 10.015625 11.957031 10.300781 11.285156 C 10.664062 10.4375 11.144531 9.648438 11.679688 8.976562 C 12.503906 7.9375 13.421875 7.035156 14.304688 6.074219 C 13.632812 5.074219 13.539062 5.074219 11.488281 5.84375 C 11.144531 7.09375 10.683594 8.324219 9.6875 8.996094 C 8.65625 9.707031 7.640625 9.167969 6.605469 8.707031 C 6.089844 9.363281 5.574219 9.996094 4.980469 10.726562 Z M 39.582031 16.1875 C 39.214844 12.648438 36.957031 8.324219 35.082031 8.1875 C 34.851562 8.785156 34.621094 9.417969 34.371094 10.035156 C 34.179688 10.496094 34.199219 10.882812 34.507812 11.285156 C 35.558594 12.632812 36.304688 14.207031 36.496094 16.207031 C 37.570312 16.1875 38.546875 16.1875 39.582031 16.1875 Z M 41.152344 42.460938 C 41.074219 42.460938 40.976562 42.476562 40.902344 42.476562 C 40.84375 43.34375 40.804688 44.210938 40.730469 45.054688 C 40.652344 45.960938 40.960938 46.515625 41.535156 46.996094 C 43.332031 48.535156 45.34375 49.09375 47.46875 49.152344 C 48.253906 49.171875 49.039062 48.941406 49.902344 48.824219 C 49.863281 48.210938 49.84375 47.765625 49.824219 47.246094 C 48.101562 47.324219 46.511719 47.074219 45.019531 46.230469 C 43.488281 45.363281 42.089844 44.285156 41.152344 42.460938 Z M 44.082031 49.882812 C 43.21875 51.632812 42.53125 53.421875 42.011719 55.304688 C 41.535156 57.054688 41.570312 58.75 42.28125 60.402344 C 42.605469 61.152344 42.796875 62.019531 43.316406 62.519531 C 43.601562 60.382812 43.734375 58.25 44.195312 56.210938 C 44.65625 54.191406 45.441406 52.304688 46.109375 50.304688 C 45.460938 50.191406 44.808594 50.035156 44.082031 49.882812 Z M 28.246094 35.402344 C 26.675781 34.457031 25.238281 34.726562 23.839844 35.652344 C 22.671875 36.421875 21.828125 37.632812 21.0625 38.960938 C 20.085938 40.671875 20.105469 40.746094 21.445312 42.015625 C 21.503906 42.054688 21.582031 42.054688 21.734375 42.074219 C 22.960938 38.824219 25.140625 37.746094 27.898438 37.996094 C 28.015625 37.113281 28.128906 36.304688 28.246094 35.402344 Z M 41.800781 16.167969 C 41.9375 11.84375 40.882812 8.363281 38.507812 5.496094 C 37.703125 4.515625 36.824219 4.707031 35.921875 4.9375 C 35.769531 5.613281 35.65625 6.1875 35.519531 6.84375 C 38.679688 8.707031 39.925781 12.265625 40.769531 16.207031 C 41.113281 16.207031 41.398438 16.1875 41.800781 16.167969 Z M 51.796875 29.34375 C 51.722656 29.285156 51.644531 29.246094 51.566406 29.191406 C 50.4375 30.441406 49.230469 31.59375 48.214844 32.976562 C 47.507812 33.941406 46.953125 35.132812 46.472656 36.324219 C 45.804688 38.015625 46.1875 39.496094 47.394531 40.574219 C 48.121094 41.226562 48.925781 41.613281 49.902344 41.515625 C 49.960938 41.074219 50.015625 40.671875 50.054688 40.265625 C 50.09375 39.863281 50.113281 39.460938 50.113281 39.171875 C 49.632812 38.632812 49.230469 38.246094 48.886719 37.765625 C 48.160156 36.726562 48.140625 35.804688 48.90625 34.804688 C 49.382812 34.191406 50.015625 33.765625 50.554688 33.226562 C 50.800781 32.996094 51.109375 32.726562 51.183594 32.402344 C 51.472656 31.402344 51.625 30.363281 51.796875 29.34375 Z M 49.382812 22.496094 C 47.375 23.285156 45.441406 24.035156 43.390625 24.824219 C 43.007812 27.246094 42.394531 29.765625 42.242188 32.441406 C 44.40625 29.265625 46.894531 26.652344 49.769531 24.554688 C 49.613281 23.804688 49.5 23.09375 49.382812 22.496094 Z M 17.15625 44.980469 C 16.621094 45.652344 16.871094 46.230469 17.117188 46.824219 C 17.980469 48.863281 18.285156 51.035156 17.921875 53.304688 C 17.769531 54.210938 17.539062 55.09375 17.367188 56 C 17.273438 56.5 17.042969 56.980469 17.15625 57.515625 C 18.707031 56.5 20.203125 55.535156 21.675781 54.554688 C 21.21875 51.015625 19.265625 46.84375 17.15625 44.980469 Z M 21.867188 15.707031 C 21.867188 15.304688 21.886719 15.132812 21.867188 14.957031 C 21.5625 11.4375 20.296875 8.496094 18.402344 5.976562 C 17.386719 4.628906 16.679688 4.476562 15.222656 5.246094 C 15.222656 5.285156 15.222656 5.34375 15.261719 5.382812 C 17.082031 7.996094 18.613281 10.804688 19.054688 14.363281 C 19.089844 14.613281 19.320312 14.9375 19.511719 15.015625 C 20.242188 15.285156 20.988281 15.457031 21.867188 15.707031 Z M 32.246094 4.628906 C 31.578125 7.726562 30.425781 10.265625 28.570312 12.113281 C 28.992188 13.382812 29.355469 14.476562 29.71875 15.574219 C 31.5 14.746094 34.601562 8.035156 34.699219 4.785156 C 33.933594 4.746094 33.148438 4.6875 32.246094 4.628906 Z M 51.738281 4.917969 C 51.070312 4.863281 50.476562 4.863281 49.902344 4.746094 C 49.269531 4.628906 48.945312 4.9375 48.753906 5.6875 C 48.351562 7.226562 47.640625 8.515625 46.664062 9.554688 C 45.898438 10.363281 45.152344 11.265625 44.292969 11.785156 C 43.046875 12.554688 42.546875 13.613281 42.855469 15.285156 C 42.875 15.363281 42.929688 15.417969 42.96875 15.496094 C 46.089844 15.226562 50.761719 9.648438 51.738281 4.917969 Z M 46.359375 66.574219 C 46.550781 64.363281 46.683594 62.191406 46.933594 60.035156 C 47.296875 56.980469 48.253906 54.230469 49.84375 51.863281 C 50.246094 51.265625 50.285156 50.746094 49.902344 50.152344 C 49.230469 50.246094 48.582031 50.382812 47.929688 50.460938 C 47.46875 50.496094 47.203125 50.824219 46.972656 51.285156 C 45.230469 54.921875 44.292969 58.804688 44.539062 63.09375 C 44.617188 64.75 45.230469 65.863281 46.359375 66.574219 Z M 51.683594 8.59375 C 50.554688 10.476562 50.554688 10.496094 51.414062 12.382812 C 51.664062 12.9375 51.929688 13.535156 52.277344 13.996094 C 53.347656 15.402344 54.421875 16.804688 55.550781 18.132812 C 56.777344 19.554688 58.191406 20.363281 59.9375 20.304688 C 61.371094 20.265625 61.699219 20.054688 61.945312 18.132812 C 59.761719 17.667969 57.808594 16.574219 56.144531 14.746094 C 54.476562 12.917969 52.925781 10.9375 51.683594 8.59375 Z M 15.894531 69 C 16.753906 64.285156 18.535156 60.804688 22.328125 59.34375 C 22.210938 58.25 22.097656 57.210938 21.984375 56.171875 C 16.753906 57.613281 13.25 63.75 13.210938 69.84375 C 14.1875 69.882812 15.070312 69.460938 15.894531 69 Z M 8.0625 64.554688 C 8.101562 64.863281 8.117188 65.324219 8.234375 65.75 C 8.65625 67.460938 9.132812 67.710938 10.28125 66.691406 C 12.140625 65.054688 13.671875 63.035156 14.800781 60.519531 C 15.777344 58.304688 16.429688 55.941406 16.890625 53.5 C 17.273438 51.421875 17.136719 49.363281 16.085938 47.34375 C 15.683594 48.171875 15.339844 48.863281 15.03125 49.574219 C 14.9375 49.785156 14.9375 50.132812 14.972656 50.382812 C 15.511719 53.25 14.820312 55.75 13.460938 57.960938 C 12.464844 59.574219 11.355469 61.054688 10.226562 62.519531 C 9.671875 63.230469 8.921875 63.769531 8.0625 64.554688 Z M 17.578125 43.710938 C 21.753906 48.113281 23.246094 54.035156 23.363281 60.960938 C 23.589844 60.519531 23.6875 60.382812 23.746094 60.230469 C 23.917969 59.769531 24.128906 59.324219 24.261719 58.84375 C 25.5625 54.324219 25.5625 55.460938 24.566406 50.804688 C 23.859375 47.554688 22.519531 44.746094 20.449219 42.554688 C 19.894531 41.976562 19.28125 41.515625 18.59375 40.902344 C 18.230469 41.941406 17.921875 42.765625 17.578125 43.710938 Z M 53.023438 5.015625 C 52.066406 6.648438 52.238281 8.015625 53.234375 9.265625 C 54.59375 10.957031 55.875 12.765625 57.351562 14.285156 C 58.230469 15.207031 59.378906 15.785156 60.453125 16.363281 C 61.027344 16.667969 61.714844 16.667969 62.445312 16.824219 C 62.769531 15.417969 63.039062 14.207031 63.304688 13.054688 C 63.113281 12.882812 63.058594 12.804688 63 12.785156 C 59.667969 11.574219 56.988281 9.207031 54.917969 5.6875 C 54.765625 5.417969 54.476562 5.226562 54.210938 5.148438 C 53.828125 5.015625 53.40625 5.054688 53.023438 5.015625 Z M 50.207031 25.671875 C 49.824219 25.9375 49.441406 26.152344 49.117188 26.421875 C 47.03125 28.191406 45.078125 30.152344 43.542969 32.691406 C 42.816406 33.902344 42.203125 35.246094 41.746094 36.652344 C 40.976562 38.902344 41.628906 41.804688 43.125 43.34375 C 44.328125 44.613281 45.746094 45.402344 47.257812 45.804688 C 48.0625 46.035156 48.90625 46.132812 49.769531 45.804688 C 49.804688 45.382812 49.84375 45.015625 49.84375 44.652344 C 49.863281 44.09375 49.84375 43.535156 49.863281 42.941406 C 49.269531 42.765625 48.734375 42.632812 48.214844 42.441406 C 45.535156 41.441406 44.5 38.535156 45.6875 35.34375 C 46.339844 33.574219 47.296875 32.132812 48.464844 30.902344 C 49.578125 29.746094 50.667969 28.613281 51.816406 27.421875 C 51.300781 26.882812 50.800781 26.34375 50.207031 25.671875 Z M 55.070312 22.304688 C 54.804688 23.515625 54.476562 24.707031 54.25 25.921875 C 53.445312 30.421875 52.601562 34.902344 51.929688 39.441406 C 51.453125 42.652344 51.394531 45.921875 51.703125 49.191406 C 51.796875 50.210938 51.949219 51.230469 52.21875 52.191406 C 52.945312 54.84375 54.824219 55.691406 56.71875 54.265625 C 57.179688 53.921875 57.597656 53.421875 57.964844 52.921875 C 58.382812 52.34375 58.730469 51.671875 59.09375 51.035156 C 59.570312 50.210938 60.011719 49.34375 60.53125 48.574219 C 61.773438 46.691406 62.902344 46.785156 63.917969 48.882812 C 64.742188 50.574219 64.664062 52.402344 64.1875 54.152344 C 62.273438 60.960938 58.730469 65.84375 53.40625 68.613281 C 51.644531 69.519531 49.863281 70.074219 47.949219 69.671875 C 46.570312 69.382812 45.382812 68.632812 44.328125 67.460938 C 42.109375 64.941406 40.59375 61.882812 39.847656 58.191406 C 39.042969 54.171875 38.871094 50.09375 39.007812 45.980469 C 39.234375 38.765625 40.347656 31.746094 41.6875 24.765625 C 42.070312 22.785156 42.414062 20.785156 42.816406 18.59375 C 39.082031 18.285156 35.484375 18.496094 31.785156 18.382812 C 31.671875 19.1875 31.578125 19.902344 31.5 20.613281 C 30.808594 27.074219 30.234375 33.554688 29.433594 39.996094 C 28.800781 45.015625 27.9375 49.980469 27.058594 54.941406 C 26.710938 56.882812 26.136719 58.765625 25.523438 60.613281 C 24.511719 63.730469 22.613281 65.960938 20.566406 67.941406 C 19.457031 69 18.25 69.941406 17.023438 70.769531 C 15.109375 72.039062 13.058594 72.691406 10.972656 71.710938 C 7.8125 70.230469 5.378906 66.382812 6.703125 61.421875 C 7.429688 58.691406 8.636719 56.421875 10.109375 54.304688 C 12.523438 50.824219 14.4375 46.921875 16.085938 42.785156 C 17.980469 37.996094 19.28125 32.996094 19.933594 27.6875 C 20.277344 24.921875 20.679688 22.171875 21.042969 19.417969 C 21.121094 18.882812 21.179688 18.34375 21.273438 17.726562 C 18.746094 16.726562 16.332031 16.1875 13.921875 17.402344 C 12.425781 18.152344 11.011719 19.152344 9.613281 20.167969 C 7.832031 21.457031 6.089844 22.882812 4.328125 24.1875 C 3.753906 24.613281 3.140625 24.9375 2.527344 25.207031 C 1.457031 25.652344 0.6875 25.1875 0.402344 23.804688 C 0.113281 22.515625 0 21.246094 0 19.996094 C 0 16.515625 0.9375 13.476562 2.679688 10.746094 C 5.398438 6.457031 8.789062 3.726562 13.195312 3.167969 C 14.476562 2.996094 15.742188 2.6875 17.023438 2.648438 C 20.605469 2.496094 24.203125 2.398438 27.804688 2.398438 C 34.449219 2.398438 41.09375 2.398438 47.738281 2.515625 C 50.667969 2.574219 53.597656 2.824219 56.527344 3.074219 C 57.945312 3.1875 59.359375 3.363281 60.757812 3.574219 C 61.773438 3.726562 66.714844 5.035156 66.292969 6.863281 C 66.160156 7.4375 66.234375 7.824219 66.121094 8.382812 C 65.238281 12.1875 64.339844 15.996094 63.441406 19.785156 C 63.382812 20.054688 63.25 20.285156 63.152344 20.535156 C 62.617188 21.785156 61.792969 22.476562 60.644531 22.421875 C 59.074219 22.363281 57.484375 22.285156 55.914062 22.226562 C 55.644531 22.246094 55.398438 22.285156 55.070312 22.304688 Z M 55.070312 22.304688 " fill-opacity="1" fill-rule="nonzero"/></g><g clip-path="url(#a7c0fcd313)"><path fill="#000000" d="M 178.015625 32.125 C 178.710938 32.410156 222.238281 32.410156 222.9375 32.125 C 223.304688 31.964844 223.484375 31.679688 223.484375 31.277344 C 223.484375 30.871094 223.304688 30.589844 222.9375 30.429688 C 221.488281 30.25 220.035156 30.179688 218.578125 30.214844 C 214.601562 30.214844 213.378906 29.898438 213.378906 28.90625 C 213.378906 28.554688 214.460938 26.398438 215.785156 24.027344 C 218.15625 19.925781 219.691406 16.742188 220.179688 15.082031 C 220.390625 14.304688 220.390625 14.304688 216.167969 14.304688 C 210.589844 14.304688 210.34375 14.445312 208.324219 18.722656 C 207.449219 20.5625 206.054688 23.605469 205.183594 25.441406 C 203.054688 29.933594 201.347656 31.066406 198.695312 29.6875 C 197.859375 29.226562 197.058594 27.847656 194.300781 22.226562 C 191.6875 16.78125 190.777344 15.222656 189.976562 14.835938 C 189.277344 14.445312 187.8125 14.304688 184.816406 14.304688 L 180.628906 14.304688 L 181.292969 15.789062 C 181.640625 16.636719 183.28125 20.175781 184.882812 23.675781 L 187.8125 30.039062 L 183.417969 30.109375 C 181.011719 30.179688 178.675781 30.285156 178.257812 30.394531 C 178.054688 30.417969 177.882812 30.5 177.738281 30.644531 C 177.589844 30.785156 177.503906 30.960938 177.476562 31.164062 C 177.445312 31.367188 177.484375 31.558594 177.582031 31.738281 C 177.683594 31.917969 177.828125 32.046875 178.015625 32.125 Z M 178.015625 32.125 " fill-opacity="1" fill-rule="nonzero"/></g><g clip-path="url(#f158ce231a)"><path fill="#000000" d="M 222.9375 42.804688 C 222.621094 42.699219 212.472656 42.59375 200.300781 42.59375 C 180.839844 42.59375 178.1875 42.664062 177.804688 43.121094 C 176.828125 44.324219 177.875 44.535156 186.210938 44.714844 C 196.429688 44.925781 195.59375 44.183594 195.59375 52.882812 C 195.59375 60.871094 195.453125 60.625 200.441406 60.625 C 205.148438 60.625 205.007812 60.871094 205.007812 52.738281 C 205.007812 46.515625 205.007812 46.445312 205.882812 45.597656 L 206.71875 44.714844 L 214.566406 44.714844 C 218.855469 44.714844 222.621094 44.609375 222.9375 44.5 C 223.105469 44.429688 223.242188 44.316406 223.34375 44.164062 C 223.445312 44.007812 223.496094 43.839844 223.496094 43.652344 C 223.496094 43.46875 223.445312 43.296875 223.34375 43.144531 C 223.242188 42.988281 223.105469 42.875 222.9375 42.804688 Z M 222.9375 42.804688 " fill-opacity="1" fill-rule="nonzero"/></g><g clip-path="url(#39919b84f8)"><path fill="#000000" d="M 115.992188 32.21875 C 116.410156 31.96875 116.410156 31.757812 116.132812 31.261719 C 115.855469 30.804688 115.128906 30.59375 113.363281 30.414062 C 109.828125 30.132812 109.828125 30.132812 108.375 26.246094 C 107.597656 24.144531 106.46875 22.261719 104.992188 20.597656 C 103.515625 18.929688 101.792969 17.601562 99.820312 16.601562 C 96.667969 15.082031 93.03125 14.585938 83.957031 14.480469 C 76.128906 14.375 75.988281 14.375 75.226562 15.152344 C 74.464844 15.894531 74.429688 16.175781 74.429688 22.324219 C 74.429688 28.648438 74.429688 28.71875 73.566406 29.566406 C 72.871094 30.308594 72.386719 30.449219 70.828125 30.449219 C 68.507812 30.449219 67.851562 30.699219 67.851562 31.511719 C 67.855469 31.914062 68.039062 32.199219 68.40625 32.359375 C 69.339844 32.710938 115.441406 32.605469 115.992188 32.21875 Z M 84.960938 21.867188 C 86.292969 21.664062 87.632812 21.617188 88.976562 21.722656 C 91.785156 21.832031 93.03125 22.042969 94.417969 22.679688 C 95.46875 23.167969 96.40625 23.828125 97.234375 24.652344 C 98.0625 25.476562 98.726562 26.421875 99.230469 27.484375 C 99.855469 28.96875 99.855469 29.214844 99.160156 29.886719 C 98.710938 30.34375 97.566406 30.449219 91.886719 30.449219 C 83.679688 30.449219 83.78125 30.523438 83.78125 26.351562 C 83.78125 23.808594 84.128906 22.464844 84.960938 21.867188 Z M 84.960938 21.867188 " fill-opacity="1" fill-rule="nonzero"/></g><g clip-path="url(#ce25f52108)"><path fill="#000000" d="M 115.785156 43.027344 C 115.058594 42.746094 68.714844 42.746094 68.441406 43.0625 C 68.339844 43.191406 68.269531 43.332031 68.230469 43.492188 C 68.191406 43.648438 68.1875 43.808594 68.21875 43.96875 C 68.246094 44.128906 68.308594 44.273438 68.402344 44.40625 C 68.496094 44.539062 68.613281 44.644531 68.75 44.726562 C 69.492188 44.878906 70.246094 44.953125 71.003906 44.9375 C 72.386719 44.9375 72.90625 45.113281 73.566406 45.820312 C 74.429688 46.667969 74.429688 46.738281 74.429688 53.0625 C 74.429688 58.964844 74.464844 59.457031 75.125 60.128906 C 75.78125 60.800781 76.265625 60.835938 85.097656 60.835938 C 95.074219 60.835938 96.390625 60.660156 99.921875 58.890625 C 102.628906 57.363281 104.878906 55.3125 106.675781 52.746094 C 107.382812 51.574219 107.945312 50.335938 108.375 49.035156 C 109.515625 45.574219 110.3125 44.9375 113.363281 44.9375 C 115.683594 44.9375 116.339844 44.691406 116.339844 43.875 C 116.335938 43.472656 116.152344 43.1875 115.785156 43.027344 Z M 96.875 51.15625 C 94.796875 53.0625 93.445312 53.523438 89.117188 53.699219 C 85.515625 53.839844 85.203125 53.804688 84.511719 53.097656 C 83.886719 52.460938 83.78125 51.933594 83.78125 49.707031 C 83.78125 46.597656 84.234375 45.359375 85.585938 45.007812 C 86.589844 44.761719 97.257812 44.832031 98.539062 45.113281 C 98.972656 45.207031 99.296875 45.457031 99.507812 45.855469 C 99.855469 46.773438 98.328125 49.777344 96.875 51.15625 Z M 96.875 51.15625 " fill-opacity="1" fill-rule="nonzero"/></g><g clip-path="url(#e751d989de)"><path fill="#000000" d="M 143.269531 14.964844 C 142.234375 15.777344 141.804688 16.804688 140.089844 22.421875 C 137.730469 30.199219 137.191406 30.65625 129.9375 30.585938 C 128.15625 30.523438 126.382812 30.582031 124.609375 30.761719 C 124.234375 30.925781 124.046875 31.207031 124.046875 31.609375 C 124.046875 32.015625 124.234375 32.296875 124.609375 32.460938 C 124.933594 32.566406 135.335938 32.671875 147.808594 32.671875 C 167.753906 32.671875 170.472656 32.601562 170.863281 32.140625 C 171.792969 31.011719 170.722656 30.726562 164.824219 30.550781 C 160.535156 30.410156 159.03125 30.234375 158.53125 29.84375 C 157.640625 29.101562 156.566406 26.59375 154.816406 21.113281 C 153.957031 18.394531 152.992188 16.027344 152.492188 15.460938 C 151.667969 14.507812 151.457031 14.472656 147.917969 14.363281 C 144.59375 14.257812 144.128906 14.292969 143.269531 14.964844 Z M 148.273438 29.347656 C 148.132812 30.160156 147.34375 30.410156 147.058594 29.703125 C 146.773438 28.996094 147.59375 27.898438 148.09375 28.394531 C 148.300781 28.6875 148.359375 29.003906 148.273438 29.347656 Z M 148.273438 29.347656 " fill-opacity="1" fill-rule="nonzero"/></g><g clip-path="url(#1033e05bfc)"><path fill="#000000" d="M 124.359375 43.484375 C 123.539062 44.476562 124.859375 45.039062 127.972656 45.039062 C 130.867188 45.039062 131.546875 45.359375 131.546875 46.667969 C 131.035156 48.710938 130.394531 50.714844 129.613281 52.675781 C 128.765625 54.886719 128.039062 57.136719 127.433594 59.425781 L 127.183594 60.945312 L 131.117188 60.945312 C 133.296875 60.945312 135.476562 60.804688 135.976562 60.589844 C 137.085938 60.203125 137.765625 58.929688 138.550781 55.785156 C 139.015625 54.015625 139.480469 53.027344 140.339844 52.179688 L 141.480469 51.046875 L 147.238281 51.046875 C 154.921875 51.046875 155.601562 51.4375 156.601562 56.066406 C 157.53125 60.449219 158.28125 60.945312 163.785156 60.945312 C 166.648438 60.945312 168.003906 60.804688 168.003906 60.554688 C 168.003906 59.601562 166.753906 55.609375 165.324219 51.863281 C 162.894531 45.675781 163.109375 45.039062 167.539062 45.039062 C 170.398438 45.039062 171.6875 44.441406 170.902344 43.484375 C 170.472656 42.992188 168.148438 42.921875 147.628906 42.921875 C 127.113281 42.921875 124.789062 42.992188 124.359375 43.484375 Z M 124.359375 43.484375 " fill-opacity="1" fill-rule="nonzero"/></g><g fill="#f76c66" fill-opacity="1"><g transform="translate(69.704746, 41.593356)"><g><path d="M 5.96875 -7 C 5.96875 -6.601562 5.835938 -6.25 5.578125 -5.9375 C 5.316406 -5.632812 4.976562 -5.414062 4.5625 -5.28125 C 5.0625 -5.144531 5.476562 -4.859375 5.8125 -4.421875 C 6.15625 -3.992188 6.328125 -3.46875 6.328125 -2.84375 C 6.328125 -2 5.976562 -1.289062 5.28125 -0.71875 C 4.59375 -0.15625 3.820312 0.125 2.96875 0.125 C 2.0625 0.125 1.351562 -0.128906 0.84375 -0.640625 C 0.570312 -0.929688 0.4375 -1.269531 0.4375 -1.65625 C 0.4375 -2.050781 0.566406 -2.347656 0.828125 -2.546875 C 1.097656 -2.753906 1.328125 -2.859375 1.515625 -2.859375 C 1.691406 -2.316406 1.976562 -1.894531 2.375 -1.59375 C 2.78125 -1.300781 3.1875 -1.15625 3.59375 -1.15625 C 4 -1.15625 4.304688 -1.257812 4.515625 -1.46875 C 4.722656 -1.675781 4.828125 -1.929688 4.828125 -2.234375 C 4.828125 -2.691406 4.617188 -3.113281 4.203125 -3.5 C 3.785156 -3.882812 3.222656 -4.078125 2.515625 -4.078125 C 2.296875 -4.078125 2.128906 -4.0625 2.015625 -4.03125 C 1.898438 -4.113281 1.84375 -4.238281 1.84375 -4.40625 C 1.84375 -4.582031 1.960938 -4.757812 2.203125 -4.9375 C 2.441406 -5.113281 2.707031 -5.265625 3 -5.390625 C 3.289062 -5.515625 3.554688 -5.691406 3.796875 -5.921875 C 4.035156 -6.148438 4.15625 -6.398438 4.15625 -6.671875 C 4.15625 -6.953125 4.039062 -7.171875 3.8125 -7.328125 C 3.59375 -7.492188 3.328125 -7.578125 3.015625 -7.578125 C 2.484375 -7.578125 1.953125 -7.378906 1.421875 -6.984375 C 1.304688 -7.015625 1.210938 -7.082031 1.140625 -7.1875 C 1.078125 -7.289062 1.046875 -7.410156 1.046875 -7.546875 C 1.046875 -7.890625 1.296875 -8.203125 1.796875 -8.484375 C 2.304688 -8.773438 2.898438 -8.921875 3.578125 -8.921875 C 4.265625 -8.921875 4.832031 -8.742188 5.28125 -8.390625 C 5.738281 -8.046875 5.96875 -7.582031 5.96875 -7 Z M 5.96875 -7 "/></g></g></g><g fill="#f76c66" fill-opacity="1"><g transform="translate(76.61069, 41.593356)"><g><path d="M 2.515625 -2.15625 C 2.828125 -2.15625 3.070312 -2.0625 3.25 -1.875 C 3.4375 -1.695312 3.53125 -1.453125 3.53125 -1.140625 C 3.53125 -0.828125 3.394531 -0.535156 3.125 -0.265625 C 2.851562 0.00390625 2.5625 0.140625 2.25 0.140625 C 1.9375 0.140625 1.6875 0.0507812 1.5 -0.125 C 1.320312 -0.3125 1.234375 -0.5625 1.234375 -0.875 C 1.234375 -1.1875 1.367188 -1.476562 1.640625 -1.75 C 1.921875 -2.019531 2.210938 -2.15625 2.515625 -2.15625 Z M 2.515625 -2.15625 "/></g></g></g><g fill="#f76c66" fill-opacity="1"><g transform="translate(81.342094, 41.593356)"><g><path d="M 3.453125 -7.625 L 3.453125 -1.234375 C 3.453125 -0.796875 3.582031 -0.507812 3.84375 -0.375 C 3.539062 -0.0390625 3.175781 0.125 2.75 0.125 C 1.96875 0.125 1.578125 -0.347656 1.578125 -1.296875 L 1.578125 -7.109375 C 1.578125 -7.359375 1.472656 -7.484375 1.265625 -7.484375 C 1.035156 -7.484375 0.8125 -7.398438 0.59375 -7.234375 C 0.414062 -7.304688 0.328125 -7.445312 0.328125 -7.65625 C 0.328125 -7.945312 0.515625 -8.226562 0.890625 -8.5 C 1.265625 -8.78125 1.679688 -8.921875 2.140625 -8.921875 C 2.597656 -8.921875 2.929688 -8.800781 3.140625 -8.5625 C 3.347656 -8.332031 3.453125 -8.019531 3.453125 -7.625 Z M 3.453125 -7.625 "/></g></g></g><g fill="#f76c66" fill-opacity="1"><g transform="translate(86.049606, 41.593356)"><g><path d="M 2.46875 -3.4375 L 4.21875 -3.4375 L 4.21875 -6.671875 C 4.21875 -6.816406 4.171875 -6.890625 4.078125 -6.890625 C 3.929688 -6.890625 3.691406 -6.679688 3.359375 -6.265625 C 3.023438 -5.859375 2.71875 -5.394531 2.4375 -4.875 C 2.15625 -4.351562 2.015625 -3.96875 2.015625 -3.71875 C 2.015625 -3.613281 2.046875 -3.539062 2.109375 -3.5 C 2.179688 -3.457031 2.300781 -3.4375 2.46875 -3.4375 Z M 6.328125 -2.109375 L 6.09375 -2.109375 L 6.09375 -1.234375 C 6.09375 -0.796875 6.222656 -0.507812 6.484375 -0.375 C 6.191406 -0.0390625 5.828125 0.125 5.390625 0.125 C 4.609375 0.125 4.21875 -0.347656 4.21875 -1.296875 L 4.21875 -2.109375 L 1.515625 -2.109375 C 0.890625 -2.109375 0.578125 -2.363281 0.578125 -2.875 C 0.578125 -3.46875 0.835938 -4.25 1.359375 -5.21875 C 1.890625 -6.1875 2.519531 -7.046875 3.25 -7.796875 C 3.988281 -8.546875 4.625 -8.921875 5.15625 -8.921875 C 5.78125 -8.921875 6.09375 -8.441406 6.09375 -7.484375 L 6.09375 -3.4375 L 6.484375 -3.4375 C 6.878906 -3.4375 7.160156 -3.507812 7.328125 -3.65625 C 7.472656 -3.5 7.546875 -3.296875 7.546875 -3.046875 C 7.546875 -2.796875 7.429688 -2.578125 7.203125 -2.390625 C 6.972656 -2.203125 6.679688 -2.109375 6.328125 -2.109375 Z M 6.328125 -2.109375 "/></g></g></g><g fill="#f7c659" fill-opacity="1"><g transform="translate(93.870887, 41.593356)"><g><path d="M 3.453125 -7.625 L 3.453125 -1.234375 C 3.453125 -0.796875 3.582031 -0.507812 3.84375 -0.375 C 3.539062 -0.0390625 3.175781 0.125 2.75 0.125 C 1.96875 0.125 1.578125 -0.347656 1.578125 -1.296875 L 1.578125 -7.109375 C 1.578125 -7.359375 1.472656 -7.484375 1.265625 -7.484375 C 1.035156 -7.484375 0.8125 -7.398438 0.59375 -7.234375 C 0.414062 -7.304688 0.328125 -7.445312 0.328125 -7.65625 C 0.328125 -7.945312 0.515625 -8.226562 0.890625 -8.5 C 1.265625 -8.78125 1.679688 -8.921875 2.140625 -8.921875 C 2.597656 -8.921875 2.929688 -8.800781 3.140625 -8.5625 C 3.347656 -8.332031 3.453125 -8.019531 3.453125 -7.625 Z M 3.453125 -7.625 "/></g></g></g><g fill="#f7c659" fill-opacity="1"><g transform="translate(98.578399, 41.593356)"><g><path d="M 2.15625 -5.328125 C 2.695312 -5.640625 3.289062 -5.796875 3.9375 -5.796875 C 4.582031 -5.796875 5.164062 -5.539062 5.6875 -5.03125 C 6.207031 -4.519531 6.46875 -3.851562 6.46875 -3.03125 C 6.46875 -2.21875 6.140625 -1.488281 5.484375 -0.84375 C 4.828125 -0.195312 4.019531 0.125 3.0625 0.125 C 2.394531 0.125 1.8125 -0.03125 1.3125 -0.34375 C 0.820312 -0.664062 0.578125 -1.09375 0.578125 -1.625 C 0.578125 -2.019531 0.710938 -2.320312 0.984375 -2.53125 C 1.253906 -2.738281 1.523438 -2.84375 1.796875 -2.84375 C 1.953125 -2.375 2.203125 -2.007812 2.546875 -1.75 C 2.898438 -1.5 3.28125 -1.375 3.6875 -1.375 C 4.09375 -1.375 4.414062 -1.46875 4.65625 -1.65625 C 4.90625 -1.851562 5.03125 -2.132812 5.03125 -2.5 C 5.03125 -3.019531 4.804688 -3.429688 4.359375 -3.734375 C 3.921875 -4.035156 3.4375 -4.1875 2.90625 -4.1875 C 2.375 -4.1875 1.90625 -4.101562 1.5 -3.9375 C 1.332031 -3.9375 1.191406 -3.992188 1.078125 -4.109375 C 0.960938 -4.234375 0.90625 -4.390625 0.90625 -4.578125 C 0.90625 -4.765625 1.101562 -5.820312 1.5 -7.75 C 1.644531 -8.445312 2.238281 -8.796875 3.28125 -8.796875 L 4.6875 -8.796875 C 5.101562 -8.796875 5.414062 -8.875 5.625 -9.03125 C 5.78125 -8.863281 5.859375 -8.601562 5.859375 -8.25 C 5.859375 -7.894531 5.710938 -7.613281 5.421875 -7.40625 C 5.140625 -7.207031 4.679688 -7.109375 4.046875 -7.109375 L 2.5625 -7.109375 Z M 2.15625 -5.328125 "/></g></g></g><g fill="#f7c659" fill-opacity="1"><g transform="translate(105.544081, 41.593356)"><g><path d="M 6.9375 -4.953125 C 6.9375 -4.109375 6.765625 -3.300781 6.421875 -2.53125 C 6.085938 -1.769531 5.597656 -1.132812 4.953125 -0.625 C 4.304688 -0.125 3.578125 0.125 2.765625 0.125 C 2.546875 0.125 2.347656 0.0703125 2.171875 -0.03125 C 2.003906 -0.144531 1.921875 -0.304688 1.921875 -0.515625 C 1.921875 -0.566406 1.925781 -0.609375 1.9375 -0.640625 C 2.863281 -0.742188 3.601562 -1.160156 4.15625 -1.890625 C 4.71875 -2.617188 5 -3.523438 5 -4.609375 C 5 -5.691406 4.820312 -6.492188 4.46875 -7.015625 C 4.113281 -7.546875 3.707031 -7.8125 3.25 -7.8125 C 2.96875 -7.8125 2.722656 -7.707031 2.515625 -7.5 C 2.316406 -7.289062 2.21875 -7.019531 2.21875 -6.6875 C 2.21875 -6.207031 2.410156 -5.753906 2.796875 -5.328125 C 3.179688 -4.910156 3.71875 -4.6875 4.40625 -4.65625 C 4.394531 -4.28125 4.253906 -3.96875 3.984375 -3.71875 C 3.722656 -3.476562 3.363281 -3.359375 2.90625 -3.359375 C 2.457031 -3.359375 2.039062 -3.5 1.65625 -3.78125 C 1.269531 -4.0625 0.992188 -4.390625 0.828125 -4.765625 C 0.660156 -5.140625 0.578125 -5.519531 0.578125 -5.90625 C 0.578125 -6.8125 0.863281 -7.539062 1.4375 -8.09375 C 2.019531 -8.644531 2.738281 -8.921875 3.59375 -8.921875 C 4.632812 -8.921875 5.453125 -8.539062 6.046875 -7.78125 C 6.640625 -7.019531 6.9375 -6.078125 6.9375 -4.953125 Z M 6.9375 -4.953125 "/></g></g></g><g fill="#84d1aa" fill-opacity="1"><g transform="translate(113.190663, 41.593356)"><g><path d="M 6.6875 -1.1875 C 6.6875 -0.394531 6.039062 0 4.75 0 L 1.546875 0 C 1.066406 0 0.710938 -0.144531 0.484375 -0.4375 C 0.347656 -0.601562 0.28125 -0.785156 0.28125 -0.984375 C 0.28125 -1.191406 0.304688 -1.390625 0.359375 -1.578125 C 1.785156 -2.472656 2.800781 -3.296875 3.40625 -4.046875 C 3.65625 -4.347656 3.863281 -4.691406 4.03125 -5.078125 C 4.195312 -5.472656 4.28125 -5.890625 4.28125 -6.328125 C 4.28125 -6.773438 4.1875 -7.125 4 -7.375 C 3.820312 -7.632812 3.566406 -7.765625 3.234375 -7.765625 C 3.003906 -7.765625 2.828125 -7.691406 2.703125 -7.546875 C 2.578125 -7.398438 2.515625 -7.234375 2.515625 -7.046875 C 2.515625 -6.867188 2.578125 -6.703125 2.703125 -6.546875 C 2.835938 -6.398438 3.015625 -6.296875 3.234375 -6.234375 C 2.984375 -5.753906 2.53125 -5.515625 1.875 -5.515625 C 1.488281 -5.515625 1.148438 -5.625 0.859375 -5.84375 C 0.578125 -6.070312 0.4375 -6.390625 0.4375 -6.796875 C 0.4375 -7.390625 0.734375 -7.890625 1.328125 -8.296875 C 1.921875 -8.710938 2.640625 -8.921875 3.484375 -8.921875 C 4.328125 -8.921875 5.015625 -8.660156 5.546875 -8.140625 C 6.085938 -7.628906 6.359375 -6.972656 6.359375 -6.171875 C 6.359375 -5.378906 6.003906 -4.554688 5.296875 -3.703125 C 4.585938 -2.847656 3.5625 -2.125 2.21875 -1.53125 L 4.8125 -1.703125 C 5.53125 -1.734375 6.050781 -1.859375 6.375 -2.078125 C 6.582031 -1.796875 6.6875 -1.5 6.6875 -1.1875 Z M 6.6875 -1.1875 "/></g></g></g><g fill="#84d1aa" fill-opacity="1"><g transform="translate(120.16829, 41.593356)"><g><path d="M 0.71875 -3.84375 C 0.71875 -4.46875 0.816406 -5.082031 1.015625 -5.6875 C 1.222656 -6.289062 1.5 -6.832031 1.84375 -7.3125 C 2.195312 -7.789062 2.640625 -8.175781 3.171875 -8.46875 C 3.703125 -8.769531 4.269531 -8.921875 4.875 -8.921875 C 5.09375 -8.921875 5.285156 -8.863281 5.453125 -8.75 C 5.628906 -8.632812 5.71875 -8.472656 5.71875 -8.265625 C 5.71875 -8.210938 5.71875 -8.175781 5.71875 -8.15625 C 4.769531 -8.050781 4.019531 -7.632812 3.46875 -6.90625 C 2.925781 -6.175781 2.65625 -5.269531 2.65625 -4.1875 C 2.65625 -3.101562 2.828125 -2.296875 3.171875 -1.765625 C 3.523438 -1.242188 3.929688 -0.984375 4.390625 -0.984375 C 4.671875 -0.984375 4.914062 -1.085938 5.125 -1.296875 C 5.332031 -1.503906 5.4375 -1.769531 5.4375 -2.09375 C 5.4375 -2.582031 5.242188 -3.035156 4.859375 -3.453125 C 4.472656 -3.878906 3.929688 -4.109375 3.234375 -4.140625 C 3.242188 -4.515625 3.378906 -4.820312 3.640625 -5.0625 C 3.910156 -5.3125 4.273438 -5.4375 4.734375 -5.4375 C 5.191406 -5.4375 5.613281 -5.296875 6 -5.015625 C 6.382812 -4.734375 6.660156 -4.398438 6.828125 -4.015625 C 6.992188 -3.640625 7.078125 -3.257812 7.078125 -2.875 C 7.078125 -1.96875 6.785156 -1.238281 6.203125 -0.6875 C 5.628906 -0.144531 4.910156 0.125 4.046875 0.125 C 3.003906 0.125 2.1875 -0.253906 1.59375 -1.015625 C 1.007812 -1.773438 0.71875 -2.71875 0.71875 -3.84375 Z M 0.71875 -3.84375 "/></g></g></g><g fill="#84d1aa" fill-opacity="1"><g transform="translate(127.815008, 41.593356)"><g><path d="M 2.15625 -5.328125 C 2.695312 -5.640625 3.289062 -5.796875 3.9375 -5.796875 C 4.582031 -5.796875 5.164062 -5.539062 5.6875 -5.03125 C 6.207031 -4.519531 6.46875 -3.851562 6.46875 -3.03125 C 6.46875 -2.21875 6.140625 -1.488281 5.484375 -0.84375 C 4.828125 -0.195312 4.019531 0.125 3.0625 0.125 C 2.394531 0.125 1.8125 -0.03125 1.3125 -0.34375 C 0.820312 -0.664062 0.578125 -1.09375 0.578125 -1.625 C 0.578125 -2.019531 0.710938 -2.320312 0.984375 -2.53125 C 1.253906 -2.738281 1.523438 -2.84375 1.796875 -2.84375 C 1.953125 -2.375 2.203125 -2.007812 2.546875 -1.75 C 2.898438 -1.5 3.28125 -1.375 3.6875 -1.375 C 4.09375 -1.375 4.414062 -1.46875 4.65625 -1.65625 C 4.90625 -1.851562 5.03125 -2.132812 5.03125 -2.5 C 5.03125 -3.019531 4.804688 -3.429688 4.359375 -3.734375 C 3.921875 -4.035156 3.4375 -4.1875 2.90625 -4.1875 C 2.375 -4.1875 1.90625 -4.101562 1.5 -3.9375 C 1.332031 -3.9375 1.191406 -3.992188 1.078125 -4.109375 C 0.960938 -4.234375 0.90625 -4.390625 0.90625 -4.578125 C 0.90625 -4.765625 1.101562 -5.820312 1.5 -7.75 C 1.644531 -8.445312 2.238281 -8.796875 3.28125 -8.796875 L 4.6875 -8.796875 C 5.101562 -8.796875 5.414062 -8.875 5.625 -9.03125 C 5.78125 -8.863281 5.859375 -8.601562 5.859375 -8.25 C 5.859375 -7.894531 5.710938 -7.613281 5.421875 -7.40625 C 5.140625 -7.207031 4.679688 -7.109375 4.046875 -7.109375 L 2.5625 -7.109375 Z M 2.15625 -5.328125 "/></g></g></g><g fill="#f7e7a8" fill-opacity="1"><g transform="translate(134.780347, 41.593356)"><g><path d="M 5.96875 -7 C 5.96875 -6.601562 5.835938 -6.25 5.578125 -5.9375 C 5.316406 -5.632812 4.976562 -5.414062 4.5625 -5.28125 C 5.0625 -5.144531 5.476562 -4.859375 5.8125 -4.421875 C 6.15625 -3.992188 6.328125 -3.46875 6.328125 -2.84375 C 6.328125 -2 5.976562 -1.289062 5.28125 -0.71875 C 4.59375 -0.15625 3.820312 0.125 2.96875 0.125 C 2.0625 0.125 1.351562 -0.128906 0.84375 -0.640625 C 0.570312 -0.929688 0.4375 -1.269531 0.4375 -1.65625 C 0.4375 -2.050781 0.566406 -2.347656 0.828125 -2.546875 C 1.097656 -2.753906 1.328125 -2.859375 1.515625 -2.859375 C 1.691406 -2.316406 1.976562 -1.894531 2.375 -1.59375 C 2.78125 -1.300781 3.1875 -1.15625 3.59375 -1.15625 C 4 -1.15625 4.304688 -1.257812 4.515625 -1.46875 C 4.722656 -1.675781 4.828125 -1.929688 4.828125 -2.234375 C 4.828125 -2.691406 4.617188 -3.113281 4.203125 -3.5 C 3.785156 -3.882812 3.222656 -4.078125 2.515625 -4.078125 C 2.296875 -4.078125 2.128906 -4.0625 2.015625 -4.03125 C 1.898438 -4.113281 1.84375 -4.238281 1.84375 -4.40625 C 1.84375 -4.582031 1.960938 -4.757812 2.203125 -4.9375 C 2.441406 -5.113281 2.707031 -5.265625 3 -5.390625 C 3.289062 -5.515625 3.554688 -5.691406 3.796875 -5.921875 C 4.035156 -6.148438 4.15625 -6.398438 4.15625 -6.671875 C 4.15625 -6.953125 4.039062 -7.171875 3.8125 -7.328125 C 3.59375 -7.492188 3.328125 -7.578125 3.015625 -7.578125 C 2.484375 -7.578125 1.953125 -7.378906 1.421875 -6.984375 C 1.304688 -7.015625 1.210938 -7.082031 1.140625 -7.1875 C 1.078125 -7.289062 1.046875 -7.410156 1.046875 -7.546875 C 1.046875 -7.890625 1.296875 -8.203125 1.796875 -8.484375 C 2.304688 -8.773438 2.898438 -8.921875 3.578125 -8.921875 C 4.265625 -8.921875 4.832031 -8.742188 5.28125 -8.390625 C 5.738281 -8.046875 5.96875 -7.582031 5.96875 -7 Z M 5.96875 -7 "/></g></g></g><g fill="#f7e7a8" fill-opacity="1"><g transform="translate(141.686292, 41.593356)"><g><path d="M 2.15625 -5.328125 C 2.695312 -5.640625 3.289062 -5.796875 3.9375 -5.796875 C 4.582031 -5.796875 5.164062 -5.539062 5.6875 -5.03125 C 6.207031 -4.519531 6.46875 -3.851562 6.46875 -3.03125 C 6.46875 -2.21875 6.140625 -1.488281 5.484375 -0.84375 C 4.828125 -0.195312 4.019531 0.125 3.0625 0.125 C 2.394531 0.125 1.8125 -0.03125 1.3125 -0.34375 C 0.820312 -0.664062 0.578125 -1.09375 0.578125 -1.625 C 0.578125 -2.019531 0.710938 -2.320312 0.984375 -2.53125 C 1.253906 -2.738281 1.523438 -2.84375 1.796875 -2.84375 C 1.953125 -2.375 2.203125 -2.007812 2.546875 -1.75 C 2.898438 -1.5 3.28125 -1.375 3.6875 -1.375 C 4.09375 -1.375 4.414062 -1.46875 4.65625 -1.65625 C 4.90625 -1.851562 5.03125 -2.132812 5.03125 -2.5 C 5.03125 -3.019531 4.804688 -3.429688 4.359375 -3.734375 C 3.921875 -4.035156 3.4375 -4.1875 2.90625 -4.1875 C 2.375 -4.1875 1.90625 -4.101562 1.5 -3.9375 C 1.332031 -3.9375 1.191406 -3.992188 1.078125 -4.109375 C 0.960938 -4.234375 0.90625 -4.390625 0.90625 -4.578125 C 0.90625 -4.765625 1.101562 -5.820312 1.5 -7.75 C 1.644531 -8.445312 2.238281 -8.796875 3.28125 -8.796875 L 4.6875 -8.796875 C 5.101562 -8.796875 5.414062 -8.875 5.625 -9.03125 C 5.78125 -8.863281 5.859375 -8.601562 5.859375 -8.25 C 5.859375 -7.894531 5.710938 -7.613281 5.421875 -7.40625 C 5.140625 -7.207031 4.679688 -7.109375 4.046875 -7.109375 L 2.5625 -7.109375 Z M 2.15625 -5.328125 "/></g></g></g><g fill="#f7e7a8" fill-opacity="1"><g transform="translate(148.651974, 41.593356)"><g><path d="M 2.8125 -4 C 2.53125 -3.632812 2.390625 -3.210938 2.390625 -2.734375 C 2.390625 -2.253906 2.550781 -1.828125 2.875 -1.453125 C 3.207031 -1.078125 3.65625 -0.890625 4.21875 -0.890625 C 4.507812 -0.890625 4.773438 -0.976562 5.015625 -1.15625 C 5.253906 -1.332031 5.375 -1.578125 5.375 -1.890625 C 5.375 -2.441406 4.921875 -2.941406 4.015625 -3.390625 C 3.628906 -3.578125 3.226562 -3.78125 2.8125 -4 Z M 4.859375 -5.015625 C 5.046875 -5.347656 5.140625 -5.734375 5.140625 -6.171875 C 5.140625 -6.609375 4.984375 -7.015625 4.671875 -7.390625 C 4.367188 -7.765625 3.988281 -7.953125 3.53125 -7.953125 C 3.257812 -7.953125 3.023438 -7.863281 2.828125 -7.6875 C 2.628906 -7.507812 2.53125 -7.269531 2.53125 -6.96875 C 2.53125 -6.71875 2.644531 -6.457031 2.875 -6.1875 C 3 -6.039062 3.195312 -5.890625 3.46875 -5.734375 C 3.75 -5.578125 4.023438 -5.429688 4.296875 -5.296875 C 4.566406 -5.160156 4.753906 -5.066406 4.859375 -5.015625 Z M 6.828125 -6.46875 C 6.828125 -5.664062 6.457031 -5.015625 5.71875 -4.515625 C 6.632812 -3.898438 7.09375 -3.179688 7.09375 -2.359375 C 7.09375 -1.929688 6.988281 -1.550781 6.78125 -1.21875 C 6.570312 -0.882812 6.304688 -0.625 5.984375 -0.4375 C 5.335938 -0.0625 4.691406 0.125 4.046875 0.125 C 3.191406 0.125 2.421875 -0.109375 1.734375 -0.578125 C 1.054688 -1.054688 0.71875 -1.710938 0.71875 -2.546875 C 0.71875 -3.378906 1.128906 -4.046875 1.953125 -4.546875 C 1.285156 -5.097656 0.953125 -5.726562 0.953125 -6.4375 C 0.953125 -7.144531 1.21875 -7.734375 1.75 -8.203125 C 2.289062 -8.679688 2.984375 -8.921875 3.828125 -8.921875 C 4.285156 -8.921875 4.738281 -8.832031 5.1875 -8.65625 C 5.632812 -8.476562 6.019531 -8.195312 6.34375 -7.8125 C 6.664062 -7.425781 6.828125 -6.976562 6.828125 -6.46875 Z M 6.828125 -6.46875 "/></g></g></g><g fill="#f7c659" fill-opacity="1"><g transform="translate(156.450321, 41.593356)"><g><path d="M 6.9375 -4.953125 C 6.9375 -4.109375 6.765625 -3.300781 6.421875 -2.53125 C 6.085938 -1.769531 5.597656 -1.132812 4.953125 -0.625 C 4.304688 -0.125 3.578125 0.125 2.765625 0.125 C 2.546875 0.125 2.347656 0.0703125 2.171875 -0.03125 C 2.003906 -0.144531 1.921875 -0.304688 1.921875 -0.515625 C 1.921875 -0.566406 1.925781 -0.609375 1.9375 -0.640625 C 2.863281 -0.742188 3.601562 -1.160156 4.15625 -1.890625 C 4.71875 -2.617188 5 -3.523438 5 -4.609375 C 5 -5.691406 4.820312 -6.492188 4.46875 -7.015625 C 4.113281 -7.546875 3.707031 -7.8125 3.25 -7.8125 C 2.96875 -7.8125 2.722656 -7.707031 2.515625 -7.5 C 2.316406 -7.289062 2.21875 -7.019531 2.21875 -6.6875 C 2.21875 -6.207031 2.410156 -5.753906 2.796875 -5.328125 C 3.179688 -4.910156 3.71875 -4.6875 4.40625 -4.65625 C 4.394531 -4.28125 4.253906 -3.96875 3.984375 -3.71875 C 3.722656 -3.476562 3.363281 -3.359375 2.90625 -3.359375 C 2.457031 -3.359375 2.039062 -3.5 1.65625 -3.78125 C 1.269531 -4.0625 0.992188 -4.390625 0.828125 -4.765625 C 0.660156 -5.140625 0.578125 -5.519531 0.578125 -5.90625 C 0.578125 -6.8125 0.863281 -7.539062 1.4375 -8.09375 C 2.019531 -8.644531 2.738281 -8.921875 3.59375 -8.921875 C 4.632812 -8.921875 5.453125 -8.539062 6.046875 -7.78125 C 6.640625 -7.019531 6.9375 -6.078125 6.9375 -4.953125 Z M 6.9375 -4.953125 "/></g></g></g><g fill="#f7c659" fill-opacity="1"><g transform="translate(164.097038, 41.593356)"><g><path d="M 2.015625 -8.796875 L 5.890625 -8.796875 C 5.960938 -8.710938 6 -8.554688 6 -8.328125 C 6 -8.109375 5.859375 -7.742188 5.578125 -7.234375 C 5.296875 -6.734375 4.984375 -6.21875 4.640625 -5.6875 C 4.296875 -5.164062 3.984375 -4.554688 3.703125 -3.859375 C 3.421875 -3.171875 3.28125 -2.53125 3.28125 -1.9375 C 3.28125 -1.34375 3.523438 -0.941406 4.015625 -0.734375 C 4.003906 -0.710938 3.992188 -0.679688 3.984375 -0.640625 C 3.972656 -0.597656 3.9375 -0.523438 3.875 -0.421875 C 3.820312 -0.328125 3.753906 -0.242188 3.671875 -0.171875 C 3.453125 0.0234375 3.148438 0.125 2.765625 0.125 C 2.390625 0.125 2.066406 -0.0234375 1.796875 -0.328125 C 1.535156 -0.628906 1.40625 -1.023438 1.40625 -1.515625 C 1.40625 -2.003906 1.582031 -2.585938 1.9375 -3.265625 C 2.300781 -3.941406 2.757812 -4.679688 3.3125 -5.484375 C 3.863281 -6.285156 4.222656 -6.84375 4.390625 -7.15625 C 4.203125 -7.125 3.976562 -7.109375 3.71875 -7.109375 L 1.375 -7.109375 C 0.957031 -7.109375 0.644531 -7.03125 0.4375 -6.875 C 0.289062 -7.082031 0.21875 -7.304688 0.21875 -7.546875 C 0.21875 -7.796875 0.265625 -8.003906 0.359375 -8.171875 C 0.460938 -8.335938 0.570312 -8.457031 0.6875 -8.53125 C 0.8125 -8.613281 0.972656 -8.675781 1.171875 -8.71875 C 1.410156 -8.769531 1.691406 -8.796875 2.015625 -8.796875 Z M 2.015625 -8.796875 "/></g></g></g><g fill="#f7c659" fill-opacity="1"><g transform="translate(170.381684, 41.593356)"><g><path d="M 6.9375 -4.953125 C 6.9375 -4.109375 6.765625 -3.300781 6.421875 -2.53125 C 6.085938 -1.769531 5.597656 -1.132812 4.953125 -0.625 C 4.304688 -0.125 3.578125 0.125 2.765625 0.125 C 2.546875 0.125 2.347656 0.0703125 2.171875 -0.03125 C 2.003906 -0.144531 1.921875 -0.304688 1.921875 -0.515625 C 1.921875 -0.566406 1.925781 -0.609375 1.9375 -0.640625 C 2.863281 -0.742188 3.601562 -1.160156 4.15625 -1.890625 C 4.71875 -2.617188 5 -3.523438 5 -4.609375 C 5 -5.691406 4.820312 -6.492188 4.46875 -7.015625 C 4.113281 -7.546875 3.707031 -7.8125 3.25 -7.8125 C 2.96875 -7.8125 2.722656 -7.707031 2.515625 -7.5 C 2.316406 -7.289062 2.21875 -7.019531 2.21875 -6.6875 C 2.21875 -6.207031 2.410156 -5.753906 2.796875 -5.328125 C 3.179688 -4.910156 3.71875 -4.6875 4.40625 -4.65625 C 4.394531 -4.28125 4.253906 -3.96875 3.984375 -3.71875 C 3.722656 -3.476562 3.363281 -3.359375 2.90625 -3.359375 C 2.457031 -3.359375 2.039062 -3.5 1.65625 -3.78125 C 1.269531 -4.0625 0.992188 -4.390625 0.828125 -4.765625 C 0.660156 -5.140625 0.578125 -5.519531 0.578125 -5.90625 C 0.578125 -6.8125 0.863281 -7.539062 1.4375 -8.09375 C 2.019531 -8.644531 2.738281 -8.921875 3.59375 -8.921875 C 4.632812 -8.921875 5.453125 -8.539062 6.046875 -7.78125 C 6.640625 -7.019531 6.9375 -6.078125 6.9375 -4.953125 Z M 6.9375 -4.953125 "/></g></g></g><g fill="#84d1aa" fill-opacity="1"><g transform="translate(178.025408, 41.593356)"><g><path d="M 5.96875 -7 C 5.96875 -6.601562 5.835938 -6.25 5.578125 -5.9375 C 5.316406 -5.632812 4.976562 -5.414062 4.5625 -5.28125 C 5.0625 -5.144531 5.476562 -4.859375 5.8125 -4.421875 C 6.15625 -3.992188 6.328125 -3.46875 6.328125 -2.84375 C 6.328125 -2 5.976562 -1.289062 5.28125 -0.71875 C 4.59375 -0.15625 3.820312 0.125 2.96875 0.125 C 2.0625 0.125 1.351562 -0.128906 0.84375 -0.640625 C 0.570312 -0.929688 0.4375 -1.269531 0.4375 -1.65625 C 0.4375 -2.050781 0.566406 -2.347656 0.828125 -2.546875 C 1.097656 -2.753906 1.328125 -2.859375 1.515625 -2.859375 C 1.691406 -2.316406 1.976562 -1.894531 2.375 -1.59375 C 2.78125 -1.300781 3.1875 -1.15625 3.59375 -1.15625 C 4 -1.15625 4.304688 -1.257812 4.515625 -1.46875 C 4.722656 -1.675781 4.828125 -1.929688 4.828125 -2.234375 C 4.828125 -2.691406 4.617188 -3.113281 4.203125 -3.5 C 3.785156 -3.882812 3.222656 -4.078125 2.515625 -4.078125 C 2.296875 -4.078125 2.128906 -4.0625 2.015625 -4.03125 C 1.898438 -4.113281 1.84375 -4.238281 1.84375 -4.40625 C 1.84375 -4.582031 1.960938 -4.757812 2.203125 -4.9375 C 2.441406 -5.113281 2.707031 -5.265625 3 -5.390625 C 3.289062 -5.515625 3.554688 -5.691406 3.796875 -5.921875 C 4.035156 -6.148438 4.15625 -6.398438 4.15625 -6.671875 C 4.15625 -6.953125 4.039062 -7.171875 3.8125 -7.328125 C 3.59375 -7.492188 3.328125 -7.578125 3.015625 -7.578125 C 2.484375 -7.578125 1.953125 -7.378906 1.421875 -6.984375 C 1.304688 -7.015625 1.210938 -7.082031 1.140625 -7.1875 C 1.078125 -7.289062 1.046875 -7.410156 1.046875 -7.546875 C 1.046875 -7.890625 1.296875 -8.203125 1.796875 -8.484375 C 2.304688 -8.773438 2.898438 -8.921875 3.578125 -8.921875 C 4.265625 -8.921875 4.832031 -8.742188 5.28125 -8.390625 C 5.738281 -8.046875 5.96875 -7.582031 5.96875 -7 Z M 5.96875 -7 "/></g></g></g><g fill="#84d1aa" fill-opacity="1"><g transform="translate(184.931353, 41.593356)"><g><path d="M 6.6875 -1.1875 C 6.6875 -0.394531 6.039062 0 4.75 0 L 1.546875 0 C 1.066406 0 0.710938 -0.144531 0.484375 -0.4375 C 0.347656 -0.601562 0.28125 -0.785156 0.28125 -0.984375 C 0.28125 -1.191406 0.304688 -1.390625 0.359375 -1.578125 C 1.785156 -2.472656 2.800781 -3.296875 3.40625 -4.046875 C 3.65625 -4.347656 3.863281 -4.691406 4.03125 -5.078125 C 4.195312 -5.472656 4.28125 -5.890625 4.28125 -6.328125 C 4.28125 -6.773438 4.1875 -7.125 4 -7.375 C 3.820312 -7.632812 3.566406 -7.765625 3.234375 -7.765625 C 3.003906 -7.765625 2.828125 -7.691406 2.703125 -7.546875 C 2.578125 -7.398438 2.515625 -7.234375 2.515625 -7.046875 C 2.515625 -6.867188 2.578125 -6.703125 2.703125 -6.546875 C 2.835938 -6.398438 3.015625 -6.296875 3.234375 -6.234375 C 2.984375 -5.753906 2.53125 -5.515625 1.875 -5.515625 C 1.488281 -5.515625 1.148438 -5.625 0.859375 -5.84375 C 0.578125 -6.070312 0.4375 -6.390625 0.4375 -6.796875 C 0.4375 -7.390625 0.734375 -7.890625 1.328125 -8.296875 C 1.921875 -8.710938 2.640625 -8.921875 3.484375 -8.921875 C 4.328125 -8.921875 5.015625 -8.660156 5.546875 -8.140625 C 6.085938 -7.628906 6.359375 -6.972656 6.359375 -6.171875 C 6.359375 -5.378906 6.003906 -4.554688 5.296875 -3.703125 C 4.585938 -2.847656 3.5625 -2.125 2.21875 -1.53125 L 4.8125 -1.703125 C 5.53125 -1.734375 6.050781 -1.859375 6.375 -2.078125 C 6.582031 -1.796875 6.6875 -1.5 6.6875 -1.1875 Z M 6.6875 -1.1875 "/></g></g></g><g fill="#84d1aa" fill-opacity="1"><g transform="translate(191.90898, 41.593356)"><g><path d="M 5.96875 -7 C 5.96875 -6.601562 5.835938 -6.25 5.578125 -5.9375 C 5.316406 -5.632812 4.976562 -5.414062 4.5625 -5.28125 C 5.0625 -5.144531 5.476562 -4.859375 5.8125 -4.421875 C 6.15625 -3.992188 6.328125 -3.46875 6.328125 -2.84375 C 6.328125 -2 5.976562 -1.289062 5.28125 -0.71875 C 4.59375 -0.15625 3.820312 0.125 2.96875 0.125 C 2.0625 0.125 1.351562 -0.128906 0.84375 -0.640625 C 0.570312 -0.929688 0.4375 -1.269531 0.4375 -1.65625 C 0.4375 -2.050781 0.566406 -2.347656 0.828125 -2.546875 C 1.097656 -2.753906 1.328125 -2.859375 1.515625 -2.859375 C 1.691406 -2.316406 1.976562 -1.894531 2.375 -1.59375 C 2.78125 -1.300781 3.1875 -1.15625 3.59375 -1.15625 C 4 -1.15625 4.304688 -1.257812 4.515625 -1.46875 C 4.722656 -1.675781 4.828125 -1.929688 4.828125 -2.234375 C 4.828125 -2.691406 4.617188 -3.113281 4.203125 -3.5 C 3.785156 -3.882812 3.222656 -4.078125 2.515625 -4.078125 C 2.296875 -4.078125 2.128906 -4.0625 2.015625 -4.03125 C 1.898438 -4.113281 1.84375 -4.238281 1.84375 -4.40625 C 1.84375 -4.582031 1.960938 -4.757812 2.203125 -4.9375 C 2.441406 -5.113281 2.707031 -5.265625 3 -5.390625 C 3.289062 -5.515625 3.554688 -5.691406 3.796875 -5.921875 C 4.035156 -6.148438 4.15625 -6.398438 4.15625 -6.671875 C 4.15625 -6.953125 4.039062 -7.171875 3.8125 -7.328125 C 3.59375 -7.492188 3.328125 -7.578125 3.015625 -7.578125 C 2.484375 -7.578125 1.953125 -7.378906 1.421875 -6.984375 C 1.304688 -7.015625 1.210938 -7.082031 1.140625 -7.1875 C 1.078125 -7.289062 1.046875 -7.410156 1.046875 -7.546875 C 1.046875 -7.890625 1.296875 -8.203125 1.796875 -8.484375 C 2.304688 -8.773438 2.898438 -8.921875 3.578125 -8.921875 C 4.265625 -8.921875 4.832031 -8.742188 5.28125 -8.390625 C 5.738281 -8.046875 5.96875 -7.582031 5.96875 -7 Z M 5.96875 -7 "/></g></g></g><g fill="#f7e7a8" fill-opacity="1"><g transform="translate(198.812231, 41.593356)"><g><path d="M 2.8125 -4 C 2.53125 -3.632812 2.390625 -3.210938 2.390625 -2.734375 C 2.390625 -2.253906 2.550781 -1.828125 2.875 -1.453125 C 3.207031 -1.078125 3.65625 -0.890625 4.21875 -0.890625 C 4.507812 -0.890625 4.773438 -0.976562 5.015625 -1.15625 C 5.253906 -1.332031 5.375 -1.578125 5.375 -1.890625 C 5.375 -2.441406 4.921875 -2.941406 4.015625 -3.390625 C 3.628906 -3.578125 3.226562 -3.78125 2.8125 -4 Z M 4.859375 -5.015625 C 5.046875 -5.347656 5.140625 -5.734375 5.140625 -6.171875 C 5.140625 -6.609375 4.984375 -7.015625 4.671875 -7.390625 C 4.367188 -7.765625 3.988281 -7.953125 3.53125 -7.953125 C 3.257812 -7.953125 3.023438 -7.863281 2.828125 -7.6875 C 2.628906 -7.507812 2.53125 -7.269531 2.53125 -6.96875 C 2.53125 -6.71875 2.644531 -6.457031 2.875 -6.1875 C 3 -6.039062 3.195312 -5.890625 3.46875 -5.734375 C 3.75 -5.578125 4.023438 -5.429688 4.296875 -5.296875 C 4.566406 -5.160156 4.753906 -5.066406 4.859375 -5.015625 Z M 6.828125 -6.46875 C 6.828125 -5.664062 6.457031 -5.015625 5.71875 -4.515625 C 6.632812 -3.898438 7.09375 -3.179688 7.09375 -2.359375 C 7.09375 -1.929688 6.988281 -1.550781 6.78125 -1.21875 C 6.570312 -0.882812 6.304688 -0.625 5.984375 -0.4375 C 5.335938 -0.0625 4.691406 0.125 4.046875 0.125 C 3.191406 0.125 2.421875 -0.109375 1.734375 -0.578125 C 1.054688 -1.054688 0.71875 -1.710938 0.71875 -2.546875 C 0.71875 -3.378906 1.128906 -4.046875 1.953125 -4.546875 C 1.285156 -5.097656 0.953125 -5.726562 0.953125 -6.4375 C 0.953125 -7.144531 1.21875 -7.734375 1.75 -8.203125 C 2.289062 -8.679688 2.984375 -8.921875 3.828125 -8.921875 C 4.285156 -8.921875 4.738281 -8.832031 5.1875 -8.65625 C 5.632812 -8.476562 6.019531 -8.195312 6.34375 -7.8125 C 6.664062 -7.425781 6.828125 -6.976562 6.828125 -6.46875 Z M 6.828125 -6.46875 "/></g></g></g><g fill="#f7e7a8" fill-opacity="1"><g transform="translate(206.614274, 41.593356)"><g><path d="M 2.46875 -3.4375 L 4.21875 -3.4375 L 4.21875 -6.671875 C 4.21875 -6.816406 4.171875 -6.890625 4.078125 -6.890625 C 3.929688 -6.890625 3.691406 -6.679688 3.359375 -6.265625 C 3.023438 -5.859375 2.71875 -5.394531 2.4375 -4.875 C 2.15625 -4.351562 2.015625 -3.96875 2.015625 -3.71875 C 2.015625 -3.613281 2.046875 -3.539062 2.109375 -3.5 C 2.179688 -3.457031 2.300781 -3.4375 2.46875 -3.4375 Z M 6.328125 -2.109375 L 6.09375 -2.109375 L 6.09375 -1.234375 C 6.09375 -0.796875 6.222656 -0.507812 6.484375 -0.375 C 6.191406 -0.0390625 5.828125 0.125 5.390625 0.125 C 4.609375 0.125 4.21875 -0.347656 4.21875 -1.296875 L 4.21875 -2.109375 L 1.515625 -2.109375 C 0.890625 -2.109375 0.578125 -2.363281 0.578125 -2.875 C 0.578125 -3.46875 0.835938 -4.25 1.359375 -5.21875 C 1.890625 -6.1875 2.519531 -7.046875 3.25 -7.796875 C 3.988281 -8.546875 4.625 -8.921875 5.15625 -8.921875 C 5.78125 -8.921875 6.09375 -8.441406 6.09375 -7.484375 L 6.09375 -3.4375 L 6.484375 -3.4375 C 6.878906 -3.4375 7.160156 -3.507812 7.328125 -3.65625 C 7.472656 -3.5 7.546875 -3.296875 7.546875 -3.046875 C 7.546875 -2.796875 7.429688 -2.578125 7.203125 -2.390625 C 6.972656 -2.203125 6.679688 -2.109375 6.328125 -2.109375 Z M 6.328125 -2.109375 "/></g></g></g><g fill="#f7e7a8" fill-opacity="1"><g transform="translate(214.44021, 41.593356)"><g><path d="M 0.71875 -3.84375 C 0.71875 -4.46875 0.816406 -5.082031 1.015625 -5.6875 C 1.222656 -6.289062 1.5 -6.832031 1.84375 -7.3125 C 2.195312 -7.789062 2.640625 -8.175781 3.171875 -8.46875 C 3.703125 -8.769531 4.269531 -8.921875 4.875 -8.921875 C 5.09375 -8.921875 5.285156 -8.863281 5.453125 -8.75 C 5.628906 -8.632812 5.71875 -8.472656 5.71875 -8.265625 C 5.71875 -8.210938 5.71875 -8.175781 5.71875 -8.15625 C 4.769531 -8.050781 4.019531 -7.632812 3.46875 -6.90625 C 2.925781 -6.175781 2.65625 -5.269531 2.65625 -4.1875 C 2.65625 -3.101562 2.828125 -2.296875 3.171875 -1.765625 C 3.523438 -1.242188 3.929688 -0.984375 4.390625 -0.984375 C 4.671875 -0.984375 4.914062 -1.085938 5.125 -1.296875 C 5.332031 -1.503906 5.4375 -1.769531 5.4375 -2.09375 C 5.4375 -2.582031 5.242188 -3.035156 4.859375 -3.453125 C 4.472656 -3.878906 3.929688 -4.109375 3.234375 -4.140625 C 3.242188 -4.515625 3.378906 -4.820312 3.640625 -5.0625 C 3.910156 -5.3125 4.273438 -5.4375 4.734375 -5.4375 C 5.191406 -5.4375 5.613281 -5.296875 6 -5.015625 C 6.382812 -4.734375 6.660156 -4.398438 6.828125 -4.015625 C 6.992188 -3.640625 7.078125 -3.257812 7.078125 -2.875 C 7.078125 -1.96875 6.785156 -1.238281 6.203125 -0.6875 C 5.628906 -0.144531 4.910156 0.125 4.046875 0.125 C 3.003906 0.125 2.1875 -0.253906 1.59375 -1.015625 C 1.007812 -1.773438 0.71875 -2.71875 0.71875 -3.84375 Z M 0.71875 -3.84375 "/></g></g></g></svg>