<svg xmlns="http://www.w3.org/2000/svg" xmlns:xlink="http://www.w3.org/1999/xlink" width="1080" zoomAndPan="magnify" viewBox="0 0 810 809.999993" height="1080" preserveAspectRatio="xMidYMid meet" version="1.0"><defs><clipPath id="6eecdb130e"><path d="M 19.882812 0 L 786 0 L 786 804 L 19.882812 804 Z M 19.882812 0 " clip-rule="nonzero"/></clipPath></defs><path fill="#f76c66" d="M 221.730469 475.414062 C 225.488281 464.800781 229.46875 453.96875 233.226562 443.355469 L 233.890625 441.589844 L 235.4375 442.914062 C 242.734375 449.105469 250.46875 455.074219 257.101562 461.925781 C 282.304688 488.457031 297.339844 521.839844 305.078125 557.210938 C 307.289062 567.160156 309.71875 577.105469 311.488281 587.054688 C 312.59375 592.804688 313.480469 598.550781 313.257812 604.519531 C 313.035156 610.269531 311.488281 616.015625 309.941406 621.542969 C 307.289062 631.050781 304.191406 640.777344 301.539062 650.28125 C 299.992188 655.808594 297.5625 661.117188 295.570312 666.421875 C 294.464844 669.074219 292.476562 672.390625 291.148438 674.824219 L 288.71875 679.242188 L 288.71875 674.160156 C 287.390625 602.308594 273.464844 530.460938 222.394531 476.738281 L 221.730469 476.074219 Z M 591.378906 231.789062 C 592.925781 239.746094 594.253906 247.484375 595.800781 255.441406 L 596.023438 256.328125 L 595.359375 256.769531 C 561.089844 281.53125 532.570312 312.039062 508.695312 346.96875 L 506.042969 350.945312 L 506.261719 346.304688 C 508.03125 316.460938 514.882812 287.941406 519.527344 258.757812 L 519.75 258.09375 L 520.410156 257.875 C 543.402344 249.03125 566.617188 239.96875 589.609375 231.125 L 591.15625 230.460938 Z M 600.441406 267.601562 C 606.632812 274.453125 612.824219 281.308594 619.015625 287.941406 L 619.898438 288.824219 L 619.015625 289.710938 C 606.191406 302.972656 593.148438 316.238281 580.324219 329.722656 C 566.175781 344.316406 555.5625 361.117188 548.488281 380.128906 C 540.972656 400.6875 539.867188 424.785156 553.574219 443.136719 C 559.542969 451.09375 567.722656 456.84375 577.007812 460.160156 C 583.199219 462.367188 589.609375 463.917969 596.023438 465.90625 L 596.90625 466.128906 L 596.90625 467.011719 C 596.90625 473.644531 596.90625 480.054688 596.683594 486.6875 C 596.464844 491.109375 596.023438 495.53125 595.800781 499.953125 L 595.800781 500.835938 L 594.917969 501.058594 C 584.96875 504.59375 575.019531 503.710938 565.070312 501.058594 C 546.277344 495.972656 530.140625 486.246094 516.652344 472.316406 C 498.304688 453.304688 491.890625 419.039062 500.515625 394.058594 C 505.820312 378.140625 512.894531 362.664062 521.515625 348.292969 C 538.539062 319.996094 560.871094 297.226562 586.074219 276.003906 C 590.050781 272.6875 594.472656 270.035156 598.675781 267.160156 L 599.558594 266.496094 Z M 600.664062 406.65625 C 593.8125 404.003906 588.726562 398.699219 588.945312 390.960938 C 589.167969 379.6875 596.464844 374.382812 605.085938 368.855469 L 607.519531 367.308594 L 607.074219 370.179688 C 605.527344 382.117188 603.980469 393.835938 602.433594 405.773438 L 602.210938 407.320312 Z M 662.347656 203.269531 C 659.914062 203.710938 656.378906 204.816406 653.945312 204.59375 C 650.851562 204.375 644.660156 203.710938 642.226562 205.699219 C 638.910156 208.351562 639.132812 217.859375 639.132812 221.617188 C 639.132812 223.386719 638.910156 224.933594 638.25 226.703125 C 637.804688 228.027344 636.257812 229.132812 635.375 230.019531 L 634.046875 231.34375 L 633.164062 229.796875 C 625.648438 216.089844 624.320312 198.847656 633.164062 185.363281 C 636.699219 180.054688 641.121094 178.066406 645.984375 183.152344 C 651.734375 189.121094 657.261719 195.089844 662.789062 201.058594 L 664.335938 202.828125 Z M 531.023438 189.5625 C 532.351562 180.054688 533.457031 170.769531 534.78125 161.265625 L 534.78125 160.601562 L 535.222656 160.378906 C 544.289062 153.96875 553.132812 147.777344 562.195312 141.367188 L 563.523438 140.484375 L 564.1875 141.808594 C 570.375 154.191406 576.34375 166.570312 582.535156 178.949219 L 582.976562 179.835938 L 582.09375 180.496094 C 569.492188 189.78125 547.605469 192.4375 532.128906 190.886719 L 530.800781 190.667969 Z M 594.253906 177.84375 C 583.863281 164.359375 577.230469 149.988281 571.480469 134.070312 L 571.261719 133.410156 L 571.703125 132.746094 C 579.660156 123.460938 587.398438 114.175781 595.359375 104.890625 L 596.683594 103.34375 L 597.570312 105.109375 C 604.421875 119.261719 611.054688 133.1875 617.910156 147.335938 L 618.351562 148 L 617.910156 148.664062 C 610.835938 158.390625 603.757812 167.898438 596.683594 177.625 L 595.578125 178.949219 Z M 523.726562 241.074219 C 525.273438 229.578125 526.824219 217.859375 528.371094 206.363281 L 528.589844 205.480469 L 529.476562 205.257812 C 550.035156 201.5 570.816406 197.742188 591.378906 193.984375 L 592.707031 193.761719 L 592.925781 195.089844 C 594.253906 205.039062 591.378906 212.773438 583.199219 218.523438 C 565.511719 230.683594 546.5 238.863281 525.277344 242.621094 L 523.507812 242.839844 Z M 632.277344 169.222656 C 623.214844 185.140625 615.253906 203.269531 619.675781 221.839844 C 621.886719 231.566406 627.195312 240.1875 632.941406 248.367188 L 633.164062 248.808594 L 632.941406 249.472656 C 630.953125 257.652344 629.183594 266.054688 627.195312 274.234375 L 626.972656 275.558594 L 625.648438 275.339844 C 615.699219 273.347656 610.613281 264.507812 606.632812 256.105469 C 594.472656 230.902344 598.453125 186.910156 616.582031 165.242188 C 618.128906 163.476562 620.339844 160.378906 622.992188 160.160156 C 626.308594 159.9375 630.289062 165.464844 632.058594 167.898438 L 632.722656 168.558594 Z M 596.242188 516.53125 C 596.464844 522.5 596.90625 528.691406 597.128906 534.660156 L 597.128906 535.765625 L 596.023438 535.988281 C 586.734375 537.3125 577.230469 539.964844 567.722656 539.746094 C 541.636719 539.082031 518.644531 531.566406 498.523438 514.542969 C 491.007812 508.132812 487.914062 501.058594 488.796875 491.109375 C 489.679688 481.160156 490.125 471.433594 490.785156 461.484375 L 490.785156 460.378906 L 491.890625 460.378906 C 492.777344 460.378906 493.882812 460.160156 494.765625 460.160156 L 495.652344 460.160156 L 496.09375 460.820312 C 506.261719 480.496094 521.296875 492.878906 540.085938 503.710938 C 557.332031 513.4375 575.460938 516.089844 594.917969 515.207031 L 596.242188 515.207031 Z M 619.234375 310.933594 C 617.023438 322.648438 615.476562 334.585938 612.601562 346.304688 C 611.496094 350.503906 607.738281 353.601562 604.863281 356.472656 C 598.675781 362.441406 591.15625 367.308594 585.851562 374.382812 C 577.230469 385.433594 577.671875 395.605469 585.628906 406.878906 C 589.609375 412.628906 594.917969 417.710938 599.78125 423.019531 L 600.222656 423.460938 L 600.222656 423.902344 C 600 428.101562 599.78125 432.304688 599.558594 436.503906 C 599.117188 441.367188 598.234375 446.007812 597.789062 450.875 L 597.570312 451.976562 L 596.464844 451.976562 C 584.746094 453.082031 575.019531 448.441406 566.617188 440.925781 C 551.363281 427.4375 548.046875 409.3125 555.5625 390.519531 C 560.871094 377.035156 567.058594 363.328125 575.902344 351.609375 C 587.621094 335.914062 601.546875 322.429688 614.8125 308.058594 L 615.476562 307.175781 L 616.359375 307.835938 C 617.246094 308.5 618.128906 308.941406 619.015625 309.605469 L 619.675781 310.046875 Z M 132.414062 760.601562 C 143.023438 751.316406 153.636719 741.808594 164.25 732.523438 L 166.902344 730.3125 L 166.460938 733.847656 C 164.46875 748.660156 162.480469 763.253906 160.488281 778.066406 L 160.269531 780.054688 L 158.5 778.949219 C 149.878906 773.644531 141.257812 768.335938 132.632812 762.808594 L 131.085938 761.925781 Z M 215.539062 756.839844 C 218.414062 737.386719 226.59375 717.488281 238.089844 701.574219 C 246.710938 689.414062 260.199219 675.929688 275.453125 673.273438 L 277 673.054688 L 277 674.601562 C 277.882812 691.402344 274.789062 706.4375 262.410156 718.59375 C 248.039062 732.964844 234.773438 747.335938 217.527344 758.390625 L 215.097656 759.9375 Z M 184.367188 565.167969 C 186.578125 577.550781 184.589844 587.941406 181.273438 599.878906 C 179.0625 608.058594 175.964844 617.121094 171.324219 624.195312 C 156.953125 645.640625 141.699219 666.421875 126.664062 687.203125 C 124.675781 690.078125 122.023438 691.84375 119.367188 694.054688 C 118.261719 694.941406 116.496094 694.277344 115.390625 694.277344 L 114.0625 694.277344 L 114.0625 692.949219 C 114.945312 680.792969 118.925781 669.738281 123.789062 658.683594 C 128.875 647.1875 135.066406 636.355469 141.699219 625.523438 C 152.972656 606.953125 164.910156 589.046875 176.628906 570.695312 C 177.957031 568.484375 180.386719 566.496094 182.15625 564.285156 L 183.925781 562.296875 Z M 271.03125 601.648438 C 253.566406 612.921875 236.101562 624.195312 218.855469 635.691406 L 217.308594 636.796875 L 216.867188 635.027344 C 215.320312 628.617188 218.191406 623.3125 219.296875 617.121094 C 221.289062 606.730469 223.941406 596.5625 225.710938 586.171875 C 229.6875 560.746094 226.59375 535.988281 216.644531 512.332031 C 213.109375 504.152344 211.117188 497.742188 217.308594 489.78125 L 218.191406 488.675781 L 219.296875 489.5625 C 237.867188 505.921875 252.460938 534.21875 260.859375 556.988281 C 265.945312 570.917969 269.925781 585.730469 271.914062 600.542969 L 271.914062 601.425781 Z M 204.042969 767.675781 C 194.316406 773.199219 183.925781 778.066406 172.429688 777.621094 L 171.101562 777.621094 L 171.101562 776.296875 C 171.101562 772.980469 171.324219 769.441406 171.324219 766.125 C 173.089844 736.058594 181.933594 705.773438 197.410156 679.90625 C 211.78125 655.589844 232.339844 634.585938 258.429688 622.871094 C 263.292969 620.660156 268.15625 618.890625 273.242188 617.5625 L 274.789062 617.121094 L 275.011719 618.667969 C 276.335938 630.828125 277.664062 642.988281 278.988281 655.148438 L 278.988281 656.253906 L 278.105469 656.695312 C 230.792969 674.824219 213.109375 720.144531 204.707031 766.789062 L 204.707031 767.453125 Z M 112.074219 714.617188 C 120.253906 707.097656 130.203125 699.804688 137.054688 690.960938 C 150.320312 674.160156 163.144531 656.914062 174.417969 638.789062 C 190.777344 612.257812 197.410156 583.738281 191.664062 552.789062 C 191 549.695312 191.21875 545.714844 192.324219 542.839844 C 196.085938 534.21875 200.507812 525.597656 204.484375 517.195312 L 205.589844 514.765625 L 206.695312 516.972656 C 218.414062 539.746094 220.625 563.621094 215.980469 588.601562 C 210.898438 616.457031 203.378906 643.871094 191.882812 669.738281 C 179.503906 697.371094 162.039062 721.25 139.265625 741.144531 C 135.507812 744.460938 129.316406 749.546875 124.011719 748 C 117.601562 746.230469 114.945312 734.953125 113.621094 729.429688 C 112.515625 724.785156 112.292969 720.144531 111.632812 715.5 L 111.632812 714.835938 Z M 112.074219 714.617188 " fill-opacity="1" fill-rule="evenodd"/><path fill="#f7e7a8" d="M 514.882812 152.421875 C 514.222656 151.535156 513.558594 150.875 513.335938 149.546875 C 510.019531 131.199219 514.441406 117.710938 530.582031 107.984375 C 540.972656 101.796875 549.59375 91.183594 557.773438 82.5625 C 569.492188 70.179688 577.449219 55.371094 581.652344 38.789062 C 583.640625 31.050781 587.398438 25.304688 596.242188 27.070312 C 603.097656 28.398438 610.390625 28.398438 617.246094 28.839844 L 618.792969 29.0625 L 618.570312 30.609375 C 614.59375 50.0625 605.527344 69.519531 594.917969 86.320312 C 584.527344 102.902344 571.261719 119.261719 556.449219 132.304688 C 545.835938 141.589844 530.582031 152.199219 516.210938 153.527344 L 515.328125 153.527344 Z M 76.480469 96.046875 C 82.667969 88.308594 89.082031 80.570312 95.269531 72.613281 L 95.933594 71.730469 L 96.820312 72.171875 C 107.871094 77.035156 119.589844 83.445312 131.085938 75.707031 C 142.582031 67.75 147.667969 52.9375 151.425781 40.113281 L 151.648438 39.453125 L 152.308594 39.230469 C 157.617188 37.242188 163.363281 35.03125 168.890625 33.484375 C 171.984375 32.820312 175.300781 32.15625 178.398438 33.484375 C 181.933594 35.03125 184.589844 39.230469 186.578125 42.324219 L 187.242188 43.210938 L 186.578125 43.875 C 176.40625 54.925781 165.796875 65.539062 156.289062 77.253906 C 149.878906 85.214844 144.570312 94.277344 140.59375 103.5625 C 137.496094 110.859375 133.074219 114.175781 125.339844 115.058594 C 107.652344 116.605469 91.953125 106.4375 77.363281 97.816406 L 76.035156 97.152344 Z M 138.824219 45.640625 C 136.613281 52.273438 133.074219 63.105469 126 66.203125 C 120.472656 68.855469 112.957031 66.867188 107.210938 65.097656 L 105.21875 64.433594 L 106.546875 62.886719 C 115.609375 53.160156 125.117188 48.738281 136.835938 43.875 L 139.488281 42.769531 Z M 96.15625 205.257812 C 79.132812 216.976562 61.886719 228.914062 44.863281 240.628906 L 43.539062 241.515625 L 42.875 239.96875 C 40.441406 234.21875 39.335938 228.25 38.671875 221.839844 C 38.230469 216.535156 38.230469 211.007812 38.011719 205.699219 L 38.011719 204.816406 L 38.671875 204.375 C 55.695312 193.761719 78.246094 193.542969 95.933594 202.828125 L 97.921875 203.933594 Z M 128.433594 179.394531 C 125.558594 181.160156 122.464844 182.488281 120.03125 184.917969 C 112.957031 192.4375 105.660156 193.320312 96.375 189.121094 C 85.101562 184.035156 72.941406 183.371094 61.003906 186.023438 C 54.371094 187.574219 47.738281 188.234375 41.105469 189.339844 L 39.335938 189.5625 L 39.558594 187.792969 C 40.664062 178.949219 41.988281 169.886719 43.09375 161.042969 L 43.316406 159.71875 L 44.644531 159.9375 C 57.90625 161.707031 71.613281 164.800781 85.101562 164.800781 C 98.808594 164.582031 112.515625 160.820312 126 158.832031 L 127.328125 158.613281 L 127.546875 159.9375 C 128.210938 166.128906 128.652344 172.097656 129.316406 178.289062 L 129.316406 179.171875 Z M 168.449219 147.558594 C 169.554688 132.964844 179.503906 117.269531 189.230469 106.660156 C 195.863281 99.585938 203.820312 92.953125 212.664062 88.75 L 213.769531 88.308594 L 214.433594 89.414062 C 222.394531 104.890625 227.476562 121.25 228.363281 138.714844 L 228.363281 139.820312 L 227.257812 140.042969 C 208.242188 142.914062 189.007812 146.011719 169.996094 148.882812 L 168.449219 149.105469 Z M 130.421875 129.207031 C 131.308594 138.050781 127.769531 144.019531 119.148438 146.230469 C 106.324219 149.546875 93.28125 152.640625 80.238281 153.527344 C 70.289062 154.191406 59.234375 150.875 49.285156 149.328125 L 47.738281 149.105469 L 48.179688 147.777344 C 52.160156 131.863281 59.898438 121.25 68.078125 107.765625 L 68.742188 106.660156 L 69.847656 107.101562 C 79.351562 111.742188 88.859375 117.492188 99.027344 121.25 C 108.757812 124.785156 119.367188 125.890625 129.539062 128.101562 L 130.421875 128.324219 Z M 207.359375 76.371094 C 202.496094 80.570312 197.632812 84.550781 192.988281 88.75 C 175.523438 104.667969 163.585938 123.679688 158.5 147.117188 C 156.070312 158.613281 150.761719 165.023438 139.046875 167.453125 L 137.496094 167.675781 L 137.496094 166.128906 C 136.835938 145.566406 139.707031 125.890625 148.332031 107.101562 C 156.289062 90.300781 167.34375 75.488281 181.273438 62.886719 C 184.144531 60.234375 189.671875 55.148438 193.875 55.8125 C 198.515625 56.476562 202.273438 64.210938 204.265625 67.96875 C 205.371094 70.179688 206.476562 72.390625 207.582031 74.824219 L 208.023438 75.707031 Z M 409.871094 109.753906 C 422.691406 125.671875 429.546875 140.261719 431.09375 161.042969 L 431.316406 162.589844 L 429.769531 162.371094 C 412.964844 160.378906 398.375 167.011719 382.015625 157.726562 L 380.910156 157.0625 L 381.570312 155.957031 C 390.414062 140.703125 399.039062 125.230469 407.878906 109.976562 L 408.765625 108.207031 Z M 477.078125 160.601562 C 465.140625 160.601562 453.421875 160.820312 441.484375 160.820312 L 440.378906 160.820312 L 440.160156 159.71875 C 437.949219 138.492188 430.429688 120.585938 417.386719 104.007812 C 413.40625 98.921875 413.40625 94.058594 415.617188 88.308594 C 418.492188 81.234375 421.144531 74.160156 423.796875 67.085938 L 424.242188 66.203125 L 425.125 66.203125 C 435.738281 66.863281 445.464844 77.917969 451.210938 85.878906 C 460.054688 98.257812 467.128906 113.734375 471.773438 128.324219 C 475.089844 138.273438 477.300781 148.882812 478.40625 159.273438 L 478.628906 160.601562 Z M 502.726562 160.601562 C 498.746094 160.820312 494.546875 160.820312 490.566406 161.042969 L 489.460938 161.042969 L 489.238281 159.9375 C 480.617188 119.480469 467.128906 75.265625 429.324219 53.160156 L 428.441406 52.714844 L 428.664062 51.832031 C 430.210938 44.535156 431.757812 37.242188 433.304688 29.945312 L 433.527344 29.0625 L 434.410156 28.839844 C 447.011719 25.746094 456.519531 24.640625 465.582031 35.695312 C 472.878906 44.316406 479.289062 53.820312 484.597656 63.769531 C 500.292969 93.394531 505.15625 125.890625 504.050781 159.054688 L 504.050781 160.378906 Z M 530.800781 28.398438 C 523.726562 46.527344 514.222656 60.234375 502.726562 75.488281 L 501.398438 77.253906 L 500.515625 75.265625 C 492.996094 59.789062 485.480469 44.316406 477.964844 29.0625 L 477.078125 27.292969 L 479.070312 27.292969 C 495.871094 27.070312 512.671875 26.851562 529.695312 26.628906 L 531.6875 26.628906 Z M 510.242188 109.53125 C 508.253906 102.902344 506.261719 96.269531 504.273438 89.855469 L 504.050781 89.195312 L 504.492188 88.75 C 511.347656 79.246094 518.644531 70.179688 524.613281 60.234375 C 531.246094 49.621094 536.550781 37.90625 542.296875 26.851562 L 542.742188 26.1875 L 543.625 26.1875 C 553.574219 26.1875 563.742188 25.964844 573.691406 25.964844 L 575.238281 25.964844 L 574.796875 27.515625 C 568.609375 54.042969 556.003906 72.835938 535.886719 90.960938 C 528.371094 97.816406 520.191406 104.007812 512.230469 110.417969 L 510.683594 111.523438 Z M 510.242188 109.53125 " fill-opacity="1" fill-rule="evenodd"/><path fill="#f7c659" d="M 296.457031 256.105469 C 291.148438 248.589844 285.84375 241.292969 280.316406 233.777344 L 279.652344 232.894531 L 280.316406 232.230469 C 297.117188 210.121094 338.902344 186.023438 366.757812 185.363281 L 368.085938 185.363281 L 368.085938 186.6875 C 367.863281 189.78125 368.085938 193.097656 367.644531 196.195312 C 367.203125 200.617188 366.097656 205.039062 365.433594 209.457031 L 365.210938 210.34375 L 364.328125 210.5625 C 337.355469 216.535156 316.132812 236.207031 298.445312 256.328125 L 297.339844 257.652344 Z M 554.238281 739.820312 C 539.425781 730.535156 533.457031 715.941406 532.570312 698.699219 C 529.917969 650.503906 539.867188 605.40625 560.871094 562.296875 C 563.300781 557.210938 566.839844 552.566406 572.808594 552.125 C 580.546875 551.460938 588.0625 549.914062 595.578125 548.589844 L 596.464844 548.367188 L 596.90625 549.03125 C 601.769531 556.546875 601.105469 562.957031 596.242188 570.253906 C 577.449219 598.332031 567.058594 630.164062 562.859375 663.546875 C 559.765625 688.527344 558.4375 713.511719 556.226562 738.714844 L 556.003906 740.925781 Z M 585.628906 749.765625 C 574.132812 749.765625 570.375 748.660156 568.609375 736.945312 C 567.058594 726.773438 567.28125 716.382812 566.617188 706.214844 L 566.617188 704.890625 L 567.945312 704.667969 C 571.480469 704.226562 575.019531 703.785156 578.335938 703.5625 C 581.210938 703.339844 583.863281 703.5625 586.734375 703.785156 L 588.0625 703.785156 L 588.0625 705.109375 C 587.621094 719.480469 587.398438 734.070312 586.957031 748.441406 L 586.957031 749.765625 Z M 622.550781 689.855469 C 621.667969 708.648438 620.5625 726.996094 615.917969 745.34375 L 615.699219 746.230469 L 614.8125 746.449219 C 608.84375 747.554688 603.097656 748.660156 597.128906 749.765625 L 595.578125 749.988281 L 595.578125 748.441406 C 595.800781 732.746094 595.800781 716.828125 596.023438 701.128906 L 596.023438 700.246094 L 596.683594 699.804688 C 604.644531 696.046875 612.601562 692.289062 620.5625 688.527344 L 622.550781 687.644531 Z M 492.777344 601.648438 C 488.796875 575.339844 487.914062 549.914062 488.796875 523.386719 L 488.796875 520.953125 L 490.785156 522.28125 C 499.851562 528.691406 508.914062 534.882812 517.980469 541.292969 L 518.863281 541.957031 L 518.421875 542.839844 C 510.683594 562.515625 502.945312 582.191406 495.207031 602.089844 L 493.441406 606.730469 Z M 726.019531 629.722656 C 722.480469 615.351562 718.722656 600.761719 715.40625 586.390625 C 714.742188 583.519531 714.523438 579.097656 715.847656 576.664062 C 722.039062 564.726562 728.890625 553.230469 735.523438 541.515625 L 736.410156 539.964844 L 737.515625 541.292969 C 745.03125 550.355469 746.800781 559.863281 745.914062 571.136719 C 744.148438 592.140625 736.628906 610.710938 728.230469 629.945312 L 726.679688 633.480469 Z M 602.210938 580.644531 C 611.496094 595.457031 621.003906 610.488281 630.289062 625.300781 L 630.953125 626.1875 L 630.066406 626.847656 C 614.8125 640.996094 597.789062 650.503906 576.34375 650.28125 L 574.796875 650.28125 L 575.019531 648.734375 C 578.335938 623.53125 587.621094 602.75 599.78125 580.644531 L 600.886719 578.65625 Z M 670.746094 654.042969 C 671.632812 674.378906 668.980469 693.835938 664.558594 713.730469 C 664.113281 716.164062 662.347656 719.039062 660.136719 720.585938 C 649.964844 727.660156 639.574219 734.292969 629.183594 741.144531 L 626.972656 742.691406 L 627.195312 740.039062 C 628.519531 722.132812 629.847656 704.226562 631.171875 686.320312 C 631.394531 684.328125 632.722656 681.675781 634.488281 680.570312 C 645.765625 671.285156 657.261719 662.441406 668.757812 653.378906 L 670.746094 651.832031 Z M 569.050781 690.078125 C 570.15625 681.453125 571.261719 672.613281 572.585938 663.988281 L 572.808594 663.105469 L 573.691406 662.882812 C 581.871094 661.558594 590.714844 661.558594 598.453125 658.242188 C 610.835938 652.714844 622.773438 645.863281 633.605469 637.683594 C 640.460938 632.375 647.3125 627.511719 656.597656 628.398438 C 660.136719 628.839844 664.335938 627.292969 667.652344 626.847656 L 669.863281 626.628906 L 669.199219 628.617188 C 663.230469 645.417969 642.671875 662 628.078125 671.507812 C 613.488281 681.011719 588.285156 693.835938 570.597656 691.625 L 569.269531 691.402344 Z M 678.042969 701.128906 C 678.042969 681.011719 676.9375 660.671875 678.707031 640.554688 C 679.589844 631.050781 684.898438 621.765625 689.761719 613.585938 C 693.960938 606.511719 700.152344 601.425781 705.679688 595.457031 L 707.003906 594.128906 L 707.890625 595.898438 C 712.53125 604.960938 714.964844 615.132812 715.628906 625.300781 C 716.953125 641.882812 713.636719 660.671875 703.910156 674.378906 C 696.835938 684.550781 689.539062 694.054688 680.03125 702.234375 L 677.820312 704.003906 Z M 553.351562 552.347656 C 545.835938 574.894531 536.550781 597.003906 531.246094 620.21875 C 525.71875 643.871094 524.390625 668.410156 521.074219 692.507812 L 520.632812 695.160156 L 518.863281 693.394531 C 512.671875 687.203125 510.242188 676.589844 506.703125 668.632812 C 498.304688 649.179688 498.082031 629.28125 503.609375 609.164062 C 509.578125 587.496094 517.539062 566.714844 527.484375 546.597656 L 527.929688 545.714844 L 528.8125 545.9375 C 536.550781 547.484375 544.507812 549.25 552.246094 550.800781 L 553.574219 551.019531 Z M 334.703125 474.085938 C 330.058594 503.710938 325.417969 533.113281 320.773438 562.738281 L 320.109375 566.496094 L 318.34375 562.957031 C 317.015625 560.527344 315.027344 557.429688 314.140625 555 C 309.5 540.851562 305.296875 526.261719 299.992188 512.109375 C 297.5625 505.257812 297.339844 499.730469 301.539062 493.539062 C 309.5 481.824219 318.785156 473.863281 333.375 472.539062 L 335.144531 472.316406 Z M 340.894531 425.449219 C 339.34375 436.722656 337.796875 448 336.472656 459.273438 L 336.25 460.378906 L 335.144531 460.378906 C 316.351562 461.484375 302.867188 473.644531 293.582031 489.339844 L 292.917969 490.445312 L 291.8125 490.003906 C 290.929688 489.5625 288.9375 488.898438 288.496094 488.234375 C 275.671875 470.105469 276.117188 462.589844 288.9375 444.683594 C 301.761719 426.554688 318.34375 422.132812 339.566406 424.121094 L 340.894531 424.34375 Z M 347.304688 380.570312 C 345.976562 390.519531 344.652344 400.46875 343.324219 410.417969 L 343.105469 411.742188 L 341.777344 411.742188 C 306.625 408.648438 284.296875 425.007812 271.914062 457.949219 L 271.472656 459.054688 L 270.367188 458.832031 C 269.042969 458.609375 267.492188 458.609375 266.609375 457.726562 C 262.410156 453.96875 254.890625 447.558594 254.007812 441.589844 C 253.566406 438.714844 254.449219 435.839844 255.554688 432.964844 C 257.324219 428.988281 259.753906 424.785156 261.964844 420.808594 C 270.367188 406.214844 280.316406 391.625 294.464844 382.339844 C 311.488281 371.066406 328.511719 368.632812 346.640625 379.246094 L 347.304688 379.6875 Z M 267.492188 323.089844 C 275.011719 333.480469 276.117188 345.640625 278.105469 357.578125 C 280.539062 371.285156 279.652344 382.117188 269.703125 392.730469 C 261.082031 402.015625 255.335938 415.5 248.921875 426.332031 C 247.375 428.988281 245.605469 431.859375 243.839844 434.511719 L 242.953125 435.839844 L 241.847656 434.957031 C 241.183594 434.511719 240.523438 433.851562 240.078125 433.40625 L 239.417969 432.964844 L 239.636719 432.082031 C 248.039062 395.824219 256.660156 359.789062 265.0625 323.535156 L 265.726562 320.660156 Z M 288.71875 369.960938 C 288.054688 365.980469 287.171875 362 286.726562 358.019531 C 284.960938 341 280.539062 324.640625 271.695312 310.046875 C 267.9375 303.636719 266.832031 297.226562 268.15625 289.710938 C 270.589844 276.003906 272.359375 262.515625 274.347656 248.808594 L 274.789062 246.378906 L 276.558594 247.925781 C 289.601562 259.863281 297.117188 278.65625 300.878906 295.679688 C 305.742188 317.566406 305.960938 341.441406 302.867188 363.769531 L 302.867188 364.433594 L 302.203125 364.652344 C 298.222656 366.644531 294.464844 368.632812 290.484375 370.621094 L 288.9375 371.507812 Z M 348.1875 365.539062 C 337.355469 363.328125 326.523438 360.894531 315.691406 358.683594 L 314.804688 358.464844 L 314.804688 357.578125 C 312.59375 338.566406 312.816406 316.015625 325.859375 300.542969 C 333.597656 291.476562 344.429688 286.613281 355.925781 283.738281 L 357.695312 283.296875 L 357.472656 285.066406 C 354.820312 311.375 352.390625 337.902344 349.734375 364.210938 L 349.515625 365.757812 Z M 364.105469 224.933594 C 362.339844 238.199219 360.570312 251.683594 358.800781 264.949219 L 358.800781 265.613281 L 358.359375 265.832031 C 343.105469 276.445312 327.847656 287.054688 312.59375 297.667969 L 311.046875 298.773438 L 310.605469 297.003906 C 309.5 293.023438 308.613281 288.824219 307.507812 284.84375 C 306.183594 279.539062 303.089844 270.476562 304.855469 265.167969 C 306.402344 260.304688 312.152344 255.664062 315.910156 252.347656 C 325.417969 243.945312 335.808594 236.652344 346.421875 229.355469 C 350.839844 226.261719 357.472656 225.375 362.558594 223.609375 L 364.546875 222.945312 Z M 364.105469 224.933594 " fill-opacity="1" fill-rule="evenodd"/><path fill="#84d1aa" d="M 720.046875 39.007812 C 739.28125 37.90625 753.433594 45.640625 766.695312 58.90625 L 767.140625 59.347656 L 766.917969 60.011719 C 766.035156 63.769531 765.148438 67.527344 764.265625 71.285156 L 763.824219 72.613281 L 762.496094 72.171875 C 744.589844 66.203125 731.101562 55.371094 718.941406 41.21875 L 717.175781 39.230469 Z M 194.980469 32.597656 C 212.445312 23.09375 221.289062 25.523438 233.226562 41.21875 C 256.660156 72.171875 270.148438 106.4375 273.464844 145.125 C 273.683594 148 273.464844 151.09375 273.464844 153.96875 L 273.464844 155.738281 L 271.695312 155.296875 C 262.628906 152.640625 253.125 150.433594 244.28125 147.117188 C 241.40625 146.011719 238.53125 141.589844 238.089844 138.492188 C 233.226562 99.363281 216.644531 67.75 194.535156 35.914062 C 194.09375 35.25 194.09375 34.589844 193.875 33.925781 L 193.652344 33.039062 Z M 318.5625 188.234375 C 306.402344 196.636719 294.464844 205.039062 282.304688 213.21875 L 280.09375 214.765625 L 280.316406 212.113281 C 281.199219 199.953125 282.304688 187.574219 282.96875 175.414062 C 283.632812 163.695312 286.285156 152.863281 295.351562 144.90625 C 300.214844 140.703125 303.75 134.292969 307.730469 129.429688 L 308.835938 128.101562 L 309.941406 129.429688 C 323.207031 146.894531 323.207031 166.792969 319.226562 187.574219 L 319.226562 188.015625 Z M 350.398438 175.191406 C 343.988281 177.402344 337.355469 179.613281 330.945312 181.824219 L 328.953125 182.488281 L 329.175781 180.496094 C 331.609375 157.726562 327.628906 137.386719 314.140625 118.816406 L 313.699219 118.15625 L 314.140625 117.492188 C 317.015625 111.523438 319.890625 105.773438 322.765625 99.804688 L 323.425781 98.257812 L 324.753906 99.363281 C 343.988281 115.945312 355.042969 149.328125 351.285156 174.085938 L 351.0625 174.972656 Z M 361.894531 153.085938 C 357.472656 139.820312 353.050781 126.554688 348.628906 113.292969 L 348.410156 112.628906 L 349.074219 111.964844 C 372.066406 88.75 384.226562 58.023438 391.078125 26.628906 L 391.300781 25.304688 L 392.40625 25.304688 C 401.910156 25.964844 411.417969 26.410156 420.925781 27.070312 L 422.25 27.070312 L 422.25 28.398438 C 422.03125 37.683594 419.820312 47.632812 417.167969 56.695312 C 414.070312 67.75 410.089844 78.804688 405.671875 89.414062 C 399.039062 105.332031 379.804688 146.011719 363.886719 153.527344 L 362.558594 154.191406 Z M 341.777344 102.679688 C 337.796875 97.816406 334.039062 92.953125 330.058594 88.089844 L 329.617188 87.644531 L 329.839844 86.984375 C 335.367188 66.421875 340.894531 46.085938 346.640625 25.523438 L 346.863281 24.640625 L 347.96875 24.640625 C 358.578125 24.859375 368.96875 25.082031 379.582031 25.523438 L 381.128906 25.523438 L 380.910156 27.070312 C 375.382812 58.023438 366.097656 80.570312 343.988281 102.902344 L 342.882812 104.007812 Z M 282.527344 140.261719 C 280.980469 131.199219 279.433594 121.914062 277.882812 112.847656 L 277.882812 112.1875 L 278.328125 111.742188 C 287.613281 100.691406 292.917969 86.761719 296.234375 73.054688 C 299.992188 57.578125 302.644531 41.664062 305.742188 25.964844 L 305.960938 24.859375 L 307.066406 24.859375 C 313.257812 24.859375 319.449219 24.640625 325.859375 24.640625 C 328.511719 24.640625 330.722656 25.523438 333.15625 26.1875 L 334.261719 26.410156 L 334.261719 27.515625 C 334.480469 57.359375 307.289062 120.808594 284.960938 140.925781 L 283.191406 142.472656 Z M 238.3125 25.082031 C 256.660156 24.859375 275.011719 24.417969 293.359375 24.199219 L 294.6875 24.199219 L 294.6875 25.523438 C 295.570312 51.390625 288.496094 72.835938 277.664062 95.605469 L 276.558594 97.816406 L 275.230469 95.605469 C 262.410156 72.835938 249.808594 49.84375 236.984375 27.070312 L 235.878906 25.082031 C 236.101562 25.082031 238.3125 25.082031 238.3125 25.082031 Z M 617.6875 71.507812 C 631.617188 97.375 649.082031 120.367188 668.980469 142.03125 C 687.109375 161.707031 708.996094 175.191406 735.304688 180.496094 L 736.410156 180.71875 L 736.1875 181.824219 C 735.304688 188.679688 733.976562 199.730469 728.007812 204.375 C 723.808594 207.691406 716.953125 207.691406 711.648438 207.910156 C 690.421875 208.574219 673.621094 198.183594 660.136719 182.488281 C 646.871094 167.234375 634.488281 151.09375 622.332031 134.957031 C 618.128906 129.429688 615.035156 122.578125 612.160156 116.164062 C 601.769531 93.394531 602.433594 92.730469 615.253906 71.285156 L 616.359375 69.296875 Z M 752.105469 123.679688 C 748.789062 138.050781 745.472656 152.640625 742.15625 167.011719 L 741.9375 168.339844 L 740.609375 168.117188 C 732.871094 166.570312 724.25 166.347656 717.175781 162.8125 C 704.351562 155.957031 691.308594 149.328125 681.136719 138.714844 C 663.894531 120.808594 649.082031 100.246094 633.605469 80.792969 C 620.78125 64.65625 620.78125 47.851562 631.171875 30.386719 L 631.617188 29.722656 L 632.5 29.722656 C 637.144531 30.167969 641.785156 29.722656 646.429688 31.050781 C 649.964844 32.15625 653.503906 34.808594 655.273438 37.90625 C 677.160156 75.046875 707.003906 104.007812 747.90625 119.039062 C 749.011719 119.480469 751 121.691406 751.882812 122.355469 L 752.546875 122.796875 Z M 755.199219 106.214844 C 737.957031 107.101562 712.3125 88.53125 699.929688 77.917969 C 687.328125 67.085938 670.746094 49.621094 665.664062 33.703125 L 665 31.933594 L 666.988281 32.15625 C 677.160156 33.039062 687.550781 33.703125 697.71875 34.808594 C 700.59375 35.03125 703.6875 36.578125 705.234375 39.007812 C 718.722656 59.347656 736.410156 72.613281 757.855469 83.667969 C 758.515625 84.109375 759.84375 85.878906 760.507812 86.539062 L 760.949219 86.984375 L 760.726562 87.644531 C 759.179688 93.617188 757.632812 99.585938 756.085938 105.554688 L 755.863281 106.4375 Z M 755.199219 106.214844 " fill-opacity="1" fill-rule="evenodd"/><g clip-path="url(#6eecdb130e)"><path fill="#000000" d="M 137.71875 45.199219 C 126.445312 50.0625 116.9375 54.265625 107.871094 63.992188 C 125.78125 69.296875 130.421875 66.203125 137.71875 45.199219 Z M 605.96875 369.738281 C 597.347656 375.488281 590.714844 380.351562 590.496094 390.960938 C 590.273438 398.035156 594.917969 402.898438 601.328125 405.332031 C 602.652344 394.058594 604.203125 383.445312 605.96875 369.738281 Z M 765.8125 59.789062 C 752.769531 46.746094 739.0625 39.230469 720.046875 40.335938 C 733.535156 56.03125 746.800781 65.539062 763.160156 71.066406 C 764.265625 66.203125 765.148438 62.886719 765.8125 59.789062 Z M 164.910156 733.40625 C 154.300781 742.914062 144.792969 751.316406 133.074219 761.484375 C 142.582031 767.453125 150.097656 772.09375 158.941406 777.621094 C 161.152344 762.148438 162.921875 749.105469 164.910156 733.40625 Z M 634.488281 229.355469 C 636.039062 227.808594 636.921875 227.367188 637.144531 226.480469 C 637.585938 224.933594 637.804688 223.386719 637.804688 221.839844 C 638.25 204.152344 640.015625 202.164062 654.167969 203.488281 C 656.15625 203.710938 658.367188 202.828125 662.125 202.164062 C 655.492188 195.089844 650.40625 189.5625 645.324219 184.257812 C 641.121094 179.835938 637.585938 181.382812 634.488281 186.246094 C 626.53125 198.183594 626.308594 214.542969 634.488281 229.355469 Z M 585.628906 748.441406 C 585.851562 734.292969 586.292969 720.144531 586.734375 705.109375 C 583.421875 705.109375 580.765625 704.890625 578.335938 704.890625 C 575.460938 705.109375 572.585938 705.550781 567.945312 705.992188 C 568.609375 716.828125 568.386719 726.996094 569.933594 736.503906 C 571.261719 747.113281 573.914062 748.441406 585.628906 748.441406 Z M 597.347656 701.128906 C 597.128906 716.828125 597.128906 732.082031 596.90625 748.441406 C 603.757812 747.113281 609.066406 746.007812 614.59375 745.125 C 619.234375 727.21875 620.339844 709.972656 621.226562 689.855469 C 612.160156 694.054688 605.308594 697.371094 597.347656 701.128906 Z M 490.125 523.386719 C 489.238281 550.136719 489.902344 574.453125 494.101562 601.425781 C 502.503906 579.980469 509.800781 561.410156 517.316406 542.175781 C 508.253906 535.765625 500.070312 530.238281 490.125 523.386719 Z M 95.492188 204.152344 C 77.585938 194.648438 55.476562 195.753906 39.558594 205.699219 C 40.222656 216.089844 39.117188 227.144531 44.199219 239.523438 C 61.003906 227.808594 77.140625 216.753906 95.492188 204.152344 Z M 529.695312 27.734375 C 510.464844 27.957031 493.660156 28.175781 479.070312 28.398438 C 486.363281 43.429688 493.660156 58.242188 501.621094 74.601562 C 512.453125 60.453125 522.179688 47.191406 529.695312 27.734375 Z M 429.546875 161.042969 C 427.777344 138.714844 419.820312 124.34375 408.765625 110.417969 C 399.921875 125.671875 391.742188 140.261719 382.457031 156.402344 C 398.152344 165.464844 413.40625 159.054688 429.546875 161.042969 Z M 727.34375 629.503906 C 735.746094 609.828125 743.261719 591.917969 744.808594 571.136719 C 745.695312 560.746094 744.367188 551.242188 736.628906 542.175781 C 729.554688 554.777344 722.921875 565.832031 716.953125 577.328125 C 715.847656 579.539062 716.070312 583.519531 716.511719 586.171875 C 719.828125 599.878906 723.363281 613.363281 727.34375 629.503906 Z M 349.957031 173.867188 C 353.714844 148.664062 342.21875 115.945312 323.871094 100.246094 C 320.996094 105.996094 318.34375 111.523438 315.246094 117.933594 C 327.628906 135.398438 333.15625 155.515625 330.503906 180.71875 C 337.578125 178.066406 343.546875 176.078125 349.957031 173.867188 Z M 240.964844 432.304688 C 241.628906 432.746094 242.289062 433.40625 242.734375 433.851562 C 244.5 431.199219 246.046875 428.542969 247.816406 425.671875 C 254.671875 414.175781 260.417969 400.6875 268.820312 391.847656 C 278.328125 381.675781 279.210938 371.066406 276.777344 357.800781 C 274.789062 346.082031 273.464844 333.925781 266.386719 323.753906 C 257.765625 360.675781 249.363281 396.488281 240.964844 432.304688 Z M 532.351562 189.5625 C 550.921875 191.332031 570.816406 187.128906 581.429688 179.394531 C 575.238281 167.011719 569.269531 154.632812 563.082031 142.25 C 553.351562 149.105469 544.507812 155.296875 536.109375 161.265625 C 535.003906 170.992188 533.675781 179.835938 532.351562 189.5625 Z M 333.375 473.863281 C 319.003906 475.191406 310.164062 483.148438 302.425781 494.425781 C 298.667969 500.171875 298.445312 505.035156 301.097656 511.890625 C 306.183594 525.816406 310.382812 540.410156 315.246094 554.777344 C 315.910156 556.769531 317.238281 558.535156 319.449219 562.738281 C 324.3125 531.785156 328.511719 504.375 333.375 473.863281 Z M 596.242188 105.773438 C 587.839844 115.722656 580.324219 124.566406 572.585938 133.628906 C 578.554688 149.769531 584.96875 163.695312 595.359375 176.960938 C 602.875 166.792969 609.730469 157.507812 616.582031 148 C 610.171875 134.515625 603.539062 121.027344 596.242188 105.773438 Z M 591.601562 195.308594 C 570.597656 199.066406 550.699219 202.828125 529.695312 206.585938 C 528.371094 216.753906 526.824219 228.472656 525.054688 241.292969 C 546.277344 237.535156 564.847656 229.355469 582.316406 217.417969 C 589.609375 212.332031 592.925781 205.699219 591.601562 195.308594 Z M 576.34375 649.179688 C 597.789062 649.398438 614.371094 639.890625 629.183594 626.1875 C 619.457031 610.933594 610.613281 596.5625 601.105469 581.527344 C 589.832031 601.425781 579.882812 622.425781 576.34375 649.179688 Z M 631.171875 168.558594 C 623.878906 159.496094 623.214844 159.496094 617.6875 165.90625 C 600.441406 186.46875 595.578125 229.796875 607.960938 255.441406 C 611.941406 263.84375 616.804688 272.023438 626.089844 274.011719 C 628.078125 264.949219 630.066406 256.769531 631.835938 249.253906 C 615.253906 225.15625 609.730469 205.699219 631.171875 168.558594 Z M 216.867188 757.0625 C 234.550781 746.007812 247.597656 731.195312 261.523438 717.488281 C 273.019531 705.992188 276.558594 691.84375 275.671875 674.601562 C 250.46875 679.023438 223.054688 716.605469 216.867188 757.0625 Z M 40.882812 188.015625 C 48.402344 186.6875 54.589844 186.023438 60.78125 184.699219 C 73.164062 181.824219 85.542969 182.707031 97.039062 187.792969 C 105.660156 191.773438 112.292969 191.109375 119.148438 184.035156 C 121.578125 181.382812 125.117188 180.054688 127.769531 178.289062 C 127.105469 170.550781 126.445312 164.800781 126 159.9375 C 111.632812 162.148438 98.367188 165.6875 85.101562 165.90625 C 71.835938 166.128906 58.570312 162.8125 44.421875 161.042969 C 43.09375 170.328125 42.210938 178.066406 40.882812 188.015625 Z M 317.679688 187.128906 C 321.660156 165.90625 321.214844 146.894531 308.613281 130.09375 C 304.414062 135.621094 300.65625 141.808594 296.011719 145.789062 C 287.613281 153.085938 284.738281 163.253906 284.074219 175.414062 C 283.410156 187.128906 282.304688 198.847656 281.421875 212.113281 C 294.6875 203.046875 306.183594 195.308594 317.679688 187.128906 Z M 227.035156 138.9375 C 226.152344 121.472656 221.066406 105.109375 213.328125 90.078125 C 191.21875 100.691406 171.324219 127.660156 169.777344 147.777344 C 188.125 144.90625 206.695312 142.03125 227.035156 138.9375 Z M 669.421875 654.042969 C 657.039062 663.769531 645.984375 672.390625 635.152344 681.234375 C 633.828125 682.339844 632.5 684.328125 632.277344 686.097656 C 630.953125 702.679688 629.625 719.257812 628.300781 739.820312 C 640.238281 732.082031 649.964844 725.890625 659.25 719.257812 C 661.019531 718.152344 662.566406 715.5 663.007812 713.289062 C 667.210938 694.5 670.304688 675.484375 669.421875 654.042969 Z M 342.882812 101.796875 C 362.558594 81.675781 373.171875 60.894531 379.359375 26.628906 C 368.308594 26.410156 357.695312 26.1875 347.746094 25.746094 C 342 47.191406 336.472656 66.867188 330.945312 87.203125 C 334.703125 91.625 338.460938 96.488281 342.882812 101.796875 Z M 129.097656 129.429688 C 118.261719 127.21875 108.09375 126.113281 98.367188 122.578125 C 88.417969 119.039062 78.910156 113.292969 69.183594 108.425781 C 61.222656 121.25 53.484375 131.863281 49.285156 148.222656 C 60.78125 149.988281 70.289062 153.085938 79.796875 152.421875 C 92.839844 151.535156 105.660156 148.441406 118.484375 145.125 C 124.453125 143.578125 130.203125 139.820312 129.097656 129.429688 Z M 238.3125 26.410156 C 251.796875 50.726562 263.957031 72.390625 276.558594 94.941406 C 286.507812 73.941406 294.464844 52.496094 293.359375 25.304688 C 274.566406 25.746094 257.101562 25.964844 238.3125 26.410156 Z M 292.476562 488.675781 C 303.089844 470.550781 317.457031 460.160156 334.921875 459.054688 C 336.472656 447.335938 337.796875 436.945312 339.34375 425.226562 C 319.890625 423.238281 303.089844 426.554688 289.824219 445.125 C 277.222656 462.8125 277 469.664062 289.378906 487.128906 C 290.042969 487.570312 290.484375 487.792969 292.476562 488.675781 Z M 362.78125 224.714844 C 356.148438 226.921875 351.0625 227.585938 346.863281 230.460938 C 336.472656 237.535156 326.082031 244.609375 316.351562 253.230469 C 303.089844 264.949219 303.53125 265.390625 308.394531 284.402344 C 309.5 288.824219 310.605469 293.46875 311.488281 296.5625 C 326.742188 285.949219 341.777344 275.558594 357.253906 264.726562 C 359.023438 253.230469 360.789062 240.410156 362.78125 224.714844 Z M 297.339844 255.441406 C 317.238281 233.113281 338.019531 214.984375 364.105469 209.238281 C 364.992188 204.152344 365.875 200.171875 366.316406 195.972656 C 366.757812 192.878906 366.539062 189.78125 366.757812 186.6875 C 340.894531 187.351562 299.109375 210.121094 281.421875 233.113281 C 286.285156 239.96875 291.371094 247.042969 297.339844 255.441406 Z M 570.15625 690.078125 C 598.675781 693.613281 657.261719 656.253906 667.429688 627.953125 C 663.453125 628.617188 659.691406 629.945312 655.933594 629.503906 C 647.535156 628.617188 641.121094 633.039062 634.046875 638.34375 C 622.992188 646.746094 610.835938 653.597656 598.675781 659.125 C 590.9375 662.664062 582.09375 662.441406 573.691406 663.769531 C 572.585938 672.832031 571.480469 681.453125 570.15625 690.078125 Z M 511.566406 109.089844 C 537.878906 88.089844 563.964844 69.296875 573.691406 26.851562 C 561.753906 26.851562 551.804688 27.070312 543.625 27.070312 C 536.992188 39.671875 531.90625 50.503906 525.71875 60.675781 C 519.527344 70.625 512.453125 79.6875 505.597656 89.414062 C 507.589844 95.605469 509.136719 101.351562 511.566406 109.089844 Z M 348.410156 364.210938 C 351.0625 336.796875 353.496094 311.152344 356.148438 285.066406 C 323.207031 293.023438 311.269531 315.574219 316.132812 357.359375 C 326.082031 359.347656 336.027344 361.558594 348.410156 364.210938 Z M 679.371094 701.128906 C 688.875 692.949219 695.949219 683.445312 703.023438 673.496094 C 716.953125 653.597656 718.722656 620.21875 706.785156 596.339844 C 701.476562 602.308594 695.289062 607.394531 691.085938 614.246094 C 686.445312 622.207031 681.136719 631.492188 680.253906 640.554688 C 678.265625 660.011719 679.371094 679.6875 679.371094 701.128906 Z M 183.261719 565.390625 C 180.828125 568.265625 179.0625 569.589844 177.957031 571.582031 C 166.238281 589.707031 154.300781 607.835938 143.023438 626.40625 C 136.613281 637.019531 130.421875 647.851562 125.117188 659.347656 C 120.472656 669.738281 116.273438 680.570312 115.390625 692.949219 C 116.9375 692.949219 118.042969 693.394531 118.707031 692.949219 C 121.136719 690.960938 124.011719 689.191406 125.78125 686.539062 C 140.8125 665.757812 156.070312 644.976562 170.4375 623.53125 C 174.859375 616.902344 177.957031 608.058594 180.167969 599.4375 C 183.039062 589.265625 185.695312 578.433594 183.261719 565.390625 Z M 206.476562 75.265625 C 204.925781 72.171875 204.265625 70.402344 203.160156 68.632812 C 195.421875 54.484375 193.429688 53.820312 181.933594 63.992188 C 168.671875 75.707031 157.394531 90.300781 149.214844 107.984375 C 141.035156 125.671875 137.71875 145.125 138.601562 166.347656 C 148.550781 164.136719 154.300781 159.054688 156.953125 146.894531 C 162.480469 121.914062 175.300781 102.902344 191.882812 87.644531 C 196.527344 83.667969 200.949219 79.910156 206.476562 75.265625 Z M 301.761719 363.546875 C 308.394531 315.796875 298.222656 269.589844 275.671875 248.808594 C 273.464844 262.960938 271.695312 276.445312 269.484375 289.710938 C 268.15625 297.003906 269.261719 302.972656 272.800781 309.164062 C 281.421875 323.535156 286.285156 339.894531 288.054688 357.578125 C 288.496094 361.117188 289.160156 364.875 290.042969 369.296875 C 294.464844 367.308594 298.222656 365.316406 301.761719 363.546875 Z M 306.847656 26.1875 C 303.308594 43.429688 300.878906 58.683594 297.339844 73.277344 C 293.800781 88.089844 288.054688 101.796875 279.210938 112.40625 C 280.757812 121.691406 282.304688 130.535156 283.855469 139.820312 C 305.742188 120.144531 332.933594 57.136719 332.714844 27.292969 C 330.503906 26.851562 328.070312 25.964844 325.636719 25.964844 C 319.226562 25.964844 313.035156 26.1875 306.847656 26.1875 Z M 666.988281 33.261719 C 676.273438 62.445312 730.21875 106.214844 755.199219 104.890625 C 756.75 98.921875 758.296875 92.511719 759.84375 86.984375 C 758.296875 85.214844 757.855469 84.773438 757.632812 84.550781 C 737.292969 74.382812 718.722656 61.339844 704.351562 39.453125 C 703.023438 37.242188 700.152344 36.136719 697.71875 35.695312 C 687.550781 34.808594 677.601562 34.144531 666.988281 33.261719 Z M 77.363281 96.710938 C 93.503906 106.214844 107.871094 115.28125 124.675781 113.734375 C 130.863281 113.070312 135.507812 110.859375 138.824219 103.121094 C 143.023438 93.394531 148.550781 84.332031 154.742188 76.59375 C 164.25 64.65625 174.859375 54.265625 185.03125 43.210938 C 177.292969 31.714844 176.1875 31.714844 152.53125 40.558594 C 148.550781 54.925781 143.246094 69.074219 131.75 76.8125 C 119.8125 84.992188 108.09375 78.804688 96.15625 73.496094 C 90.1875 81.015625 84.214844 88.308594 77.363281 96.710938 Z M 476.859375 159.496094 C 472.65625 118.816406 446.570312 69.074219 424.902344 67.527344 C 422.25 74.382812 419.597656 81.675781 416.722656 88.75 C 414.511719 94.058594 414.734375 98.480469 418.273438 103.121094 C 430.429688 118.597656 439.054688 136.726562 441.265625 159.71875 C 453.644531 159.496094 464.921875 159.496094 476.859375 159.496094 Z M 494.988281 461.484375 C 494.101562 461.484375 492.996094 461.707031 492.113281 461.707031 C 491.449219 471.652344 491.007812 481.601562 490.125 491.328125 C 489.238281 501.71875 492.777344 508.132812 499.410156 513.660156 C 520.191406 531.34375 543.402344 537.753906 567.945312 538.417969 C 577.007812 538.640625 586.074219 535.988281 596.023438 534.660156 C 595.578125 527.585938 595.359375 522.5 595.136719 516.53125 C 575.238281 517.417969 556.890625 514.542969 539.644531 504.816406 C 521.960938 494.867188 505.820312 482.488281 494.988281 461.484375 Z M 528.8125 546.820312 C 518.863281 566.9375 510.90625 587.496094 504.9375 609.164062 C 499.410156 629.28125 499.851562 648.734375 508.03125 667.75 C 511.789062 676.371094 514 686.320312 519.96875 692.066406 C 523.285156 667.527344 524.832031 642.988281 530.140625 619.554688 C 535.445312 596.339844 544.507812 574.675781 552.246094 551.683594 C 544.730469 550.355469 537.214844 548.589844 528.8125 546.820312 Z M 345.976562 380.351562 C 327.847656 369.515625 311.269531 372.613281 295.128906 383.222656 C 281.644531 392.066406 271.914062 405.996094 263.070312 421.25 C 251.796875 440.925781 252.019531 441.808594 267.492188 456.398438 C 268.15625 456.84375 269.042969 456.84375 270.808594 457.0625 C 284.960938 419.703125 310.164062 407.320312 342 410.195312 C 343.324219 400.027344 344.652344 390.742188 345.976562 380.351562 Z M 502.503906 159.273438 C 504.050781 109.53125 491.890625 69.519531 464.476562 36.578125 C 455.191406 25.304688 445.023438 27.515625 434.632812 30.167969 C 432.863281 37.90625 431.535156 44.535156 429.988281 52.054688 C 466.46875 73.496094 480.839844 114.394531 490.566406 159.71875 C 494.546875 159.71875 497.859375 159.496094 502.503906 159.273438 Z M 617.910156 310.710938 C 617.023438 310.046875 616.140625 309.605469 615.253906 308.941406 C 602.210938 323.3125 588.285156 336.578125 576.566406 352.496094 C 568.386719 363.546875 561.976562 377.253906 556.449219 390.960938 C 548.710938 410.417969 553.132812 427.4375 567.058594 439.820312 C 575.460938 447.335938 584.746094 451.757812 596.023438 450.652344 C 596.683594 445.566406 597.347656 440.925781 597.789062 436.28125 C 598.234375 431.640625 598.453125 426.996094 598.453125 423.679688 C 592.925781 417.492188 588.285156 413.070312 584.304688 407.542969 C 575.902344 395.605469 575.683594 384.992188 584.523438 373.496094 C 590.050781 366.421875 597.347656 361.558594 603.539062 355.367188 C 606.414062 352.714844 609.949219 349.621094 610.835938 345.863281 C 614.148438 334.367188 615.917969 322.429688 617.910156 310.710938 Z M 590.050781 232.007812 C 566.839844 241.074219 544.507812 249.695312 520.855469 258.757812 C 516.433594 286.613281 509.359375 315.574219 507.589844 346.304688 C 532.570312 309.828125 561.3125 279.761719 594.472656 255.664062 C 592.707031 247.042969 591.378906 238.863281 590.050781 232.007812 Z M 217.972656 490.445312 C 211.78125 498.183594 214.65625 504.816406 217.527344 511.667969 C 227.476562 535.101562 231.015625 560.085938 226.816406 586.171875 C 225.046875 596.5625 222.394531 606.730469 220.402344 617.121094 C 219.296875 622.871094 216.644531 628.398438 217.972656 634.585938 C 235.878906 622.871094 253.125 611.816406 270.148438 600.542969 C 264.839844 559.863281 242.289062 511.890625 217.972656 490.445312 Z M 272.359375 153.96875 C 272.359375 149.328125 272.578125 147.335938 272.359375 145.347656 C 268.820312 104.890625 254.230469 71.066406 232.339844 42.105469 C 220.625 26.628906 212.445312 24.859375 195.640625 33.703125 C 195.640625 34.144531 195.640625 34.808594 196.085938 35.25 C 217.085938 65.316406 234.773438 97.59375 239.859375 138.492188 C 240.300781 141.367188 242.953125 145.125 245.164062 146.011719 C 253.566406 149.105469 262.1875 151.09375 272.359375 153.96875 Z M 392.183594 26.628906 C 384.445312 62.222656 371.179688 91.40625 349.734375 112.628906 C 354.601562 127.21875 358.800781 139.820312 363 152.421875 C 383.5625 142.914062 419.378906 65.761719 420.484375 28.398438 C 411.640625 27.957031 402.574219 27.292969 392.183594 26.628906 Z M 617.246094 29.945312 C 609.507812 29.28125 602.652344 29.28125 596.023438 27.957031 C 588.726562 26.628906 584.96875 30.167969 582.757812 38.789062 C 578.113281 56.476562 569.933594 71.285156 558.660156 83.226562 C 549.816406 92.511719 541.191406 102.902344 531.246094 108.871094 C 516.875 117.710938 511.125 129.871094 514.664062 149.105469 C 514.882812 149.988281 515.546875 150.652344 515.988281 151.535156 C 552.027344 148.441406 605.96875 84.332031 617.246094 29.945312 Z M 555.121094 738.714844 C 557.332031 713.289062 558.878906 688.308594 561.753906 663.546875 C 565.953125 628.398438 577.007812 596.78125 595.359375 569.589844 C 600 562.738281 600.441406 556.769531 596.023438 549.914062 C 588.285156 551.019531 580.765625 552.566406 573.25 553.453125 C 567.945312 553.894531 564.847656 557.652344 562.195312 562.957031 C 542.078125 604.742188 531.246094 649.398438 534.117188 698.699219 C 535.003906 717.710938 542.078125 730.535156 555.121094 738.714844 Z M 616.582031 72.171875 C 603.539062 93.835938 603.539062 94.058594 613.488281 115.722656 C 616.359375 122.132812 619.457031 128.988281 623.4375 134.292969 C 635.816406 150.433594 648.195312 166.570312 661.242188 181.824219 C 675.390625 198.183594 691.75 207.46875 711.867188 206.804688 C 728.449219 206.363281 732.207031 203.933594 735.082031 181.824219 C 709.878906 176.519531 687.328125 163.917969 668.09375 142.914062 C 648.859375 121.914062 630.953125 99.140625 616.582031 72.171875 Z M 203.378906 766.570312 C 213.328125 712.40625 233.890625 672.390625 277.664062 655.589844 C 276.335938 642.988281 275.011719 631.050781 273.683594 619.113281 C 213.328125 635.691406 172.871094 706.214844 172.429688 776.296875 C 183.703125 776.738281 193.875 771.875 203.378906 766.570312 Z M 112.957031 715.5 C 113.398438 719.039062 113.621094 724.34375 114.945312 729.207031 C 119.8125 748.882812 125.339844 751.757812 138.601562 740.039062 C 160.046875 721.25 177.734375 698.035156 190.777344 669.074219 C 202.054688 643.652344 209.570312 616.457031 214.875 588.382812 C 219.296875 564.507812 217.75 540.851562 205.589844 517.636719 C 200.949219 527.144531 196.96875 535.101562 193.429688 543.28125 C 192.324219 545.714844 192.324219 549.695312 192.769531 552.566406 C 198.957031 585.507812 191 614.246094 175.300781 639.671875 C 163.804688 658.242188 150.984375 675.265625 137.941406 692.066406 C 131.527344 700.246094 122.90625 706.4375 112.957031 715.5 Z M 222.835938 475.855469 C 271.03125 526.480469 288.277344 594.570312 289.601562 674.160156 C 292.253906 669.074219 293.359375 667.527344 294.023438 665.757812 C 296.011719 660.453125 298.445312 655.367188 299.992188 649.839844 C 315.027344 597.886719 315.027344 610.933594 303.53125 557.429688 C 295.351562 520.070312 279.875 487.792969 255.996094 462.589844 C 249.585938 455.957031 242.511719 450.652344 234.550781 443.578125 C 230.351562 455.515625 226.816406 465.023438 222.835938 475.855469 Z M 632.058594 31.050781 C 621.003906 49.84375 622.992188 65.539062 634.488281 79.910156 C 650.1875 99.363281 665 120.144531 682.023438 137.609375 C 692.191406 148.222656 705.457031 154.851562 717.839844 161.484375 C 724.46875 165.023438 732.429688 165.023438 740.832031 166.792969 C 744.589844 150.652344 747.683594 136.726562 750.777344 123.460938 C 748.566406 121.472656 747.90625 120.585938 747.242188 120.367188 C 708.773438 106.4375 677.820312 79.246094 653.945312 38.789062 C 652.175781 35.695312 648.859375 33.484375 645.765625 32.597656 C 641.34375 31.050781 636.480469 31.492188 632.058594 31.050781 Z M 599.558594 268.484375 C 595.136719 271.582031 590.714844 274.011719 586.957031 277.109375 C 562.859375 297.445312 540.308594 319.996094 522.621094 349.179688 C 514.222656 363.105469 507.148438 378.582031 501.839844 394.71875 C 492.996094 420.585938 500.515625 453.96875 517.757812 471.652344 C 531.6875 486.246094 548.046875 495.308594 565.511719 499.953125 C 574.796875 502.605469 584.527344 503.710938 594.472656 499.953125 C 594.917969 495.089844 595.359375 490.886719 595.359375 486.6875 C 595.578125 480.277344 595.359375 473.863281 595.578125 467.011719 C 588.726562 465.023438 582.535156 463.472656 576.566406 461.265625 C 545.613281 449.769531 533.675781 416.386719 547.382812 379.6875 C 554.898438 359.347656 565.953125 342.765625 579.441406 328.617188 C 592.261719 315.355469 604.863281 302.308594 618.128906 288.605469 C 612.160156 282.414062 606.414062 276.222656 599.558594 268.484375 Z M 655.714844 229.796875 C 652.617188 243.726562 648.859375 257.433594 646.207031 271.359375 C 636.921875 323.089844 627.195312 374.601562 619.457031 426.777344 C 613.929688 463.695312 613.265625 501.277344 616.804688 538.859375 C 617.910156 550.578125 619.675781 562.296875 622.773438 573.347656 C 631.171875 603.855469 652.839844 613.585938 674.726562 597.226562 C 680.03125 593.246094 684.898438 587.496094 689.097656 581.75 C 693.960938 575.117188 697.941406 567.378906 702.140625 560.085938 C 707.667969 550.578125 712.753906 540.628906 718.722656 531.785156 C 733.09375 510.121094 746.136719 511.226562 757.855469 535.324219 C 767.359375 554.777344 766.476562 575.78125 760.949219 595.898438 C 738.839844 674.160156 697.941406 730.3125 636.480469 762.148438 C 616.140625 772.539062 595.578125 778.949219 573.472656 774.304688 C 557.554688 770.988281 543.847656 762.367188 531.6875 748.882812 C 506.042969 719.921875 488.574219 684.769531 479.953125 642.324219 C 470.667969 596.121094 468.679688 549.25 470.226562 501.941406 C 472.878906 419.039062 485.703125 338.347656 501.175781 258.09375 C 505.597656 235.324219 509.578125 212.332031 514.222656 187.128906 C 471.109375 183.59375 429.546875 186.023438 386.878906 184.699219 C 385.550781 193.984375 384.445312 202.164062 383.5625 210.34375 C 375.601562 284.625 368.96875 359.125 359.683594 433.1875 C 352.390625 490.886719 342.441406 547.925781 332.269531 604.960938 C 328.292969 627.292969 321.660156 648.957031 314.585938 670.179688 C 302.867188 705.992188 280.980469 731.640625 257.324219 754.410156 C 244.5 766.570312 230.574219 777.402344 216.425781 786.90625 C 194.316406 801.5 170.660156 809.015625 146.5625 797.742188 C 110.082031 780.71875 82.007812 736.503906 97.261719 679.464844 C 105.660156 648.070312 119.589844 621.984375 136.613281 597.667969 C 164.46875 557.652344 186.578125 512.773438 205.589844 465.242188 C 227.476562 410.195312 242.511719 352.714844 250.027344 291.699219 C 254.007812 259.863281 258.652344 228.25 262.851562 196.636719 C 263.734375 190.445312 264.398438 184.257812 265.503906 177.183594 C 236.320312 165.6875 208.464844 159.496094 180.609375 173.421875 C 163.363281 182.046875 147.003906 193.542969 130.863281 205.257812 C 110.304688 220.070312 90.1875 236.429688 69.847656 251.464844 C 63.214844 256.328125 56.140625 260.085938 49.066406 263.179688 C 36.683594 268.265625 27.839844 262.960938 24.523438 247.042969 C 21.207031 232.230469 19.882812 217.636719 19.882812 203.269531 C 19.882812 163.253906 30.714844 128.324219 50.832031 96.929688 C 82.226562 47.632812 121.359375 16.238281 172.207031 9.828125 C 187.019531 7.839844 201.609375 4.300781 216.421875 3.859375 C 257.765625 2.089844 299.328125 0.984375 340.894531 0.984375 C 417.609375 0.984375 494.324219 0.984375 571.039062 2.3125 C 604.863281 2.972656 638.691406 5.847656 672.515625 8.722656 C 688.875 10.050781 705.234375 12.039062 721.375 14.46875 C 733.09375 16.238281 790.132812 31.273438 785.269531 52.273438 C 783.71875 58.90625 784.605469 63.328125 783.277344 69.738281 C 773.109375 113.511719 762.71875 157.285156 752.328125 200.835938 C 751.664062 203.933594 750.117188 206.585938 749.011719 209.457031 C 742.820312 223.828125 733.3125 231.789062 720.046875 231.125 C 701.917969 230.460938 683.570312 229.578125 665.441406 228.914062 C 662.347656 229.132812 659.472656 229.578125 655.714844 229.796875 Z M 655.714844 229.796875 " fill-opacity="1" fill-rule="nonzero"/></g></svg>