<svg xmlns="http://www.w3.org/2000/svg" xmlns:xlink="http://www.w3.org/1999/xlink" width="1080" zoomAndPan="magnify" viewBox="0 0 810 809.999993" height="1080" preserveAspectRatio="xMidYMid meet" version="1.0"><defs><g/></defs><g fill="#000000" fill-opacity="0.4"><g transform="translate(231.431515, 84.749585)"><g><path d="M 36.515625 -57.109375 C 36.921875 -54.203125 36.328125 -51.5 34.734375 -49 C 33.148438 -46.5 30.914062 -44.550781 28.03125 -43.15625 C 31.832031 -42.664062 35.1875 -41.003906 38.09375 -38.171875 C 41.007812 -35.335938 42.773438 -31.660156 43.390625 -27.140625 C 44.242188 -20.960938 42.40625 -15.441406 37.875 -10.578125 C 33.351562 -5.722656 27.984375 -2.867188 21.765625 -2.015625 C 15.128906 -1.109375 9.695312 -2.285156 5.46875 -5.546875 C 3.195312 -7.367188 1.863281 -9.707031 1.46875 -12.5625 C 1.082031 -15.414062 1.765625 -17.710938 3.515625 -19.453125 C 5.265625 -21.203125 6.832031 -22.171875 8.21875 -22.359375 C 10.039062 -18.585938 12.566406 -15.828125 15.796875 -14.078125 C 19.035156 -12.335938 22.140625 -11.671875 25.109375 -12.078125 C 28.078125 -12.484375 30.210938 -13.546875 31.515625 -15.265625 C 32.816406 -16.984375 33.316406 -18.945312 33.015625 -21.15625 C 32.546875 -24.53125 30.601562 -27.40625 27.1875 -29.78125 C 23.78125 -32.15625 19.488281 -32.988281 14.3125 -32.28125 C 12.6875 -32.050781 11.453125 -31.765625 10.609375 -31.421875 C 9.710938 -31.953125 9.175781 -32.835938 9 -34.078125 C 8.832031 -35.328125 9.546875 -36.710938 11.140625 -38.234375 C 12.742188 -39.765625 14.53125 -41.140625 16.5 -42.359375 C 18.46875 -43.578125 20.222656 -45.140625 21.765625 -47.046875 C 23.316406 -48.953125 23.953125 -50.90625 23.671875 -52.90625 C 23.398438 -54.914062 22.367188 -56.40625 20.578125 -57.375 C 18.785156 -58.34375 16.726562 -58.664062 14.40625 -58.34375 C 10.5 -57.8125 6.828125 -55.820312 3.390625 -52.375 C 2.535156 -52.507812 1.804688 -52.9375 1.203125 -53.65625 C 0.597656 -54.375 0.234375 -55.195312 0.109375 -56.125 C -0.242188 -58.6875 1.269531 -61.25 4.65625 -63.8125 C 8.039062 -66.375 12.21875 -67.992188 17.1875 -68.671875 C 22.164062 -69.359375 26.484375 -68.664062 30.140625 -66.59375 C 33.804688 -64.519531 35.929688 -61.359375 36.515625 -57.109375 Z M 36.515625 -57.109375 "/></g></g></g><g fill="#000000" fill-opacity="0.4"><g transform="translate(278.805045, 78.533116)"><g><path d="M 18.3125 -16.15625 C 20.601562 -16.195312 22.421875 -15.550781 23.765625 -14.21875 C 25.109375 -12.894531 25.800781 -11.085938 25.84375 -8.796875 C 25.882812 -6.515625 24.9375 -4.351562 23 -2.3125 C 21.0625 -0.28125 18.929688 0.75 16.609375 0.78125 C 14.296875 0.820312 12.453125 0.175781 11.078125 -1.15625 C 9.710938 -2.488281 9.007812 -4.296875 8.96875 -6.578125 C 8.9375 -8.867188 9.914062 -11.03125 11.90625 -13.0625 C 13.894531 -15.09375 16.03125 -16.125 18.3125 -16.15625 Z M 18.3125 -16.15625 "/></g></g></g><g fill="#000000" fill-opacity="0.4"><g transform="translate(311.159481, 77.857037)"><g><path d="M 29.90625 -53.953125 L 26.109375 -7 C 25.847656 -3.832031 26.640625 -1.671875 28.484375 -0.515625 C 26.066406 1.816406 23.28125 2.851562 20.125 2.59375 C 14.382812 2.132812 11.796875 -1.578125 12.359375 -8.546875 L 15.8125 -51.296875 C 15.957031 -53.117188 15.269531 -54.09375 13.75 -54.21875 C 12.050781 -54.351562 10.363281 -53.863281 8.6875 -52.75 C 7.4375 -53.382812 6.875 -54.460938 7 -55.984375 C 7.164062 -58.148438 8.691406 -60.128906 11.578125 -61.921875 C 14.472656 -63.722656 17.601562 -64.488281 20.96875 -64.21875 C 24.332031 -63.945312 26.71875 -62.898438 28.125 -61.078125 C 29.539062 -59.253906 30.132812 -56.878906 29.90625 -53.953125 Z M 29.90625 -53.953125 "/></g></g></g><g fill="#000000" fill-opacity="0.4"><g transform="translate(342.53775, 79.450588)"><g><path d="M 23.03125 -21.015625 L 35.6875 -18.328125 L 40.640625 -41.59375 C 40.859375 -42.632812 40.625 -43.226562 39.9375 -43.375 C 38.90625 -43.59375 36.863281 -42.476562 33.8125 -40.03125 C 30.769531 -37.59375 27.847656 -34.71875 25.046875 -31.40625 C 22.242188 -28.101562 20.648438 -25.535156 20.265625 -23.703125 C 20.109375 -22.953125 20.238281 -22.378906 20.65625 -21.984375 C 21.082031 -21.585938 21.875 -21.265625 23.03125 -21.015625 Z M 48.8125 -5.453125 L 47.171875 -5.796875 L 45.828125 0.484375 C 45.160156 3.585938 45.640625 5.820312 47.265625 7.1875 C 44.671875 9.21875 41.796875 9.894531 38.640625 9.21875 C 33.015625 8.019531 30.929688 4 32.390625 -2.84375 L 33.640625 -8.6875 L 14.171875 -12.828125 C 9.640625 -13.796875 7.765625 -16.117188 8.546875 -19.796875 C 9.460938 -24.109375 12.554688 -29.347656 17.828125 -35.515625 C 23.109375 -41.679688 28.976562 -46.894531 35.4375 -51.15625 C 41.90625 -55.425781 47.035156 -57.160156 50.828125 -56.359375 C 55.359375 -55.390625 56.890625 -51.460938 55.421875 -44.578125 L 49.21875 -15.4375 L 51.96875 -14.859375 C 54.84375 -14.242188 56.988281 -14.332031 58.40625 -15.125 C 59.207031 -13.75 59.414062 -12.15625 59.03125 -10.34375 C 58.644531 -8.53125 57.488281 -7.125 55.5625 -6.125 C 53.644531 -5.125 51.394531 -4.898438 48.8125 -5.453125 Z M 48.8125 -5.453125 "/></g></g></g><g fill="#000000" fill-opacity="0.4"><g transform="translate(395.564441, 91.257428)"><g><path d="M 42.671875 -44.515625 L 27.015625 -0.09375 C 25.960938 2.90625 26.1875 5.191406 27.6875 6.765625 C 24.738281 8.398438 21.769531 8.691406 18.78125 7.640625 C 13.351562 5.722656 11.800781 1.472656 14.125 -5.109375 L 28.390625 -45.5625 C 28.992188 -47.28125 28.578125 -48.390625 27.140625 -48.890625 C 25.523438 -49.460938 23.769531 -49.425781 21.875 -48.78125 C 20.832031 -49.707031 20.5625 -50.894531 21.0625 -52.34375 C 21.789062 -54.382812 23.773438 -55.90625 27.015625 -56.90625 C 30.265625 -57.914062 33.476562 -57.859375 36.65625 -56.734375 C 39.84375 -55.617188 41.882812 -53.992188 42.78125 -51.859375 C 43.6875 -49.734375 43.648438 -47.285156 42.671875 -44.515625 Z M 42.671875 -44.515625 "/></g></g></g><g fill="#000000" fill-opacity="0.4"><g transform="translate(425.60349, 101.130805)"><g><path d="M 31.6875 -28.15625 C 36.300781 -28.4375 40.722656 -27.53125 44.953125 -25.4375 C 49.191406 -23.34375 52.203125 -19.753906 53.984375 -14.671875 C 55.765625 -9.597656 55.3125 -4.351562 52.625 1.0625 C 49.945312 6.488281 45.382812 10.257812 38.9375 12.375 C 32.488281 14.5 26.109375 14 19.796875 10.875 C 15.378906 8.6875 12.054688 5.726562 9.828125 2 C 7.597656 -1.71875 7.359375 -5.34375 9.109375 -8.875 C 10.398438 -11.488281 12.28125 -13.039062 14.75 -13.53125 C 17.21875 -14.019531 19.347656 -13.820312 21.140625 -12.9375 C 20.648438 -9.300781 21.144531 -6.070312 22.625 -3.25 C 24.101562 -0.425781 26.1875 1.644531 28.875 2.96875 C 31.5625 4.300781 34.023438 4.722656 36.265625 4.234375 C 38.515625 3.742188 40.222656 2.3125 41.390625 -0.0625 C 43.085938 -3.488281 42.96875 -6.925781 41.03125 -10.375 C 39.09375 -13.820312 36.359375 -16.414062 32.828125 -18.15625 C 29.304688 -19.894531 25.957031 -20.863281 22.78125 -21.0625 C 21.6875 -21.613281 20.957031 -22.484375 20.59375 -23.671875 C 20.226562 -24.859375 20.34375 -26.054688 20.9375 -27.265625 C 21.539062 -28.484375 26.304688 -34.8125 35.234375 -46.25 C 38.484375 -50.40625 43.550781 -50.78125 50.4375 -47.375 L 59.6875 -42.8125 C 62.46875 -41.425781 64.78125 -40.9375 66.625 -41.34375 C 67.101562 -39.664062 66.769531 -37.664062 65.625 -35.34375 C 64.476562 -33.03125 62.625 -31.671875 60.0625 -31.265625 C 57.5 -30.867188 54.113281 -31.710938 49.90625 -33.796875 L 40.109375 -38.640625 Z M 31.6875 -28.15625 "/></g></g></g><g fill="#000000" fill-opacity="0.4"><g transform="translate(468.410756, 121.752599)"><g><path d="M 62.765625 -0.640625 C 59.234375 4.410156 54.832031 8.550781 49.5625 11.78125 C 44.300781 15.019531 38.640625 16.796875 32.578125 17.109375 C 26.515625 17.429688 21.050781 15.894531 16.1875 12.5 C 14.84375 11.5625 13.890625 10.390625 13.328125 8.984375 C 12.765625 7.585938 12.921875 6.269531 13.796875 5.03125 C 14.023438 4.6875 14.226562 4.4375 14.40625 4.28125 C 20.488281 7.582031 26.738281 8.195312 33.15625 6.125 C 39.570312 4.0625 45.066406 -0.242188 49.640625 -6.796875 C 54.210938 -13.347656 56.53125 -18.945312 56.59375 -23.59375 C 56.664062 -28.238281 55.328125 -31.519531 52.578125 -33.4375 C 50.835938 -34.644531 48.914062 -35.050781 46.8125 -34.65625 C 44.71875 -34.257812 42.984375 -33.078125 41.609375 -31.109375 C 39.554688 -28.171875 38.8125 -24.625 39.375 -20.46875 C 39.945312 -16.3125 42.21875 -12.664062 46.1875 -9.53125 C 44.5625 -7.300781 42.441406 -6.003906 39.828125 -5.640625 C 37.210938 -5.285156 34.53125 -6.066406 31.78125 -7.984375 C 29.039062 -9.898438 27.097656 -12.523438 25.953125 -15.859375 C 24.816406 -19.203125 24.535156 -22.359375 25.109375 -25.328125 C 25.679688 -28.296875 26.773438 -30.9375 28.390625 -33.25 C 32.210938 -38.726562 37.03125 -41.910156 42.84375 -42.796875 C 48.65625 -43.679688 54.160156 -42.304688 59.359375 -38.671875 C 65.617188 -34.304688 68.9375 -28.570312 69.3125 -21.46875 C 69.6875 -14.375 67.503906 -7.429688 62.765625 -0.640625 Z M 62.765625 -0.640625 "/></g></g></g><g fill="#000000" fill-opacity="0.4"><g transform="translate(511.501707, 151.733163)"><g><path d="M 41.8125 27.609375 C 37.757812 31.867188 32.289062 30.722656 25.40625 24.171875 L 8.296875 7.890625 C 5.703125 5.421875 4.515625 2.832031 4.734375 0.125 C 4.898438 -1.488281 5.5 -2.835938 6.53125 -3.921875 C 7.5625 -5.003906 8.691406 -5.898438 9.921875 -6.609375 C 22.117188 -4.171875 31.710938 -3.382812 38.703125 -4.25 C 41.597656 -4.675781 44.472656 -5.492188 47.328125 -6.703125 C 50.191406 -7.910156 52.753906 -9.703125 55.015625 -12.078125 C 57.273438 -14.460938 58.5625 -16.800781 58.875 -19.09375 C 59.195312 -21.394531 58.46875 -23.394531 56.6875 -25.09375 C 55.488281 -26.226562 54.179688 -26.710938 52.765625 -26.546875 C 51.359375 -26.390625 50.191406 -25.820312 49.265625 -24.84375 C 48.335938 -23.875 47.84375 -22.671875 47.78125 -21.234375 C 47.71875 -19.796875 48.097656 -18.359375 48.921875 -16.921875 C 45.128906 -15.585938 41.488281 -16.578125 38 -19.890625 C 35.914062 -21.867188 34.679688 -24.191406 34.296875 -26.859375 C 33.921875 -29.535156 34.765625 -31.957031 36.828125 -34.125 C 39.828125 -37.269531 43.960938 -38.421875 49.234375 -37.578125 C 54.503906 -36.742188 59.382812 -34.191406 63.875 -29.921875 C 68.375 -25.648438 70.753906 -20.773438 71.015625 -15.296875 C 71.273438 -9.816406 69.378906 -4.945312 65.328125 -0.6875 C 61.285156 3.5625 55.203125 6.160156 47.078125 7.109375 C 38.953125 8.054688 29.789062 6.707031 19.59375 3.0625 L 34.328125 15.40625 C 38.328125 18.875 41.742188 20.820312 44.578125 21.25 C 44.304688 23.832031 43.382812 25.953125 41.8125 27.609375 Z M 41.8125 27.609375 "/></g></g></g><g fill="#000000" fill-opacity="0.4"><g transform="translate(546.325166, 184.185005)"><g><path d="M 25.640625 -13.203125 C 29.265625 -16.015625 33.285156 -18.1875 37.703125 -19.71875 C 42.128906 -21.25 46.535156 -22.082031 50.921875 -22.21875 C 55.316406 -22.351562 59.566406 -21.546875 63.671875 -19.796875 C 67.785156 -18.046875 71.210938 -15.40625 73.953125 -11.875 C 74.921875 -10.625 75.472656 -9.234375 75.609375 -7.703125 C 75.753906 -6.179688 75.222656 -4.957031 74.015625 -4.03125 C 73.691406 -3.769531 73.4375 -3.609375 73.25 -3.546875 C 68.414062 -8.554688 62.632812 -11.015625 55.90625 -10.921875 C 49.175781 -10.835938 42.65625 -8.347656 36.34375 -3.453125 C 30.03125 1.441406 26.144531 6.085938 24.6875 10.484375 C 23.238281 14.878906 23.539062 18.40625 25.59375 21.0625 C 26.882812 22.726562 28.585938 23.707031 30.703125 24 C 32.828125 24.289062 34.835938 23.703125 36.734375 22.234375 C 39.566406 20.035156 41.335938 16.851562 42.046875 12.6875 C 42.765625 8.53125 41.675781 4.34375 38.78125 0.125 C 40.945312 -1.488281 43.351562 -2.070312 46 -1.625 C 48.644531 -1.1875 50.992188 0.351562 53.046875 3 C 55.097656 5.644531 56.171875 8.726562 56.265625 12.25 C 56.367188 15.769531 55.691406 18.875 54.234375 21.5625 C 52.785156 24.257812 50.953125 26.46875 48.734375 28.1875 C 43.441406 32.289062 37.890625 33.898438 32.078125 33.015625 C 26.265625 32.140625 21.398438 29.171875 17.484375 24.109375 C 12.796875 18.078125 11.347656 11.617188 13.140625 4.734375 C 14.929688 -2.148438 19.097656 -8.128906 25.640625 -13.203125 Z M 25.640625 -13.203125 "/></g></g></g><g fill="#000000" fill-opacity="0.4"><g transform="translate(578.582421, 225.607592)"><g><path d="M 42.0625 -5.21875 C 46.007812 -2.851562 49.132812 0.390625 51.4375 4.515625 C 53.738281 8.640625 54.1875 13.296875 52.78125 18.484375 C 51.382812 23.679688 48.046875 27.753906 42.765625 30.703125 C 37.484375 33.648438 31.582031 34.164062 25.0625 32.25 C 18.550781 30.34375 13.578125 26.3125 10.140625 20.15625 C 7.742188 15.851562 6.679688 11.539062 6.953125 7.21875 C 7.234375 2.894531 9.09375 -0.222656 12.53125 -2.140625 C 15.082031 -3.566406 17.515625 -3.78125 19.828125 -2.78125 C 22.140625 -1.789062 23.78125 -0.421875 24.75 1.328125 C 22.289062 4.023438 20.867188 6.960938 20.484375 10.140625 C 20.109375 13.316406 20.648438 16.210938 22.109375 18.828125 C 23.566406 21.441406 25.359375 23.179688 27.484375 24.046875 C 29.617188 24.910156 31.84375 24.695312 34.15625 23.40625 C 37.488281 21.539062 39.332031 18.640625 39.6875 14.703125 C 40.050781 10.765625 39.273438 7.078125 37.359375 3.640625 C 35.441406 0.210938 33.226562 -2.476562 30.71875 -4.4375 C 30.125 -5.507812 30.015625 -6.640625 30.390625 -7.828125 C 30.765625 -9.015625 31.539062 -9.9375 32.71875 -10.59375 C 33.90625 -11.257812 41.414062 -13.773438 55.25 -18.140625 C 60.28125 -19.722656 64.671875 -17.160156 68.421875 -10.453125 L 73.4375 -1.4375 C 74.945312 1.269531 76.570312 2.976562 78.3125 3.6875 C 77.757812 5.34375 76.351562 6.800781 74.09375 8.0625 C 71.832031 9.320312 69.535156 9.390625 67.203125 8.265625 C 64.867188 7.148438 62.5625 4.539062 60.28125 0.4375 L 54.953125 -9.09375 Z M 42.0625 -5.21875 "/></g></g></g><g fill="#000000" fill-opacity="0.4"><g transform="translate(602.040087, 267.117489)"><g><path d="M 63.921875 22.546875 C 61.179688 23.597656 58.410156 23.640625 55.609375 22.671875 C 52.816406 21.703125 50.414062 19.96875 48.40625 17.46875 C 48.789062 21.28125 47.9375 24.925781 45.84375 28.40625 C 43.75 31.882812 40.566406 34.441406 36.296875 36.078125 C 30.484375 38.316406 24.695312 37.785156 18.9375 34.484375 C 13.175781 31.179688 9.171875 26.597656 6.921875 20.734375 C 4.515625 14.484375 4.421875 8.925781 6.640625 4.0625 C 7.898438 1.4375 9.875 -0.390625 12.5625 -1.421875 C 15.257812 -2.453125 17.65625 -2.316406 19.75 -1.015625 C 21.851562 0.285156 23.15625 1.597656 23.65625 2.921875 C 20.394531 5.546875 18.28125 8.628906 17.3125 12.171875 C 16.351562 15.722656 16.40625 18.894531 17.46875 21.6875 C 18.539062 24.476562 20.0625 26.3125 22.03125 27.1875 C 24 28.070312 26.023438 28.117188 28.109375 27.328125 C 31.285156 26.097656 33.644531 23.554688 35.1875 19.703125 C 36.738281 15.847656 36.578125 11.476562 34.703125 6.59375 C 34.117188 5.070312 33.554688 3.9375 33.015625 3.1875 C 33.328125 2.175781 34.070312 1.445312 35.25 1 C 36.425781 0.550781 37.9375 0.929688 39.78125 2.140625 C 41.625 3.359375 43.359375 4.785156 44.984375 6.421875 C 46.617188 8.054688 48.539062 9.410156 50.75 10.484375 C 52.96875 11.554688 55.019531 11.726562 56.90625 11 C 58.800781 10.28125 60.015625 8.9375 60.546875 6.96875 C 61.078125 5 60.925781 2.921875 60.09375 0.734375 C 58.675781 -2.941406 55.90625 -6.066406 51.78125 -8.640625 C 51.707031 -9.484375 51.953125 -10.28125 52.515625 -11.03125 C 53.078125 -11.789062 53.796875 -12.335938 54.671875 -12.671875 C 57.085938 -13.597656 59.925781 -12.707031 63.1875 -10 C 66.457031 -7.289062 68.988281 -3.59375 70.78125 1.09375 C 72.582031 5.78125 72.890625 10.144531 71.703125 14.1875 C 70.523438 18.226562 67.929688 21.015625 63.921875 22.546875 Z M 63.921875 22.546875 "/></g></g></g><g fill="#000000" fill-opacity="0.4"><g transform="translate(619.219941, 311.124774)"><g><path d="M 41.84375 6.84375 C 44.957031 10.238281 47.035156 14.238281 48.078125 18.84375 C 49.128906 23.457031 48.242188 28.050781 45.421875 32.625 C 42.609375 37.207031 38.253906 40.171875 32.359375 41.515625 C 26.460938 42.859375 20.660156 41.691406 14.953125 38.015625 C 9.242188 34.347656 5.613281 29.078125 4.0625 22.203125 C 2.96875 17.398438 3.160156 12.960938 4.640625 8.890625 C 6.117188 4.816406 8.78125 2.34375 12.625 1.46875 C 15.476562 0.820312 17.875 1.300781 19.8125 2.90625 C 21.75 4.519531 22.9375 6.300781 23.375 8.25 C 20.25 10.15625 18.054688 12.570312 16.796875 15.5 C 15.535156 18.4375 15.234375 21.363281 15.890625 24.28125 C 16.554688 27.207031 17.789062 29.382812 19.59375 30.8125 C 21.394531 32.238281 23.585938 32.660156 26.171875 32.078125 C 29.898438 31.234375 32.488281 28.972656 33.9375 25.296875 C 35.382812 21.628906 35.671875 17.875 34.796875 14.03125 C 33.929688 10.195312 32.570312 6.984375 30.71875 4.390625 C 30.445312 3.191406 30.660156 2.078125 31.359375 1.046875 C 32.054688 0.015625 33.0625 -0.648438 34.375 -0.953125 C 35.695312 -1.253906 43.609375 -1.546875 58.109375 -1.828125 C 63.390625 -1.929688 66.878906 1.757812 68.578125 9.25 L 70.859375 19.3125 C 71.546875 22.34375 72.628906 24.441406 74.109375 25.609375 C 73.109375 27.046875 71.347656 28.050781 68.828125 28.625 C 66.304688 29.195312 64.082031 28.613281 62.15625 26.875 C 60.226562 25.144531 58.742188 21.992188 57.703125 17.421875 L 55.28125 6.765625 Z M 41.84375 6.84375 "/></g></g></g><g fill="#000000" fill-opacity="0.4"><g transform="translate(630.251107, 357.30329)"><g><path d="M 30.890625 18.5625 C 28.054688 16.6875 24.882812 15.875 21.375 16.125 C 17.863281 16.375 14.800781 17.8125 12.1875 20.4375 C 9.570312 23.070312 8.410156 26.441406 8.703125 30.546875 C 8.859375 32.703125 9.65625 34.613281 11.09375 36.28125 C 12.539062 37.957031 14.410156 38.71875 16.703125 38.5625 C 20.796875 38.269531 24.25 34.660156 27.0625 27.734375 C 28.207031 24.773438 29.484375 21.71875 30.890625 18.5625 Z M 39.359375 33.046875 C 41.960938 34.273438 44.863281 34.773438 48.0625 34.546875 C 51.257812 34.316406 54.15625 32.972656 56.75 30.515625 C 59.34375 28.066406 60.523438 25.175781 60.296875 21.84375 C 60.148438 19.84375 59.378906 18.15625 57.984375 16.78125 C 56.585938 15.414062 54.773438 14.8125 52.546875 14.96875 C 50.734375 15.101562 48.890625 16.0625 47.015625 17.84375 C 45.972656 18.851562 44.953125 20.425781 43.953125 22.5625 C 42.953125 24.695312 42.019531 26.773438 41.15625 28.796875 C 40.300781 30.828125 39.703125 32.242188 39.359375 33.046875 Z M 51.109375 46.78125 C 45.253906 47.195312 40.289062 44.8125 36.21875 39.625 C 32.1875 46.6875 27.148438 50.4375 21.109375 50.875 C 17.953125 51.09375 15.085938 50.523438 12.515625 49.171875 C 9.941406 47.828125 7.867188 46.035156 6.296875 43.796875 C 3.203125 39.242188 1.484375 34.5625 1.140625 29.75 C 0.703125 23.550781 2.046875 17.804688 5.171875 12.515625 C 8.296875 7.234375 12.914062 4.375 19.03125 3.9375 C 25.15625 3.5 30.285156 6.195312 34.421875 12.03125 C 38.171875 6.820312 42.648438 4.03125 47.859375 3.65625 C 53.066406 3.28125 57.535156 4.929688 61.265625 8.609375 C 65.003906 12.285156 67.09375 17.226562 67.53125 23.4375 C 67.769531 26.84375 67.363281 30.226562 66.3125 33.59375 C 65.257812 36.96875 63.394531 39.941406 60.71875 42.515625 C 58.050781 45.097656 54.847656 46.519531 51.109375 46.78125 Z M 51.109375 46.78125 "/></g></g></g><g fill="#000000" fill-opacity="0.4"><g transform="translate(634.331232, 410.599249)"><g><path d="M 31.84375 54.078125 C 25.695312 53.535156 19.90625 51.785156 14.46875 48.828125 C 9.039062 45.878906 4.679688 41.859375 1.390625 36.765625 C -1.898438 31.679688 -3.285156 26.1875 -2.765625 20.28125 C -2.617188 18.644531 -2.078125 17.226562 -1.140625 16.03125 C -0.210938 14.84375 1.003906 14.316406 2.515625 14.453125 C 2.929688 14.492188 3.253906 14.550781 3.484375 14.625 C 3.648438 21.539062 6.226562 27.265625 11.21875 31.796875 C 16.207031 36.335938 22.679688 38.957031 30.640625 39.65625 C 38.597656 40.363281 44.601562 39.585938 48.65625 37.328125 C 52.71875 35.066406 54.894531 32.265625 55.1875 28.921875 C 55.375 26.816406 54.769531 24.953125 53.375 23.328125 C 51.988281 21.703125 50.097656 20.78125 47.703125 20.5625 C 44.128906 20.25 40.679688 21.375 37.359375 23.9375 C 34.035156 26.507812 32.015625 30.296875 31.296875 35.296875 C 28.546875 34.992188 26.363281 33.796875 24.75 31.703125 C 23.132812 29.617188 22.472656 26.910156 22.765625 23.578125 C 23.054688 20.242188 24.363281 17.25 26.6875 14.59375 C 29.007812 11.9375 31.597656 10.117188 34.453125 9.140625 C 37.316406 8.160156 40.15625 7.796875 42.96875 8.046875 C 49.632812 8.628906 54.796875 11.21875 58.453125 15.8125 C 62.117188 20.414062 63.675781 25.875 63.125 32.1875 C 62.445312 39.800781 59.125 45.535156 53.15625 49.390625 C 47.195312 53.242188 40.09375 54.804688 31.84375 54.078125 Z M 31.84375 54.078125 "/></g></g></g><g fill="#000000" fill-opacity="0.4"><g transform="translate(629.616804, 463.046956)"><g><path d="M 59.671875 29.375 L 53.125 57.140625 C 52.382812 57.503906 51.210938 57.492188 49.609375 57.109375 C 48.003906 56.734375 45.625 55.101562 42.46875 52.21875 C 39.3125 49.34375 36.15625 46.234375 33 42.890625 C 29.84375 39.554688 26 36.285156 21.46875 33.078125 C 16.9375 29.867188 12.554688 27.765625 8.328125 26.765625 C 4.109375 25.773438 0.835938 26.867188 -1.484375 30.046875 C -1.628906 29.953125 -1.832031 29.828125 -2.09375 29.671875 C -2.363281 29.515625 -2.804688 29.140625 -3.421875 28.546875 C -4.046875 27.953125 -4.570312 27.304688 -5 26.609375 C -6.0625 24.722656 -6.269531 22.40625 -5.625 19.65625 C -4.976562 16.914062 -3.332031 14.859375 -0.6875 13.484375 C 1.945312 12.117188 5.007812 11.847656 8.5 12.671875 C 11.988281 13.492188 15.859375 15.765625 20.109375 19.484375 C 24.359375 23.203125 28.890625 27.707031 33.703125 33 C 38.515625 38.300781 41.925781 41.828125 43.9375 43.578125 C 44.007812 42.203125 44.269531 40.570312 44.71875 38.6875 L 48.671875 21.890625 C 49.378906 18.921875 49.332031 16.554688 48.53125 14.796875 C 50.289062 14.054688 52.050781 13.894531 53.8125 14.3125 C 55.582031 14.726562 56.96875 15.429688 57.96875 16.421875 C 58.96875 17.421875 59.648438 18.414062 60.015625 19.40625 C 60.390625 20.40625 60.582031 21.648438 60.59375 23.140625 C 60.53125 24.953125 60.222656 27.03125 59.671875 29.375 Z M 59.671875 29.375 "/></g></g></g><g fill="#000000" fill-opacity="0.4"><g transform="translate(620.425356, 504.722032)"><g><path d="M 15.21875 60.890625 C 9.476562 58.628906 4.425781 55.316406 0.0625 50.953125 C -4.300781 46.585938 -7.34375 41.488281 -9.0625 35.65625 C -10.789062 29.832031 -10.566406 24.164062 -8.390625 18.65625 C -7.785156 17.125 -6.867188 15.921875 -5.640625 15.046875 C -4.421875 14.179688 -3.101562 14.03125 -1.6875 14.59375 C -1.300781 14.738281 -1.003906 14.878906 -0.796875 15.015625 C -2.597656 21.691406 -1.75 27.910156 1.75 33.671875 C 5.25 39.429688 10.710938 43.773438 18.140625 46.703125 C 25.578125 49.628906 31.5625 50.582031 36.09375 49.5625 C 40.625 48.550781 43.503906 46.484375 44.734375 43.359375 C 45.515625 41.398438 45.46875 39.441406 44.59375 37.484375 C 43.71875 35.523438 42.160156 34.109375 39.921875 33.234375 C 36.585938 31.921875 32.96875 32.023438 29.0625 33.546875 C 25.15625 35.066406 22.140625 38.117188 20.015625 42.703125 C 17.460938 41.640625 15.707031 39.878906 14.75 37.421875 C 13.789062 34.960938 13.925781 32.175781 15.15625 29.0625 C 16.382812 25.945312 18.488281 23.445312 21.46875 21.5625 C 24.445312 19.675781 27.445312 18.664062 30.46875 18.53125 C 33.488281 18.394531 36.3125 18.84375 38.9375 19.875 C 45.164062 22.320312 49.382812 26.265625 51.59375 31.703125 C 53.800781 37.148438 53.742188 42.828125 51.421875 48.734375 C 48.628906 55.835938 43.820312 60.394531 37 62.40625 C 30.175781 64.425781 22.914062 63.921875 15.21875 60.890625 Z M 15.21875 60.890625 "/></g></g></g><g fill="#000000" fill-opacity="0.4"><g transform="translate(601.274801, 553.619055)"><g><path d="M 22.625 63.90625 C 20.082031 62.425781 18.3125 60.296875 17.3125 57.515625 C 16.320312 54.734375 16.160156 51.769531 16.828125 48.625 C 14.109375 51.320312 10.734375 52.953125 6.703125 53.515625 C 2.679688 54.078125 -1.304688 53.210938 -5.265625 50.921875 C -10.648438 47.796875 -13.867188 42.953125 -14.921875 36.390625 C -15.984375 29.835938 -14.941406 23.847656 -11.796875 18.421875 C -8.429688 12.617188 -4.160156 9.050781 1.015625 7.71875 C 3.847656 7.050781 6.507812 7.4375 9 8.875 C 11.488281 10.320312 12.890625 12.269531 13.203125 14.71875 C 13.515625 17.175781 13.316406 19.015625 12.609375 20.234375 C 8.503906 19.347656 4.769531 19.640625 1.40625 21.109375 C -1.957031 22.585938 -4.390625 24.625 -5.890625 27.21875 C -7.390625 29.8125 -7.859375 32.148438 -7.296875 34.234375 C -6.742188 36.316406 -5.503906 37.914062 -3.578125 39.03125 C -0.628906 40.738281 2.820312 40.976562 6.78125 39.75 C 10.75 38.519531 14.046875 35.644531 16.671875 31.125 C 17.492188 29.707031 18.023438 28.554688 18.265625 27.671875 C 19.242188 27.285156 20.273438 27.410156 21.359375 28.046875 C 22.453125 28.679688 23.109375 30.097656 23.328125 32.296875 C 23.554688 34.492188 23.539062 36.738281 23.28125 39.03125 C 23.03125 41.332031 23.179688 43.679688 23.734375 46.078125 C 24.296875 48.472656 25.453125 50.175781 27.203125 51.1875 C 28.960938 52.207031 30.773438 52.300781 32.640625 51.46875 C 34.503906 50.644531 36.023438 49.222656 37.203125 47.203125 C 39.171875 43.796875 39.859375 39.679688 39.265625 34.859375 C 39.867188 34.265625 40.640625 33.945312 41.578125 33.90625 C 42.515625 33.875 43.390625 34.09375 44.203125 34.5625 C 46.429688 35.851562 47.523438 38.625 47.484375 42.875 C 47.441406 47.125 46.160156 51.421875 43.640625 55.765625 C 41.117188 60.109375 37.914062 63.085938 34.03125 64.703125 C 30.144531 66.316406 26.34375 66.050781 22.625 63.90625 Z M 22.625 63.90625 "/></g></g></g><g fill="#000000" fill-opacity="0.4"><g transform="translate(577.847577, 594.638297)"><g><path d="M -23.640625 44.171875 C -28.253906 40.535156 -27.613281 34.988281 -21.71875 27.53125 L -7.09375 8.984375 C -4.875 6.171875 -2.40625 4.753906 0.3125 4.734375 C 1.9375 4.753906 3.332031 5.222656 4.5 6.140625 C 5.675781 7.066406 6.671875 8.113281 7.484375 9.28125 C 6.179688 21.632812 6.289062 31.257812 7.8125 38.15625 C 8.488281 40.988281 9.5625 43.769531 11.03125 46.5 C 12.507812 49.238281 14.535156 51.625 17.109375 53.65625 C 19.691406 55.695312 22.132812 56.769531 24.4375 56.875 C 26.75 56.988281 28.671875 56.078125 30.203125 54.140625 C 31.222656 52.847656 31.585938 51.503906 31.296875 50.109375 C 31.003906 48.710938 30.328125 47.597656 29.265625 46.765625 C 28.210938 45.929688 26.96875 45.546875 25.53125 45.609375 C 24.101562 45.679688 22.710938 46.195312 21.359375 47.15625 C 19.679688 43.5 20.332031 39.785156 23.3125 36.015625 C 25.09375 33.753906 27.289062 32.3125 29.90625 31.6875 C 32.53125 31.0625 35.019531 31.675781 37.375 33.53125 C 40.789062 36.226562 42.320312 40.238281 41.96875 45.5625 C 41.613281 50.894531 39.515625 55.992188 35.671875 60.859375 C 31.835938 65.722656 27.203125 68.535156 21.765625 69.296875 C 16.335938 70.066406 11.320312 68.628906 6.71875 64.984375 C 2.113281 61.347656 -1.035156 55.53125 -2.734375 47.53125 C -4.429688 39.539062 -3.929688 30.289062 -1.234375 19.78125 L -12.171875 35.625 C -15.265625 39.914062 -16.894531 43.492188 -17.0625 46.359375 C -19.65625 46.328125 -21.847656 45.597656 -23.640625 44.171875 Z M -23.640625 44.171875 "/></g></g></g><g fill="#000000" fill-opacity="0.4"><g transform="translate(548.448976, 632.28582)"><g><path d="M 3.671875 67.6875 C 1.640625 65.550781 0.539062 63.003906 0.375 60.046875 C 0.21875 57.097656 0.898438 54.21875 2.421875 51.40625 C -0.941406 53.21875 -4.628906 53.820312 -8.640625 53.21875 C -12.660156 52.625 -16.25 50.671875 -19.40625 47.359375 C -23.695312 42.835938 -25.425781 37.285156 -24.59375 30.703125 C -23.757812 24.117188 -21.066406 18.664062 -16.515625 14.34375 C -11.648438 9.726562 -6.546875 7.507812 -1.203125 7.6875 C 1.703125 7.851562 4.144531 8.976562 6.125 11.0625 C 8.113281 13.15625 8.910156 15.421875 8.515625 17.859375 C 8.117188 20.296875 7.410156 22 6.390625 22.96875 C 2.703125 20.957031 -0.960938 20.1875 -4.609375 20.65625 C -8.253906 21.125 -11.160156 22.390625 -13.328125 24.453125 C -15.503906 26.515625 -16.617188 28.625 -16.671875 30.78125 C -16.734375 32.9375 -15.992188 34.820312 -14.453125 36.4375 C -12.109375 38.90625 -8.859375 40.113281 -4.703125 40.0625 C -0.546875 40.007812 3.425781 38.179688 7.21875 34.578125 C 8.40625 33.453125 9.234375 32.5 9.703125 31.71875 C 10.753906 31.625 11.710938 32.03125 12.578125 32.9375 C 13.453125 33.851562 13.679688 35.394531 13.265625 37.5625 C 12.859375 39.738281 12.210938 41.890625 11.328125 44.015625 C 10.441406 46.148438 9.921875 48.441406 9.765625 50.890625 C 9.617188 53.347656 10.242188 55.3125 11.640625 56.78125 C 13.035156 58.25 14.742188 58.851562 16.765625 58.59375 C 18.796875 58.332031 20.660156 57.394531 22.359375 55.78125 C 25.210938 53.0625 27.03125 49.304688 27.8125 44.515625 C 28.582031 44.128906 29.421875 44.050781 30.328125 44.28125 C 31.234375 44.507812 32.007812 44.960938 32.65625 45.640625 C 34.425781 47.515625 34.691406 50.476562 33.453125 54.53125 C 32.210938 58.59375 29.769531 62.347656 26.125 65.796875 C 22.488281 69.253906 18.570312 71.210938 14.375 71.671875 C 10.1875 72.128906 6.617188 70.800781 3.671875 67.6875 Z M 3.671875 67.6875 "/></g></g></g><g fill="#000000" fill-opacity="0.4"><g transform="translate(514.689417, 665.076793)"><g><path d="M -0.125 36.03125 C 0.0195312 32.644531 -0.910156 29.503906 -2.921875 26.609375 C -4.941406 23.722656 -7.75 21.828125 -11.34375 20.921875 C -14.9375 20.023438 -18.421875 20.753906 -21.796875 23.109375 C -23.578125 24.347656 -24.8125 26.015625 -25.5 28.109375 C -26.195312 30.203125 -25.890625 32.1875 -24.578125 34.0625 C -22.234375 37.4375 -17.367188 38.5625 -9.984375 37.4375 C -6.859375 36.90625 -3.570312 36.4375 -0.125 36.03125 Z M -8.28125 50.734375 C -7.976562 53.597656 -6.910156 56.34375 -5.078125 58.96875 C -3.253906 61.601562 -0.628906 63.40625 2.796875 64.375 C 6.234375 65.351562 9.320312 64.890625 12.0625 62.984375 C 13.707031 61.835938 14.757812 60.3125 15.21875 58.40625 C 15.6875 56.507812 15.28125 54.644531 14 52.8125 C 12.96875 51.320312 11.207031 50.222656 8.71875 49.515625 C 7.3125 49.140625 5.4375 49.066406 3.09375 49.296875 C 0.75 49.535156 -1.507812 49.804688 -3.6875 50.109375 C -5.875 50.410156 -7.40625 50.617188 -8.28125 50.734375 Z M -14.046875 67.84375 C -17.410156 63.019531 -17.90625 57.53125 -15.53125 51.375 C -23.65625 51.53125 -29.445312 49.125 -32.90625 44.15625 C -34.71875 41.550781 -35.703125 38.800781 -35.859375 35.90625 C -36.015625 33.007812 -35.53125 30.3125 -34.40625 27.8125 C -32.070312 22.832031 -28.925781 18.960938 -24.96875 16.203125 C -19.863281 12.648438 -14.238281 10.863281 -8.09375 10.84375 C -1.957031 10.832031 2.859375 13.34375 6.359375 18.375 C 9.867188 23.414062 10.175781 29.195312 7.28125 35.71875 C 13.664062 36.28125 18.347656 38.703125 21.328125 42.984375 C 24.316406 47.273438 25.1875 51.960938 23.9375 57.046875 C 22.6875 62.140625 19.503906 66.46875 14.390625 70.03125 C 11.597656 71.96875 8.484375 73.347656 5.046875 74.171875 C 1.617188 74.992188 -1.882812 74.914062 -5.46875 73.9375 C -9.050781 72.957031 -11.910156 70.925781 -14.046875 67.84375 Z M -14.046875 67.84375 "/></g></g></g><g fill="#000000" fill-opacity="0.4"><g transform="translate(471.068506, 695.88081)"><g><path d="M -5.390625 30.703125 L -17.0625 36.296875 L -6.78125 57.75 C -6.320312 58.707031 -5.773438 59.035156 -5.140625 58.734375 C -4.191406 58.273438 -3.257812 56.144531 -2.34375 52.34375 C -1.425781 48.550781 -0.863281 44.488281 -0.65625 40.15625 C -0.457031 35.832031 -0.765625 32.828125 -1.578125 31.140625 C -1.910156 30.453125 -2.363281 30.078125 -2.9375 30.015625 C -3.507812 29.960938 -4.328125 30.191406 -5.390625 30.703125 Z M -35.3125 34.109375 L -33.796875 33.390625 L -36.578125 27.609375 C -37.953125 24.742188 -39.703125 23.265625 -41.828125 23.171875 C -41.015625 19.984375 -39.148438 17.691406 -36.234375 16.296875 C -31.046875 13.804688 -26.941406 15.710938 -23.921875 22.015625 L -21.328125 27.40625 L -3.390625 18.8125 C 0.796875 16.800781 3.703125 17.492188 5.328125 20.890625 C 7.234375 24.859375 7.976562 30.894531 7.5625 39 C 7.15625 47.113281 5.691406 54.832031 3.171875 62.15625 C 0.660156 69.488281 -2.335938 73.992188 -5.828125 75.671875 C -10.003906 77.671875 -13.613281 75.492188 -16.65625 69.140625 L -29.53125 42.28125 L -32.078125 43.5 C -34.722656 44.769531 -36.367188 46.148438 -37.015625 47.640625 C -38.484375 47.046875 -39.617188 45.910156 -40.421875 44.234375 C -41.222656 42.566406 -41.164062 40.75 -40.25 38.78125 C -39.34375 36.8125 -37.695312 35.253906 -35.3125 34.109375 Z M -35.3125 34.109375 "/></g></g></g><g fill="#000000" fill-opacity="0.4"><g transform="translate(422.823515, 719.304581)"><g><path d="M 2.984375 28.6875 C 4.285156 33.082031 4.84375 37.617188 4.65625 42.296875 C 4.476562 46.972656 3.65625 51.378906 2.1875 55.515625 C 0.71875 59.648438 -1.578125 63.3125 -4.703125 66.5 C -7.828125 69.695312 -11.53125 71.929688 -15.8125 73.203125 C -17.332031 73.648438 -18.828125 73.660156 -20.296875 73.234375 C -21.773438 72.816406 -22.726562 71.878906 -23.15625 70.421875 C -23.269531 70.015625 -23.320312 69.71875 -23.3125 69.53125 C -16.894531 66.84375 -12.503906 62.347656 -10.140625 56.046875 C -7.785156 49.742188 -7.738281 42.757812 -10 35.09375 C -12.269531 27.4375 -15.1875 22.132812 -18.75 19.1875 C -22.3125 16.238281 -25.703125 15.238281 -28.921875 16.1875 C -30.953125 16.789062 -32.488281 18.023438 -33.53125 19.890625 C -34.570312 21.753906 -34.75 23.835938 -34.0625 26.140625 C -33.050781 29.578125 -30.734375 32.382812 -27.109375 34.5625 C -23.492188 36.75 -19.195312 37.257812 -14.21875 36.09375 C -13.507812 38.6875 -13.835938 41.132812 -15.203125 43.4375 C -16.566406 45.75 -18.851562 47.378906 -22.0625 48.328125 C -25.28125 49.285156 -28.550781 49.164062 -31.875 47.96875 C -35.195312 46.78125 -37.84375 45.019531 -39.8125 42.6875 C -41.789062 40.363281 -43.175781 37.851562 -43.96875 35.15625 C -45.875 28.738281 -45.359375 22.984375 -42.421875 17.890625 C -39.492188 12.796875 -34.960938 9.34375 -28.828125 7.53125 C -21.503906 5.363281 -14.957031 6.363281 -9.1875 10.53125 C -3.425781 14.695312 0.628906 20.75 2.984375 28.6875 Z M 2.984375 28.6875 "/></g></g></g><g fill="#f76c66" fill-opacity="1"><g transform="translate(234.435955, 80.134755)"><g><path d="M 36.515625 -57.109375 C 36.921875 -54.203125 36.328125 -51.5 34.734375 -49 C 33.148438 -46.5 30.914062 -44.550781 28.03125 -43.15625 C 31.832031 -42.664062 35.1875 -41.003906 38.09375 -38.171875 C 41.007812 -35.335938 42.773438 -31.660156 43.390625 -27.140625 C 44.242188 -20.960938 42.40625 -15.441406 37.875 -10.578125 C 33.351562 -5.722656 27.984375 -2.867188 21.765625 -2.015625 C 15.128906 -1.109375 9.695312 -2.285156 5.46875 -5.546875 C 3.195312 -7.367188 1.863281 -9.707031 1.46875 -12.5625 C 1.082031 -15.414062 1.765625 -17.710938 3.515625 -19.453125 C 5.265625 -21.203125 6.832031 -22.171875 8.21875 -22.359375 C 10.039062 -18.585938 12.566406 -15.828125 15.796875 -14.078125 C 19.035156 -12.335938 22.140625 -11.671875 25.109375 -12.078125 C 28.078125 -12.484375 30.210938 -13.546875 31.515625 -15.265625 C 32.816406 -16.984375 33.316406 -18.945312 33.015625 -21.15625 C 32.546875 -24.53125 30.601562 -27.40625 27.1875 -29.78125 C 23.78125 -32.15625 19.488281 -32.988281 14.3125 -32.28125 C 12.6875 -32.050781 11.453125 -31.765625 10.609375 -31.421875 C 9.710938 -31.953125 9.175781 -32.835938 9 -34.078125 C 8.832031 -35.328125 9.546875 -36.710938 11.140625 -38.234375 C 12.742188 -39.765625 14.53125 -41.140625 16.5 -42.359375 C 18.46875 -43.578125 20.222656 -45.140625 21.765625 -47.046875 C 23.316406 -48.953125 23.953125 -50.90625 23.671875 -52.90625 C 23.398438 -54.914062 22.367188 -56.40625 20.578125 -57.375 C 18.785156 -58.34375 16.726562 -58.664062 14.40625 -58.34375 C 10.5 -57.8125 6.828125 -55.820312 3.390625 -52.375 C 2.535156 -52.507812 1.804688 -52.9375 1.203125 -53.65625 C 0.597656 -54.375 0.234375 -55.195312 0.109375 -56.125 C -0.242188 -58.6875 1.269531 -61.25 4.65625 -63.8125 C 8.039062 -66.375 12.21875 -67.992188 17.1875 -68.671875 C 22.164062 -69.359375 26.484375 -68.664062 30.140625 -66.59375 C 33.804688 -64.519531 35.929688 -61.359375 36.515625 -57.109375 Z M 36.515625 -57.109375 "/></g></g></g><g fill="#f76c66" fill-opacity="1"><g transform="translate(281.809497, 73.918285)"><g><path d="M 18.3125 -16.15625 C 20.601562 -16.195312 22.421875 -15.550781 23.765625 -14.21875 C 25.109375 -12.894531 25.800781 -11.085938 25.84375 -8.796875 C 25.882812 -6.515625 24.9375 -4.351562 23 -2.3125 C 21.0625 -0.28125 18.929688 0.75 16.609375 0.78125 C 14.296875 0.820312 12.453125 0.175781 11.078125 -1.15625 C 9.710938 -2.488281 9.007812 -4.296875 8.96875 -6.578125 C 8.9375 -8.867188 9.914062 -11.03125 11.90625 -13.0625 C 13.894531 -15.09375 16.03125 -16.125 18.3125 -16.15625 Z M 18.3125 -16.15625 "/></g></g></g><g fill="#f76c66" fill-opacity="1"><g transform="translate(314.163933, 73.242207)"><g><path d="M 29.90625 -53.953125 L 26.109375 -7 C 25.847656 -3.832031 26.640625 -1.671875 28.484375 -0.515625 C 26.066406 1.816406 23.28125 2.851562 20.125 2.59375 C 14.382812 2.132812 11.796875 -1.578125 12.359375 -8.546875 L 15.8125 -51.296875 C 15.957031 -53.117188 15.269531 -54.09375 13.75 -54.21875 C 12.050781 -54.351562 10.363281 -53.863281 8.6875 -52.75 C 7.4375 -53.382812 6.875 -54.460938 7 -55.984375 C 7.164062 -58.148438 8.691406 -60.128906 11.578125 -61.921875 C 14.472656 -63.722656 17.601562 -64.488281 20.96875 -64.21875 C 24.332031 -63.945312 26.71875 -62.898438 28.125 -61.078125 C 29.539062 -59.253906 30.132812 -56.878906 29.90625 -53.953125 Z M 29.90625 -53.953125 "/></g></g></g><g fill="#f76c66" fill-opacity="1"><g transform="translate(345.542201, 74.835757)"><g><path d="M 23.03125 -21.015625 L 35.6875 -18.328125 L 40.640625 -41.59375 C 40.859375 -42.632812 40.625 -43.226562 39.9375 -43.375 C 38.90625 -43.59375 36.863281 -42.476562 33.8125 -40.03125 C 30.769531 -37.59375 27.847656 -34.71875 25.046875 -31.40625 C 22.242188 -28.101562 20.648438 -25.535156 20.265625 -23.703125 C 20.109375 -22.953125 20.238281 -22.378906 20.65625 -21.984375 C 21.082031 -21.585938 21.875 -21.265625 23.03125 -21.015625 Z M 48.8125 -5.453125 L 47.171875 -5.796875 L 45.828125 0.484375 C 45.160156 3.585938 45.640625 5.820312 47.265625 7.1875 C 44.671875 9.21875 41.796875 9.894531 38.640625 9.21875 C 33.015625 8.019531 30.929688 4 32.390625 -2.84375 L 33.640625 -8.6875 L 14.171875 -12.828125 C 9.640625 -13.796875 7.765625 -16.117188 8.546875 -19.796875 C 9.460938 -24.109375 12.554688 -29.347656 17.828125 -35.515625 C 23.109375 -41.679688 28.976562 -46.894531 35.4375 -51.15625 C 41.90625 -55.425781 47.035156 -57.160156 50.828125 -56.359375 C 55.359375 -55.390625 56.890625 -51.460938 55.421875 -44.578125 L 49.21875 -15.4375 L 51.96875 -14.859375 C 54.84375 -14.242188 56.988281 -14.332031 58.40625 -15.125 C 59.207031 -13.75 59.414062 -12.15625 59.03125 -10.34375 C 58.644531 -8.53125 57.488281 -7.125 55.5625 -6.125 C 53.644531 -5.125 51.394531 -4.898438 48.8125 -5.453125 Z M 48.8125 -5.453125 "/></g></g></g><g fill="#f7c659" fill-opacity="1"><g transform="translate(398.568905, 86.642596)"><g><path d="M 42.671875 -44.515625 L 27.015625 -0.09375 C 25.960938 2.90625 26.1875 5.191406 27.6875 6.765625 C 24.738281 8.398438 21.769531 8.691406 18.78125 7.640625 C 13.351562 5.722656 11.800781 1.472656 14.125 -5.109375 L 28.390625 -45.5625 C 28.992188 -47.28125 28.578125 -48.390625 27.140625 -48.890625 C 25.523438 -49.460938 23.769531 -49.425781 21.875 -48.78125 C 20.832031 -49.707031 20.5625 -50.894531 21.0625 -52.34375 C 21.789062 -54.382812 23.773438 -55.90625 27.015625 -56.90625 C 30.265625 -57.914062 33.476562 -57.859375 36.65625 -56.734375 C 39.84375 -55.617188 41.882812 -53.992188 42.78125 -51.859375 C 43.6875 -49.734375 43.648438 -47.285156 42.671875 -44.515625 Z M 42.671875 -44.515625 "/></g></g></g><g fill="#f7c659" fill-opacity="1"><g transform="translate(428.607978, 96.515976)"><g><path d="M 31.6875 -28.15625 C 36.300781 -28.4375 40.722656 -27.53125 44.953125 -25.4375 C 49.191406 -23.34375 52.203125 -19.753906 53.984375 -14.671875 C 55.765625 -9.597656 55.3125 -4.351562 52.625 1.0625 C 49.945312 6.488281 45.382812 10.257812 38.9375 12.375 C 32.488281 14.5 26.109375 14 19.796875 10.875 C 15.378906 8.6875 12.054688 5.726562 9.828125 2 C 7.597656 -1.71875 7.359375 -5.34375 9.109375 -8.875 C 10.398438 -11.488281 12.28125 -13.039062 14.75 -13.53125 C 17.21875 -14.019531 19.347656 -13.820312 21.140625 -12.9375 C 20.648438 -9.300781 21.144531 -6.070312 22.625 -3.25 C 24.101562 -0.425781 26.1875 1.644531 28.875 2.96875 C 31.5625 4.300781 34.023438 4.722656 36.265625 4.234375 C 38.515625 3.742188 40.222656 2.3125 41.390625 -0.0625 C 43.085938 -3.488281 42.96875 -6.925781 41.03125 -10.375 C 39.09375 -13.820312 36.359375 -16.414062 32.828125 -18.15625 C 29.304688 -19.894531 25.957031 -20.863281 22.78125 -21.0625 C 21.6875 -21.613281 20.957031 -22.484375 20.59375 -23.671875 C 20.226562 -24.859375 20.34375 -26.054688 20.9375 -27.265625 C 21.539062 -28.484375 26.304688 -34.8125 35.234375 -46.25 C 38.484375 -50.40625 43.550781 -50.78125 50.4375 -47.375 L 59.6875 -42.8125 C 62.46875 -41.425781 64.78125 -40.9375 66.625 -41.34375 C 67.101562 -39.664062 66.769531 -37.664062 65.625 -35.34375 C 64.476562 -33.03125 62.625 -31.671875 60.0625 -31.265625 C 57.5 -30.867188 54.113281 -31.710938 49.90625 -33.796875 L 40.109375 -38.640625 Z M 31.6875 -28.15625 "/></g></g></g><g fill="#f7c659" fill-opacity="1"><g transform="translate(471.41522, 117.137766)"><g><path d="M 62.765625 -0.640625 C 59.234375 4.410156 54.832031 8.550781 49.5625 11.78125 C 44.300781 15.019531 38.640625 16.796875 32.578125 17.109375 C 26.515625 17.429688 21.050781 15.894531 16.1875 12.5 C 14.84375 11.5625 13.890625 10.390625 13.328125 8.984375 C 12.765625 7.585938 12.921875 6.269531 13.796875 5.03125 C 14.023438 4.6875 14.226562 4.4375 14.40625 4.28125 C 20.488281 7.582031 26.738281 8.195312 33.15625 6.125 C 39.570312 4.0625 45.066406 -0.242188 49.640625 -6.796875 C 54.210938 -13.347656 56.53125 -18.945312 56.59375 -23.59375 C 56.664062 -28.238281 55.328125 -31.519531 52.578125 -33.4375 C 50.835938 -34.644531 48.914062 -35.050781 46.8125 -34.65625 C 44.71875 -34.257812 42.984375 -33.078125 41.609375 -31.109375 C 39.554688 -28.171875 38.8125 -24.625 39.375 -20.46875 C 39.945312 -16.3125 42.21875 -12.664062 46.1875 -9.53125 C 44.5625 -7.300781 42.441406 -6.003906 39.828125 -5.640625 C 37.210938 -5.285156 34.53125 -6.066406 31.78125 -7.984375 C 29.039062 -9.898438 27.097656 -12.523438 25.953125 -15.859375 C 24.816406 -19.203125 24.535156 -22.359375 25.109375 -25.328125 C 25.679688 -28.296875 26.773438 -30.9375 28.390625 -33.25 C 32.210938 -38.726562 37.03125 -41.910156 42.84375 -42.796875 C 48.65625 -43.679688 54.160156 -42.304688 59.359375 -38.671875 C 65.617188 -34.304688 68.9375 -28.570312 69.3125 -21.46875 C 69.6875 -14.375 67.503906 -7.429688 62.765625 -0.640625 Z M 62.765625 -0.640625 "/></g></g></g><g fill="#84d1aa" fill-opacity="1"><g transform="translate(514.506146, 147.118328)"><g><path d="M 41.8125 27.609375 C 37.757812 31.867188 32.289062 30.722656 25.40625 24.171875 L 8.296875 7.890625 C 5.703125 5.421875 4.515625 2.832031 4.734375 0.125 C 4.898438 -1.488281 5.5 -2.835938 6.53125 -3.921875 C 7.5625 -5.003906 8.691406 -5.898438 9.921875 -6.609375 C 22.117188 -4.171875 31.710938 -3.382812 38.703125 -4.25 C 41.597656 -4.675781 44.472656 -5.492188 47.328125 -6.703125 C 50.191406 -7.910156 52.753906 -9.703125 55.015625 -12.078125 C 57.273438 -14.460938 58.5625 -16.800781 58.875 -19.09375 C 59.195312 -21.394531 58.46875 -23.394531 56.6875 -25.09375 C 55.488281 -26.226562 54.179688 -26.710938 52.765625 -26.546875 C 51.359375 -26.390625 50.191406 -25.820312 49.265625 -24.84375 C 48.335938 -23.875 47.84375 -22.671875 47.78125 -21.234375 C 47.71875 -19.796875 48.097656 -18.359375 48.921875 -16.921875 C 45.128906 -15.585938 41.488281 -16.578125 38 -19.890625 C 35.914062 -21.867188 34.679688 -24.191406 34.296875 -26.859375 C 33.921875 -29.535156 34.765625 -31.957031 36.828125 -34.125 C 39.828125 -37.269531 43.960938 -38.421875 49.234375 -37.578125 C 54.503906 -36.742188 59.382812 -34.191406 63.875 -29.921875 C 68.375 -25.648438 70.753906 -20.773438 71.015625 -15.296875 C 71.273438 -9.816406 69.378906 -4.945312 65.328125 -0.6875 C 61.285156 3.5625 55.203125 6.160156 47.078125 7.109375 C 38.953125 8.054688 29.789062 6.707031 19.59375 3.0625 L 34.328125 15.40625 C 38.328125 18.875 41.742188 20.820312 44.578125 21.25 C 44.304688 23.832031 43.382812 25.953125 41.8125 27.609375 Z M 41.8125 27.609375 "/></g></g></g><g fill="#84d1aa" fill-opacity="1"><g transform="translate(549.32963, 179.570177)"><g><path d="M 25.640625 -13.203125 C 29.265625 -16.015625 33.285156 -18.1875 37.703125 -19.71875 C 42.128906 -21.25 46.535156 -22.082031 50.921875 -22.21875 C 55.316406 -22.351562 59.566406 -21.546875 63.671875 -19.796875 C 67.785156 -18.046875 71.210938 -15.40625 73.953125 -11.875 C 74.921875 -10.625 75.472656 -9.234375 75.609375 -7.703125 C 75.753906 -6.179688 75.222656 -4.957031 74.015625 -4.03125 C 73.691406 -3.769531 73.4375 -3.609375 73.25 -3.546875 C 68.414062 -8.554688 62.632812 -11.015625 55.90625 -10.921875 C 49.175781 -10.835938 42.65625 -8.347656 36.34375 -3.453125 C 30.03125 1.441406 26.144531 6.085938 24.6875 10.484375 C 23.238281 14.878906 23.539062 18.40625 25.59375 21.0625 C 26.882812 22.726562 28.585938 23.707031 30.703125 24 C 32.828125 24.289062 34.835938 23.703125 36.734375 22.234375 C 39.566406 20.035156 41.335938 16.851562 42.046875 12.6875 C 42.765625 8.53125 41.675781 4.34375 38.78125 0.125 C 40.945312 -1.488281 43.351562 -2.070312 46 -1.625 C 48.644531 -1.1875 50.992188 0.351562 53.046875 3 C 55.097656 5.644531 56.171875 8.726562 56.265625 12.25 C 56.367188 15.769531 55.691406 18.875 54.234375 21.5625 C 52.785156 24.257812 50.953125 26.46875 48.734375 28.1875 C 43.441406 32.289062 37.890625 33.898438 32.078125 33.015625 C 26.265625 32.140625 21.398438 29.171875 17.484375 24.109375 C 12.796875 18.078125 11.347656 11.617188 13.140625 4.734375 C 14.929688 -2.148438 19.097656 -8.128906 25.640625 -13.203125 Z M 25.640625 -13.203125 "/></g></g></g><g fill="#84d1aa" fill-opacity="1"><g transform="translate(581.586861, 220.992762)"><g><path d="M 42.0625 -5.21875 C 46.007812 -2.851562 49.132812 0.390625 51.4375 4.515625 C 53.738281 8.640625 54.1875 13.296875 52.78125 18.484375 C 51.382812 23.679688 48.046875 27.753906 42.765625 30.703125 C 37.484375 33.648438 31.582031 34.164062 25.0625 32.25 C 18.550781 30.34375 13.578125 26.3125 10.140625 20.15625 C 7.742188 15.851562 6.679688 11.539062 6.953125 7.21875 C 7.234375 2.894531 9.09375 -0.222656 12.53125 -2.140625 C 15.082031 -3.566406 17.515625 -3.78125 19.828125 -2.78125 C 22.140625 -1.789062 23.78125 -0.421875 24.75 1.328125 C 22.289062 4.023438 20.867188 6.960938 20.484375 10.140625 C 20.109375 13.316406 20.648438 16.210938 22.109375 18.828125 C 23.566406 21.441406 25.359375 23.179688 27.484375 24.046875 C 29.617188 24.910156 31.84375 24.695312 34.15625 23.40625 C 37.488281 21.539062 39.332031 18.640625 39.6875 14.703125 C 40.050781 10.765625 39.273438 7.078125 37.359375 3.640625 C 35.441406 0.210938 33.226562 -2.476562 30.71875 -4.4375 C 30.125 -5.507812 30.015625 -6.640625 30.390625 -7.828125 C 30.765625 -9.015625 31.539062 -9.9375 32.71875 -10.59375 C 33.90625 -11.257812 41.414062 -13.773438 55.25 -18.140625 C 60.28125 -19.722656 64.671875 -17.160156 68.421875 -10.453125 L 73.4375 -1.4375 C 74.945312 1.269531 76.570312 2.976562 78.3125 3.6875 C 77.757812 5.34375 76.351562 6.800781 74.09375 8.0625 C 71.832031 9.320312 69.535156 9.390625 67.203125 8.265625 C 64.867188 7.148438 62.5625 4.539062 60.28125 0.4375 L 54.953125 -9.09375 Z M 42.0625 -5.21875 "/></g></g></g><g fill="#f7e7a8" fill-opacity="1"><g transform="translate(605.044551, 262.502661)"><g><path d="M 63.921875 22.546875 C 61.179688 23.597656 58.410156 23.640625 55.609375 22.671875 C 52.816406 21.703125 50.414062 19.96875 48.40625 17.46875 C 48.789062 21.28125 47.9375 24.925781 45.84375 28.40625 C 43.75 31.882812 40.566406 34.441406 36.296875 36.078125 C 30.484375 38.316406 24.695312 37.785156 18.9375 34.484375 C 13.175781 31.179688 9.171875 26.597656 6.921875 20.734375 C 4.515625 14.484375 4.421875 8.925781 6.640625 4.0625 C 7.898438 1.4375 9.875 -0.390625 12.5625 -1.421875 C 15.257812 -2.453125 17.65625 -2.316406 19.75 -1.015625 C 21.851562 0.285156 23.15625 1.597656 23.65625 2.921875 C 20.394531 5.546875 18.28125 8.628906 17.3125 12.171875 C 16.351562 15.722656 16.40625 18.894531 17.46875 21.6875 C 18.539062 24.476562 20.0625 26.3125 22.03125 27.1875 C 24 28.070312 26.023438 28.117188 28.109375 27.328125 C 31.285156 26.097656 33.644531 23.554688 35.1875 19.703125 C 36.738281 15.847656 36.578125 11.476562 34.703125 6.59375 C 34.117188 5.070312 33.554688 3.9375 33.015625 3.1875 C 33.328125 2.175781 34.070312 1.445312 35.25 1 C 36.425781 0.550781 37.9375 0.929688 39.78125 2.140625 C 41.625 3.359375 43.359375 4.785156 44.984375 6.421875 C 46.617188 8.054688 48.539062 9.410156 50.75 10.484375 C 52.96875 11.554688 55.019531 11.726562 56.90625 11 C 58.800781 10.28125 60.015625 8.9375 60.546875 6.96875 C 61.078125 5 60.925781 2.921875 60.09375 0.734375 C 58.675781 -2.941406 55.90625 -6.066406 51.78125 -8.640625 C 51.707031 -9.484375 51.953125 -10.28125 52.515625 -11.03125 C 53.078125 -11.789062 53.796875 -12.335938 54.671875 -12.671875 C 57.085938 -13.597656 59.925781 -12.707031 63.1875 -10 C 66.457031 -7.289062 68.988281 -3.59375 70.78125 1.09375 C 72.582031 5.78125 72.890625 10.144531 71.703125 14.1875 C 70.523438 18.226562 67.929688 21.015625 63.921875 22.546875 Z M 63.921875 22.546875 "/></g></g></g><g fill="#f7e7a8" fill-opacity="1"><g transform="translate(622.224405, 306.509901)"><g><path d="M 41.84375 6.84375 C 44.957031 10.238281 47.035156 14.238281 48.078125 18.84375 C 49.128906 23.457031 48.242188 28.050781 45.421875 32.625 C 42.609375 37.207031 38.253906 40.171875 32.359375 41.515625 C 26.460938 42.859375 20.660156 41.691406 14.953125 38.015625 C 9.242188 34.347656 5.613281 29.078125 4.0625 22.203125 C 2.96875 17.398438 3.160156 12.960938 4.640625 8.890625 C 6.117188 4.816406 8.78125 2.34375 12.625 1.46875 C 15.476562 0.820312 17.875 1.300781 19.8125 2.90625 C 21.75 4.519531 22.9375 6.300781 23.375 8.25 C 20.25 10.15625 18.054688 12.570312 16.796875 15.5 C 15.535156 18.4375 15.234375 21.363281 15.890625 24.28125 C 16.554688 27.207031 17.789062 29.382812 19.59375 30.8125 C 21.394531 32.238281 23.585938 32.660156 26.171875 32.078125 C 29.898438 31.234375 32.488281 28.972656 33.9375 25.296875 C 35.382812 21.628906 35.671875 17.875 34.796875 14.03125 C 33.929688 10.195312 32.570312 6.984375 30.71875 4.390625 C 30.445312 3.191406 30.660156 2.078125 31.359375 1.046875 C 32.054688 0.015625 33.0625 -0.648438 34.375 -0.953125 C 35.695312 -1.253906 43.609375 -1.546875 58.109375 -1.828125 C 63.390625 -1.929688 66.878906 1.757812 68.578125 9.25 L 70.859375 19.3125 C 71.546875 22.34375 72.628906 24.441406 74.109375 25.609375 C 73.109375 27.046875 71.347656 28.050781 68.828125 28.625 C 66.304688 29.195312 64.082031 28.613281 62.15625 26.875 C 60.226562 25.144531 58.742188 21.992188 57.703125 17.421875 L 55.28125 6.765625 Z M 41.84375 6.84375 "/></g></g></g><g fill="#f7e7a8" fill-opacity="1"><g transform="translate(633.255571, 352.688474)"><g><path d="M 30.890625 18.5625 C 28.054688 16.6875 24.882812 15.875 21.375 16.125 C 17.863281 16.375 14.800781 17.8125 12.1875 20.4375 C 9.570312 23.070312 8.410156 26.441406 8.703125 30.546875 C 8.859375 32.703125 9.65625 34.613281 11.09375 36.28125 C 12.539062 37.957031 14.410156 38.71875 16.703125 38.5625 C 20.796875 38.269531 24.25 34.660156 27.0625 27.734375 C 28.207031 24.773438 29.484375 21.71875 30.890625 18.5625 Z M 39.359375 33.046875 C 41.960938 34.273438 44.863281 34.773438 48.0625 34.546875 C 51.257812 34.316406 54.15625 32.972656 56.75 30.515625 C 59.34375 28.066406 60.523438 25.175781 60.296875 21.84375 C 60.148438 19.84375 59.378906 18.15625 57.984375 16.78125 C 56.585938 15.414062 54.773438 14.8125 52.546875 14.96875 C 50.734375 15.101562 48.890625 16.0625 47.015625 17.84375 C 45.972656 18.851562 44.953125 20.425781 43.953125 22.5625 C 42.953125 24.695312 42.019531 26.773438 41.15625 28.796875 C 40.300781 30.828125 39.703125 32.242188 39.359375 33.046875 Z M 51.109375 46.78125 C 45.253906 47.195312 40.289062 44.8125 36.21875 39.625 C 32.1875 46.6875 27.148438 50.4375 21.109375 50.875 C 17.953125 51.09375 15.085938 50.523438 12.515625 49.171875 C 9.941406 47.828125 7.867188 46.035156 6.296875 43.796875 C 3.203125 39.242188 1.484375 34.5625 1.140625 29.75 C 0.703125 23.550781 2.046875 17.804688 5.171875 12.515625 C 8.296875 7.234375 12.914062 4.375 19.03125 3.9375 C 25.15625 3.5 30.285156 6.195312 34.421875 12.03125 C 38.171875 6.820312 42.648438 4.03125 47.859375 3.65625 C 53.066406 3.28125 57.535156 4.929688 61.265625 8.609375 C 65.003906 12.285156 67.09375 17.226562 67.53125 23.4375 C 67.769531 26.84375 67.363281 30.226562 66.3125 33.59375 C 65.257812 36.96875 63.394531 39.941406 60.71875 42.515625 C 58.050781 45.097656 54.847656 46.519531 51.109375 46.78125 Z M 51.109375 46.78125 "/></g></g></g><g fill="#f7c659" fill-opacity="1"><g transform="translate(637.335647, 405.984457)"><g><path d="M 31.84375 54.078125 C 25.695312 53.535156 19.90625 51.785156 14.46875 48.828125 C 9.039062 45.878906 4.679688 41.859375 1.390625 36.765625 C -1.898438 31.679688 -3.285156 26.1875 -2.765625 20.28125 C -2.617188 18.644531 -2.078125 17.226562 -1.140625 16.03125 C -0.210938 14.84375 1.003906 14.316406 2.515625 14.453125 C 2.929688 14.492188 3.253906 14.550781 3.484375 14.625 C 3.648438 21.539062 6.226562 27.265625 11.21875 31.796875 C 16.207031 36.335938 22.679688 38.957031 30.640625 39.65625 C 38.597656 40.363281 44.601562 39.585938 48.65625 37.328125 C 52.71875 35.066406 54.894531 32.265625 55.1875 28.921875 C 55.375 26.816406 54.769531 24.953125 53.375 23.328125 C 51.988281 21.703125 50.097656 20.78125 47.703125 20.5625 C 44.128906 20.25 40.679688 21.375 37.359375 23.9375 C 34.035156 26.507812 32.015625 30.296875 31.296875 35.296875 C 28.546875 34.992188 26.363281 33.796875 24.75 31.703125 C 23.132812 29.617188 22.472656 26.910156 22.765625 23.578125 C 23.054688 20.242188 24.363281 17.25 26.6875 14.59375 C 29.007812 11.9375 31.597656 10.117188 34.453125 9.140625 C 37.316406 8.160156 40.15625 7.796875 42.96875 8.046875 C 49.632812 8.628906 54.796875 11.21875 58.453125 15.8125 C 62.117188 20.414062 63.675781 25.875 63.125 32.1875 C 62.445312 39.800781 59.125 45.535156 53.15625 49.390625 C 47.195312 53.242188 40.09375 54.804688 31.84375 54.078125 Z M 31.84375 54.078125 "/></g></g></g><g fill="#f7c659" fill-opacity="1"><g transform="translate(632.621196, 458.432093)"><g><path d="M 59.671875 29.375 L 53.125 57.140625 C 52.382812 57.503906 51.210938 57.492188 49.609375 57.109375 C 48.003906 56.734375 45.625 55.101562 42.46875 52.21875 C 39.3125 49.34375 36.15625 46.234375 33 42.890625 C 29.84375 39.554688 26 36.285156 21.46875 33.078125 C 16.9375 29.867188 12.554688 27.765625 8.328125 26.765625 C 4.109375 25.773438 0.835938 26.867188 -1.484375 30.046875 C -1.628906 29.953125 -1.832031 29.828125 -2.09375 29.671875 C -2.363281 29.515625 -2.804688 29.140625 -3.421875 28.546875 C -4.046875 27.953125 -4.570312 27.304688 -5 26.609375 C -6.0625 24.722656 -6.269531 22.40625 -5.625 19.65625 C -4.976562 16.914062 -3.332031 14.859375 -0.6875 13.484375 C 1.945312 12.117188 5.007812 11.847656 8.5 12.671875 C 11.988281 13.492188 15.859375 15.765625 20.109375 19.484375 C 24.359375 23.203125 28.890625 27.707031 33.703125 33 C 38.515625 38.300781 41.925781 41.828125 43.9375 43.578125 C 44.007812 42.203125 44.269531 40.570312 44.71875 38.6875 L 48.671875 21.890625 C 49.378906 18.921875 49.332031 16.554688 48.53125 14.796875 C 50.289062 14.054688 52.050781 13.894531 53.8125 14.3125 C 55.582031 14.726562 56.96875 15.429688 57.96875 16.421875 C 58.96875 17.421875 59.648438 18.414062 60.015625 19.40625 C 60.390625 20.40625 60.582031 21.648438 60.59375 23.140625 C 60.53125 24.953125 60.222656 27.03125 59.671875 29.375 Z M 59.671875 29.375 "/></g></g></g><g fill="#f7c659" fill-opacity="1"><g transform="translate(623.42982, 500.107192)"><g><path d="M 15.21875 60.890625 C 9.476562 58.628906 4.425781 55.316406 0.0625 50.953125 C -4.300781 46.585938 -7.34375 41.488281 -9.0625 35.65625 C -10.789062 29.832031 -10.566406 24.164062 -8.390625 18.65625 C -7.785156 17.125 -6.867188 15.921875 -5.640625 15.046875 C -4.421875 14.179688 -3.101562 14.03125 -1.6875 14.59375 C -1.300781 14.738281 -1.003906 14.878906 -0.796875 15.015625 C -2.597656 21.691406 -1.75 27.910156 1.75 33.671875 C 5.25 39.429688 10.710938 43.773438 18.140625 46.703125 C 25.578125 49.628906 31.5625 50.582031 36.09375 49.5625 C 40.625 48.550781 43.503906 46.484375 44.734375 43.359375 C 45.515625 41.398438 45.46875 39.441406 44.59375 37.484375 C 43.71875 35.523438 42.160156 34.109375 39.921875 33.234375 C 36.585938 31.921875 32.96875 32.023438 29.0625 33.546875 C 25.15625 35.066406 22.140625 38.117188 20.015625 42.703125 C 17.460938 41.640625 15.707031 39.878906 14.75 37.421875 C 13.789062 34.960938 13.925781 32.175781 15.15625 29.0625 C 16.382812 25.945312 18.488281 23.445312 21.46875 21.5625 C 24.445312 19.675781 27.445312 18.664062 30.46875 18.53125 C 33.488281 18.394531 36.3125 18.84375 38.9375 19.875 C 45.164062 22.320312 49.382812 26.265625 51.59375 31.703125 C 53.800781 37.148438 53.742188 42.828125 51.421875 48.734375 C 48.628906 55.835938 43.820312 60.394531 37 62.40625 C 30.175781 64.425781 22.914062 63.921875 15.21875 60.890625 Z M 15.21875 60.890625 "/></g></g></g><g fill="#84d1aa" fill-opacity="1"><g transform="translate(604.279264, 549.004264)"><g><path d="M 22.625 63.90625 C 20.082031 62.425781 18.3125 60.296875 17.3125 57.515625 C 16.320312 54.734375 16.160156 51.769531 16.828125 48.625 C 14.109375 51.320312 10.734375 52.953125 6.703125 53.515625 C 2.679688 54.078125 -1.304688 53.210938 -5.265625 50.921875 C -10.648438 47.796875 -13.867188 42.953125 -14.921875 36.390625 C -15.984375 29.835938 -14.941406 23.847656 -11.796875 18.421875 C -8.429688 12.617188 -4.160156 9.050781 1.015625 7.71875 C 3.847656 7.050781 6.507812 7.4375 9 8.875 C 11.488281 10.320312 12.890625 12.269531 13.203125 14.71875 C 13.515625 17.175781 13.316406 19.015625 12.609375 20.234375 C 8.503906 19.347656 4.769531 19.640625 1.40625 21.109375 C -1.957031 22.585938 -4.390625 24.625 -5.890625 27.21875 C -7.390625 29.8125 -7.859375 32.148438 -7.296875 34.234375 C -6.742188 36.316406 -5.503906 37.914062 -3.578125 39.03125 C -0.628906 40.738281 2.820312 40.976562 6.78125 39.75 C 10.75 38.519531 14.046875 35.644531 16.671875 31.125 C 17.492188 29.707031 18.023438 28.554688 18.265625 27.671875 C 19.242188 27.285156 20.273438 27.410156 21.359375 28.046875 C 22.453125 28.679688 23.109375 30.097656 23.328125 32.296875 C 23.554688 34.492188 23.539062 36.738281 23.28125 39.03125 C 23.03125 41.332031 23.179688 43.679688 23.734375 46.078125 C 24.296875 48.472656 25.453125 50.175781 27.203125 51.1875 C 28.960938 52.207031 30.773438 52.300781 32.640625 51.46875 C 34.503906 50.644531 36.023438 49.222656 37.203125 47.203125 C 39.171875 43.796875 39.859375 39.679688 39.265625 34.859375 C 39.867188 34.265625 40.640625 33.945312 41.578125 33.90625 C 42.515625 33.875 43.390625 34.09375 44.203125 34.5625 C 46.429688 35.851562 47.523438 38.625 47.484375 42.875 C 47.441406 47.125 46.160156 51.421875 43.640625 55.765625 C 41.117188 60.109375 37.914062 63.085938 34.03125 64.703125 C 30.144531 66.316406 26.34375 66.050781 22.625 63.90625 Z M 22.625 63.90625 "/></g></g></g><g fill="#84d1aa" fill-opacity="1"><g transform="translate(580.852017, 590.023457)"><g><path d="M -23.640625 44.171875 C -28.253906 40.535156 -27.613281 34.988281 -21.71875 27.53125 L -7.09375 8.984375 C -4.875 6.171875 -2.40625 4.753906 0.3125 4.734375 C 1.9375 4.753906 3.332031 5.222656 4.5 6.140625 C 5.675781 7.066406 6.671875 8.113281 7.484375 9.28125 C 6.179688 21.632812 6.289062 31.257812 7.8125 38.15625 C 8.488281 40.988281 9.5625 43.769531 11.03125 46.5 C 12.507812 49.238281 14.535156 51.625 17.109375 53.65625 C 19.691406 55.695312 22.132812 56.769531 24.4375 56.875 C 26.75 56.988281 28.671875 56.078125 30.203125 54.140625 C 31.222656 52.847656 31.585938 51.503906 31.296875 50.109375 C 31.003906 48.710938 30.328125 47.597656 29.265625 46.765625 C 28.210938 45.929688 26.96875 45.546875 25.53125 45.609375 C 24.101562 45.679688 22.710938 46.195312 21.359375 47.15625 C 19.679688 43.5 20.332031 39.785156 23.3125 36.015625 C 25.09375 33.753906 27.289062 32.3125 29.90625 31.6875 C 32.53125 31.0625 35.019531 31.675781 37.375 33.53125 C 40.789062 36.226562 42.320312 40.238281 41.96875 45.5625 C 41.613281 50.894531 39.515625 55.992188 35.671875 60.859375 C 31.835938 65.722656 27.203125 68.535156 21.765625 69.296875 C 16.335938 70.066406 11.320312 68.628906 6.71875 64.984375 C 2.113281 61.347656 -1.035156 55.53125 -2.734375 47.53125 C -4.429688 39.539062 -3.929688 30.289062 -1.234375 19.78125 L -12.171875 35.625 C -15.265625 39.914062 -16.894531 43.492188 -17.0625 46.359375 C -19.65625 46.328125 -21.847656 45.597656 -23.640625 44.171875 Z M -23.640625 44.171875 "/></g></g></g><g fill="#84d1aa" fill-opacity="1"><g transform="translate(551.453368, 627.67098)"><g><path d="M 3.671875 67.6875 C 1.640625 65.550781 0.539062 63.003906 0.375 60.046875 C 0.21875 57.097656 0.898438 54.21875 2.421875 51.40625 C -0.941406 53.21875 -4.628906 53.820312 -8.640625 53.21875 C -12.660156 52.625 -16.25 50.671875 -19.40625 47.359375 C -23.695312 42.835938 -25.425781 37.285156 -24.59375 30.703125 C -23.757812 24.117188 -21.066406 18.664062 -16.515625 14.34375 C -11.648438 9.726562 -6.546875 7.507812 -1.203125 7.6875 C 1.703125 7.851562 4.144531 8.976562 6.125 11.0625 C 8.113281 13.15625 8.910156 15.421875 8.515625 17.859375 C 8.117188 20.296875 7.410156 22 6.390625 22.96875 C 2.703125 20.957031 -0.960938 20.1875 -4.609375 20.65625 C -8.253906 21.125 -11.160156 22.390625 -13.328125 24.453125 C -15.503906 26.515625 -16.617188 28.625 -16.671875 30.78125 C -16.734375 32.9375 -15.992188 34.820312 -14.453125 36.4375 C -12.109375 38.90625 -8.859375 40.113281 -4.703125 40.0625 C -0.546875 40.007812 3.425781 38.179688 7.21875 34.578125 C 8.40625 33.453125 9.234375 32.5 9.703125 31.71875 C 10.753906 31.625 11.710938 32.03125 12.578125 32.9375 C 13.453125 33.851562 13.679688 35.394531 13.265625 37.5625 C 12.859375 39.738281 12.210938 41.890625 11.328125 44.015625 C 10.441406 46.148438 9.921875 48.441406 9.765625 50.890625 C 9.617188 53.347656 10.242188 55.3125 11.640625 56.78125 C 13.035156 58.25 14.742188 58.851562 16.765625 58.59375 C 18.796875 58.332031 20.660156 57.394531 22.359375 55.78125 C 25.210938 53.0625 27.03125 49.304688 27.8125 44.515625 C 28.582031 44.128906 29.421875 44.050781 30.328125 44.28125 C 31.234375 44.507812 32.007812 44.960938 32.65625 45.640625 C 34.425781 47.515625 34.691406 50.476562 33.453125 54.53125 C 32.210938 58.59375 29.769531 62.347656 26.125 65.796875 C 22.488281 69.253906 18.570312 71.210938 14.375 71.671875 C 10.1875 72.128906 6.617188 70.800781 3.671875 67.6875 Z M 3.671875 67.6875 "/></g></g></g><g fill="#f7e7a8" fill-opacity="1"><g transform="translate(517.693857, 660.461954)"><g><path d="M -0.125 36.03125 C 0.0195312 32.644531 -0.910156 29.503906 -2.921875 26.609375 C -4.941406 23.722656 -7.75 21.828125 -11.34375 20.921875 C -14.9375 20.023438 -18.421875 20.753906 -21.796875 23.109375 C -23.578125 24.347656 -24.8125 26.015625 -25.5 28.109375 C -26.195312 30.203125 -25.890625 32.1875 -24.578125 34.0625 C -22.234375 37.4375 -17.367188 38.5625 -9.984375 37.4375 C -6.859375 36.90625 -3.570312 36.4375 -0.125 36.03125 Z M -8.28125 50.734375 C -7.976562 53.597656 -6.910156 56.34375 -5.078125 58.96875 C -3.253906 61.601562 -0.628906 63.40625 2.796875 64.375 C 6.234375 65.351562 9.320312 64.890625 12.0625 62.984375 C 13.707031 61.835938 14.757812 60.3125 15.21875 58.40625 C 15.6875 56.507812 15.28125 54.644531 14 52.8125 C 12.96875 51.320312 11.207031 50.222656 8.71875 49.515625 C 7.3125 49.140625 5.4375 49.066406 3.09375 49.296875 C 0.75 49.535156 -1.507812 49.804688 -3.6875 50.109375 C -5.875 50.410156 -7.40625 50.617188 -8.28125 50.734375 Z M -14.046875 67.84375 C -17.410156 63.019531 -17.90625 57.53125 -15.53125 51.375 C -23.65625 51.53125 -29.445312 49.125 -32.90625 44.15625 C -34.71875 41.550781 -35.703125 38.800781 -35.859375 35.90625 C -36.015625 33.007812 -35.53125 30.3125 -34.40625 27.8125 C -32.070312 22.832031 -28.925781 18.960938 -24.96875 16.203125 C -19.863281 12.648438 -14.238281 10.863281 -8.09375 10.84375 C -1.957031 10.832031 2.859375 13.34375 6.359375 18.375 C 9.867188 23.414062 10.175781 29.195312 7.28125 35.71875 C 13.664062 36.28125 18.347656 38.703125 21.328125 42.984375 C 24.316406 47.273438 25.1875 51.960938 23.9375 57.046875 C 22.6875 62.140625 19.503906 66.46875 14.390625 70.03125 C 11.597656 71.96875 8.484375 73.347656 5.046875 74.171875 C 1.617188 74.992188 -1.882812 74.914062 -5.46875 73.9375 C -9.050781 72.957031 -11.910156 70.925781 -14.046875 67.84375 Z M -14.046875 67.84375 "/></g></g></g><g fill="#f7e7a8" fill-opacity="1"><g transform="translate(474.07297, 691.26597)"><g><path d="M -5.390625 30.703125 L -17.0625 36.296875 L -6.78125 57.75 C -6.320312 58.707031 -5.773438 59.035156 -5.140625 58.734375 C -4.191406 58.273438 -3.257812 56.144531 -2.34375 52.34375 C -1.425781 48.550781 -0.863281 44.488281 -0.65625 40.15625 C -0.457031 35.832031 -0.765625 32.828125 -1.578125 31.140625 C -1.910156 30.453125 -2.363281 30.078125 -2.9375 30.015625 C -3.507812 29.960938 -4.328125 30.191406 -5.390625 30.703125 Z M -35.3125 34.109375 L -33.796875 33.390625 L -36.578125 27.609375 C -37.953125 24.742188 -39.703125 23.265625 -41.828125 23.171875 C -41.015625 19.984375 -39.148438 17.691406 -36.234375 16.296875 C -31.046875 13.804688 -26.941406 15.710938 -23.921875 22.015625 L -21.328125 27.40625 L -3.390625 18.8125 C 0.796875 16.800781 3.703125 17.492188 5.328125 20.890625 C 7.234375 24.859375 7.976562 30.894531 7.5625 39 C 7.15625 47.113281 5.691406 54.832031 3.171875 62.15625 C 0.660156 69.488281 -2.335938 73.992188 -5.828125 75.671875 C -10.003906 77.671875 -13.613281 75.492188 -16.65625 69.140625 L -29.53125 42.28125 L -32.078125 43.5 C -34.722656 44.769531 -36.367188 46.148438 -37.015625 47.640625 C -38.484375 47.046875 -39.617188 45.910156 -40.421875 44.234375 C -41.222656 42.566406 -41.164062 40.75 -40.25 38.78125 C -39.34375 36.8125 -37.695312 35.253906 -35.3125 34.109375 Z M -35.3125 34.109375 "/></g></g></g><g fill="#f7e7a8" fill-opacity="1"><g transform="translate(425.827931, 714.689741)"><g><path d="M 2.984375 28.6875 C 4.285156 33.082031 4.84375 37.617188 4.65625 42.296875 C 4.476562 46.972656 3.65625 51.378906 2.1875 55.515625 C 0.71875 59.648438 -1.578125 63.3125 -4.703125 66.5 C -7.828125 69.695312 -11.53125 71.929688 -15.8125 73.203125 C -17.332031 73.648438 -18.828125 73.660156 -20.296875 73.234375 C -21.773438 72.816406 -22.726562 71.878906 -23.15625 70.421875 C -23.269531 70.015625 -23.320312 69.71875 -23.3125 69.53125 C -16.894531 66.84375 -12.503906 62.347656 -10.140625 56.046875 C -7.785156 49.742188 -7.738281 42.757812 -10 35.09375 C -12.269531 27.4375 -15.1875 22.132812 -18.75 19.1875 C -22.3125 16.238281 -25.703125 15.238281 -28.921875 16.1875 C -30.953125 16.789062 -32.488281 18.023438 -33.53125 19.890625 C -34.570312 21.753906 -34.75 23.835938 -34.0625 26.140625 C -33.050781 29.578125 -30.734375 32.382812 -27.109375 34.5625 C -23.492188 36.75 -19.195312 37.257812 -14.21875 36.09375 C -13.507812 38.6875 -13.835938 41.132812 -15.203125 43.4375 C -16.566406 45.75 -18.851562 47.378906 -22.0625 48.328125 C -25.28125 49.285156 -28.550781 49.164062 -31.875 47.96875 C -35.195312 46.78125 -37.84375 45.019531 -39.8125 42.6875 C -41.789062 40.363281 -43.175781 37.851562 -43.96875 35.15625 C -45.875 28.738281 -45.359375 22.984375 -42.421875 17.890625 C -39.492188 12.796875 -34.960938 9.34375 -28.828125 7.53125 C -21.503906 5.363281 -14.957031 6.363281 -9.1875 10.53125 C -3.425781 14.695312 0.628906 20.75 2.984375 28.6875 Z M 2.984375 28.6875 "/></g></g></g></svg>